<?xml version="1.0" encoding="utf-8" standalone="no"?>
<!DOCTYPE svg PUBLIC "-//W3C//DTD SVG 1.1//EN"
  "http://www.w3.org/Graphics/SVG/1.1/DTD/svg11.dtd">
<svg xmlns:xlink="http://www.w3.org/1999/xlink" width="1080pt" height="333.745365pt" viewBox="0 0 1080 333.745365" xmlns="http://www.w3.org/2000/svg" version="1.1">
 <metadata>
  <rdf:RDF xmlns:dc="http://purl.org/dc/elements/1.1/" xmlns:cc="http://creativecommons.org/ns#" xmlns:rdf="http://www.w3.org/1999/02/22-rdf-syntax-ns#">
   <cc:Work>
    <dc:type rdf:resource="http://purl.org/dc/dcmitype/StillImage"/>
    <dc:date>2023-03-22T14:48:49.170141</dc:date>
    <dc:format>image/svg+xml</dc:format>
    <dc:creator>
     <cc:Agent>
      <dc:title>Matplotlib v3.6.2, https://matplotlib.org/</dc:title>
     </cc:Agent>
    </dc:creator>
   </cc:Work>
  </rdf:RDF>
 </metadata>
 <defs>
  <style type="text/css">*{stroke-linejoin: round; stroke-linecap: butt}</style>
 </defs>
 <g id="figure_1">
  <g id="patch_1">
   <path d="M 0 333.745365 
L 1080 333.745365 
L 1080 0 
L 0 0 
z
" style="fill: #ffffff"/>
  </g>
  <g id="axes_1">
   <g id="patch_2">
    <path d="M 53.12 290.345365 
L 1066.596488 290.345365 
L 1066.596488 49.089197 
L 53.12 49.089197 
z
" style="fill: #ffffff"/>
   </g>
   <g id="patch_3">
    <path d="M 290.946962 283.643804 
L 539.555235 283.643804 
L 539.555235 49.089197 
L 290.946962 49.089197 
z
" clip-path="url(#pf98a968744)" style="fill: #ff8c00; opacity: 0.1"/>
   </g>
   <g id="patch_4">
    <path d="M 580.989948 283.643804 
L 622.42466 283.643804 
L 622.42466 49.089197 
L 580.989948 49.089197 
z
" clip-path="url(#pf98a968744)" style="fill: #006400; opacity: 0.1"/>
   </g>
   <g id="patch_5">
    <path d="M 63.056044 283.643804 
L 228.794893 283.643804 
L 228.794893 49.089197 
L 63.056044 49.089197 
z
" clip-path="url(#pf98a968744)" style="opacity: 0.1"/>
   </g>
   <g id="patch_6">
    <path d="M 228.794893 283.643804 
L 477.403167 283.643804 
L 477.403167 49.089197 
L 228.794893 49.089197 
z
" clip-path="url(#pf98a968744)" style="opacity: 0.2"/>
   </g>
   <g id="patch_7">
    <path d="M 477.403167 283.643804 
L 1056.660444 283.643804 
L 1056.660444 49.089197 
L 477.403167 49.089197 
z
" clip-path="url(#pf98a968744)" style="opacity: 0.1"/>
   </g>
   <g id="matplotlib.axis_1">
    <g id="xtick_1">
     <g id="line2d_1">
      <defs>
       <path id="m87f6c4e2a5" d="M 0 0 
L 0 3.5 
" style="stroke: #000000; stroke-width: 0.8"/>
      </defs>
      <g>
       <use xlink:href="#m87f6c4e2a5" x="63.056044" y="290.345365" style="stroke: #000000; stroke-width: 0.8"/>
      </g>
     </g>
     <g id="text_1">
      <!-- 0 -->
      <g transform="translate(60.511044 303.424115) scale(0.08 -0.08)">
       <defs>
        <path id="DejaVuSans-30" d="M 2034 4250 
Q 1547 4250 1301 3770 
Q 1056 3291 1056 2328 
Q 1056 1369 1301 889 
Q 1547 409 2034 409 
Q 2525 409 2770 889 
Q 3016 1369 3016 2328 
Q 3016 3291 2770 3770 
Q 2525 4250 2034 4250 
z
M 2034 4750 
Q 2819 4750 3233 4129 
Q 3647 3509 3647 2328 
Q 3647 1150 3233 529 
Q 2819 -91 2034 -91 
Q 1250 -91 836 529 
Q 422 1150 422 2328 
Q 422 3509 836 4129 
Q 1250 4750 2034 4750 
z
" transform="scale(0.015625)"/>
       </defs>
       <use xlink:href="#DejaVuSans-30"/>
      </g>
     </g>
    </g>
    <g id="xtick_2">
     <g id="line2d_2">
      <g>
       <use xlink:href="#m87f6c4e2a5" x="228.794893" y="290.345365" style="stroke: #000000; stroke-width: 0.8"/>
      </g>
     </g>
     <g id="text_2">
      <!-- 200 -->
      <g transform="translate(221.159893 303.424115) scale(0.08 -0.08)">
       <defs>
        <path id="DejaVuSans-32" d="M 1228 531 
L 3431 531 
L 3431 0 
L 469 0 
L 469 531 
Q 828 903 1448 1529 
Q 2069 2156 2228 2338 
Q 2531 2678 2651 2914 
Q 2772 3150 2772 3378 
Q 2772 3750 2511 3984 
Q 2250 4219 1831 4219 
Q 1534 4219 1204 4116 
Q 875 4013 500 3803 
L 500 4441 
Q 881 4594 1212 4672 
Q 1544 4750 1819 4750 
Q 2544 4750 2975 4387 
Q 3406 4025 3406 3419 
Q 3406 3131 3298 2873 
Q 3191 2616 2906 2266 
Q 2828 2175 2409 1742 
Q 1991 1309 1228 531 
z
" transform="scale(0.015625)"/>
       </defs>
       <use xlink:href="#DejaVuSans-32"/>
       <use xlink:href="#DejaVuSans-30" x="63.623047"/>
       <use xlink:href="#DejaVuSans-30" x="127.246094"/>
      </g>
     </g>
    </g>
    <g id="xtick_3">
     <g id="line2d_3">
      <g>
       <use xlink:href="#m87f6c4e2a5" x="394.533742" y="290.345365" style="stroke: #000000; stroke-width: 0.8"/>
      </g>
     </g>
     <g id="text_3">
      <!-- 400 -->
      <g transform="translate(386.898742 303.424115) scale(0.08 -0.08)">
       <defs>
        <path id="DejaVuSans-34" d="M 2419 4116 
L 825 1625 
L 2419 1625 
L 2419 4116 
z
M 2253 4666 
L 3047 4666 
L 3047 1625 
L 3713 1625 
L 3713 1100 
L 3047 1100 
L 3047 0 
L 2419 0 
L 2419 1100 
L 313 1100 
L 313 1709 
L 2253 4666 
z
" transform="scale(0.015625)"/>
       </defs>
       <use xlink:href="#DejaVuSans-34"/>
       <use xlink:href="#DejaVuSans-30" x="63.623047"/>
       <use xlink:href="#DejaVuSans-30" x="127.246094"/>
      </g>
     </g>
    </g>
    <g id="xtick_4">
     <g id="line2d_4">
      <g>
       <use xlink:href="#m87f6c4e2a5" x="560.272591" y="290.345365" style="stroke: #000000; stroke-width: 0.8"/>
      </g>
     </g>
     <g id="text_4">
      <!-- 600 -->
      <g transform="translate(552.637591 303.424115) scale(0.08 -0.08)">
       <defs>
        <path id="DejaVuSans-36" d="M 2113 2584 
Q 1688 2584 1439 2293 
Q 1191 2003 1191 1497 
Q 1191 994 1439 701 
Q 1688 409 2113 409 
Q 2538 409 2786 701 
Q 3034 994 3034 1497 
Q 3034 2003 2786 2293 
Q 2538 2584 2113 2584 
z
M 3366 4563 
L 3366 3988 
Q 3128 4100 2886 4159 
Q 2644 4219 2406 4219 
Q 1781 4219 1451 3797 
Q 1122 3375 1075 2522 
Q 1259 2794 1537 2939 
Q 1816 3084 2150 3084 
Q 2853 3084 3261 2657 
Q 3669 2231 3669 1497 
Q 3669 778 3244 343 
Q 2819 -91 2113 -91 
Q 1303 -91 875 529 
Q 447 1150 447 2328 
Q 447 3434 972 4092 
Q 1497 4750 2381 4750 
Q 2619 4750 2861 4703 
Q 3103 4656 3366 4563 
z
" transform="scale(0.015625)"/>
       </defs>
       <use xlink:href="#DejaVuSans-36"/>
       <use xlink:href="#DejaVuSans-30" x="63.623047"/>
       <use xlink:href="#DejaVuSans-30" x="127.246094"/>
      </g>
     </g>
    </g>
    <g id="xtick_5">
     <g id="line2d_5">
      <g>
       <use xlink:href="#m87f6c4e2a5" x="726.01144" y="290.345365" style="stroke: #000000; stroke-width: 0.8"/>
      </g>
     </g>
     <g id="text_5">
      <!-- 800 -->
      <g transform="translate(718.37644 303.424115) scale(0.08 -0.08)">
       <defs>
        <path id="DejaVuSans-38" d="M 2034 2216 
Q 1584 2216 1326 1975 
Q 1069 1734 1069 1313 
Q 1069 891 1326 650 
Q 1584 409 2034 409 
Q 2484 409 2743 651 
Q 3003 894 3003 1313 
Q 3003 1734 2745 1975 
Q 2488 2216 2034 2216 
z
M 1403 2484 
Q 997 2584 770 2862 
Q 544 3141 544 3541 
Q 544 4100 942 4425 
Q 1341 4750 2034 4750 
Q 2731 4750 3128 4425 
Q 3525 4100 3525 3541 
Q 3525 3141 3298 2862 
Q 3072 2584 2669 2484 
Q 3125 2378 3379 2068 
Q 3634 1759 3634 1313 
Q 3634 634 3220 271 
Q 2806 -91 2034 -91 
Q 1263 -91 848 271 
Q 434 634 434 1313 
Q 434 1759 690 2068 
Q 947 2378 1403 2484 
z
M 1172 3481 
Q 1172 3119 1398 2916 
Q 1625 2713 2034 2713 
Q 2441 2713 2670 2916 
Q 2900 3119 2900 3481 
Q 2900 3844 2670 4047 
Q 2441 4250 2034 4250 
Q 1625 4250 1398 4047 
Q 1172 3844 1172 3481 
z
" transform="scale(0.015625)"/>
       </defs>
       <use xlink:href="#DejaVuSans-38"/>
       <use xlink:href="#DejaVuSans-30" x="63.623047"/>
       <use xlink:href="#DejaVuSans-30" x="127.246094"/>
      </g>
     </g>
    </g>
    <g id="xtick_6">
     <g id="line2d_6">
      <g>
       <use xlink:href="#m87f6c4e2a5" x="891.75029" y="290.345365" style="stroke: #000000; stroke-width: 0.8"/>
      </g>
     </g>
     <g id="text_6">
      <!-- 1000 -->
      <g transform="translate(881.57029 303.424115) scale(0.08 -0.08)">
       <defs>
        <path id="DejaVuSans-31" d="M 794 531 
L 1825 531 
L 1825 4091 
L 703 3866 
L 703 4441 
L 1819 4666 
L 2450 4666 
L 2450 531 
L 3481 531 
L 3481 0 
L 794 0 
L 794 531 
z
" transform="scale(0.015625)"/>
       </defs>
       <use xlink:href="#DejaVuSans-31"/>
       <use xlink:href="#DejaVuSans-30" x="63.623047"/>
       <use xlink:href="#DejaVuSans-30" x="127.246094"/>
       <use xlink:href="#DejaVuSans-30" x="190.869141"/>
      </g>
     </g>
    </g>
    <g id="xtick_7">
     <g id="line2d_7">
      <g>
       <use xlink:href="#m87f6c4e2a5" x="1057.489139" y="290.345365" style="stroke: #000000; stroke-width: 0.8"/>
      </g>
     </g>
     <g id="text_7">
      <!-- 1200 -->
      <g transform="translate(1047.309139 303.424115) scale(0.08 -0.08)">
       <use xlink:href="#DejaVuSans-31"/>
       <use xlink:href="#DejaVuSans-32" x="63.623047"/>
       <use xlink:href="#DejaVuSans-30" x="127.246094"/>
       <use xlink:href="#DejaVuSans-30" x="190.869141"/>
      </g>
     </g>
    </g>
    <g id="text_8">
     <!-- Time (ms) -->
     <g transform="translate(519.539494 321.245365) scale(0.16 -0.16)">
      <defs>
       <path id="DejaVuSans-54" d="M -19 4666 
L 3928 4666 
L 3928 4134 
L 2272 4134 
L 2272 0 
L 1638 0 
L 1638 4134 
L -19 4134 
L -19 4666 
z
" transform="scale(0.015625)"/>
       <path id="DejaVuSans-69" d="M 603 3500 
L 1178 3500 
L 1178 0 
L 603 0 
L 603 3500 
z
M 603 4863 
L 1178 4863 
L 1178 4134 
L 603 4134 
L 603 4863 
z
" transform="scale(0.015625)"/>
       <path id="DejaVuSans-6d" d="M 3328 2828 
Q 3544 3216 3844 3400 
Q 4144 3584 4550 3584 
Q 5097 3584 5394 3201 
Q 5691 2819 5691 2113 
L 5691 0 
L 5113 0 
L 5113 2094 
Q 5113 2597 4934 2840 
Q 4756 3084 4391 3084 
Q 3944 3084 3684 2787 
Q 3425 2491 3425 1978 
L 3425 0 
L 2847 0 
L 2847 2094 
Q 2847 2600 2669 2842 
Q 2491 3084 2119 3084 
Q 1678 3084 1418 2786 
Q 1159 2488 1159 1978 
L 1159 0 
L 581 0 
L 581 3500 
L 1159 3500 
L 1159 2956 
Q 1356 3278 1631 3431 
Q 1906 3584 2284 3584 
Q 2666 3584 2933 3390 
Q 3200 3197 3328 2828 
z
" transform="scale(0.015625)"/>
       <path id="DejaVuSans-65" d="M 3597 1894 
L 3597 1613 
L 953 1613 
Q 991 1019 1311 708 
Q 1631 397 2203 397 
Q 2534 397 2845 478 
Q 3156 559 3463 722 
L 3463 178 
Q 3153 47 2828 -22 
Q 2503 -91 2169 -91 
Q 1331 -91 842 396 
Q 353 884 353 1716 
Q 353 2575 817 3079 
Q 1281 3584 2069 3584 
Q 2775 3584 3186 3129 
Q 3597 2675 3597 1894 
z
M 3022 2063 
Q 3016 2534 2758 2815 
Q 2500 3097 2075 3097 
Q 1594 3097 1305 2825 
Q 1016 2553 972 2059 
L 3022 2063 
z
" transform="scale(0.015625)"/>
       <path id="DejaVuSans-20" transform="scale(0.015625)"/>
       <path id="DejaVuSans-28" d="M 1984 4856 
Q 1566 4138 1362 3434 
Q 1159 2731 1159 2009 
Q 1159 1288 1364 580 
Q 1569 -128 1984 -844 
L 1484 -844 
Q 1016 -109 783 600 
Q 550 1309 550 2009 
Q 550 2706 781 3412 
Q 1013 4119 1484 4856 
L 1984 4856 
z
" transform="scale(0.015625)"/>
       <path id="DejaVuSans-73" d="M 2834 3397 
L 2834 2853 
Q 2591 2978 2328 3040 
Q 2066 3103 1784 3103 
Q 1356 3103 1142 2972 
Q 928 2841 928 2578 
Q 928 2378 1081 2264 
Q 1234 2150 1697 2047 
L 1894 2003 
Q 2506 1872 2764 1633 
Q 3022 1394 3022 966 
Q 3022 478 2636 193 
Q 2250 -91 1575 -91 
Q 1294 -91 989 -36 
Q 684 19 347 128 
L 347 722 
Q 666 556 975 473 
Q 1284 391 1588 391 
Q 1994 391 2212 530 
Q 2431 669 2431 922 
Q 2431 1156 2273 1281 
Q 2116 1406 1581 1522 
L 1381 1569 
Q 847 1681 609 1914 
Q 372 2147 372 2553 
Q 372 3047 722 3315 
Q 1072 3584 1716 3584 
Q 2034 3584 2315 3537 
Q 2597 3491 2834 3397 
z
" transform="scale(0.015625)"/>
       <path id="DejaVuSans-29" d="M 513 4856 
L 1013 4856 
Q 1481 4119 1714 3412 
Q 1947 2706 1947 2009 
Q 1947 1309 1714 600 
Q 1481 -109 1013 -844 
L 513 -844 
Q 928 -128 1133 580 
Q 1338 1288 1338 2009 
Q 1338 2731 1133 3434 
Q 928 4138 513 4856 
z
" transform="scale(0.015625)"/>
      </defs>
      <use xlink:href="#DejaVuSans-54"/>
      <use xlink:href="#DejaVuSans-69" x="57.958984"/>
      <use xlink:href="#DejaVuSans-6d" x="85.742188"/>
      <use xlink:href="#DejaVuSans-65" x="183.154297"/>
      <use xlink:href="#DejaVuSans-20" x="244.677734"/>
      <use xlink:href="#DejaVuSans-28" x="276.464844"/>
      <use xlink:href="#DejaVuSans-6d" x="315.478516"/>
      <use xlink:href="#DejaVuSans-73" x="412.890625"/>
      <use xlink:href="#DejaVuSans-29" x="464.990234"/>
     </g>
    </g>
   </g>
   <g id="matplotlib.axis_2">
    <g id="ytick_1">
     <g id="line2d_8">
      <defs>
       <path id="mf46dded865" d="M 0 0 
L -3.5 0 
" style="stroke: #000000; stroke-width: 0.8"/>
      </defs>
      <g>
       <use xlink:href="#mf46dded865" x="53.12" y="283.643804" style="stroke: #000000; stroke-width: 0.8"/>
      </g>
     </g>
     <g id="text_9">
      <!-- −20 -->
      <g transform="translate(29.23625 286.683179) scale(0.08 -0.08)">
       <defs>
        <path id="DejaVuSans-2212" d="M 678 2272 
L 4684 2272 
L 4684 1741 
L 678 1741 
L 678 2272 
z
" transform="scale(0.015625)"/>
       </defs>
       <use xlink:href="#DejaVuSans-2212"/>
       <use xlink:href="#DejaVuSans-32" x="83.789062"/>
       <use xlink:href="#DejaVuSans-30" x="147.412109"/>
      </g>
     </g>
    </g>
    <g id="ytick_2">
     <g id="line2d_9">
      <g>
       <use xlink:href="#mf46dded865" x="53.12" y="250.136003" style="stroke: #000000; stroke-width: 0.8"/>
      </g>
     </g>
     <g id="text_10">
      <!-- −10 -->
      <g transform="translate(29.23625 253.175378) scale(0.08 -0.08)">
       <use xlink:href="#DejaVuSans-2212"/>
       <use xlink:href="#DejaVuSans-31" x="83.789062"/>
       <use xlink:href="#DejaVuSans-30" x="147.412109"/>
      </g>
     </g>
    </g>
    <g id="ytick_3">
     <g id="line2d_10">
      <g>
       <use xlink:href="#mf46dded865" x="53.12" y="216.628202" style="stroke: #000000; stroke-width: 0.8"/>
      </g>
     </g>
     <g id="text_11">
      <!-- 0 -->
      <g transform="translate(41.03 219.667577) scale(0.08 -0.08)">
       <use xlink:href="#DejaVuSans-30"/>
      </g>
     </g>
    </g>
    <g id="ytick_4">
     <g id="line2d_11">
      <g>
       <use xlink:href="#mf46dded865" x="53.12" y="183.120401" style="stroke: #000000; stroke-width: 0.8"/>
      </g>
     </g>
     <g id="text_12">
      <!-- 10 -->
      <g transform="translate(35.94 186.159776) scale(0.08 -0.08)">
       <use xlink:href="#DejaVuSans-31"/>
       <use xlink:href="#DejaVuSans-30" x="63.623047"/>
      </g>
     </g>
    </g>
    <g id="ytick_5">
     <g id="line2d_12">
      <g>
       <use xlink:href="#mf46dded865" x="53.12" y="149.6126" style="stroke: #000000; stroke-width: 0.8"/>
      </g>
     </g>
     <g id="text_13">
      <!-- 20 -->
      <g transform="translate(35.94 152.651975) scale(0.08 -0.08)">
       <use xlink:href="#DejaVuSans-32"/>
       <use xlink:href="#DejaVuSans-30" x="63.623047"/>
      </g>
     </g>
    </g>
    <g id="ytick_6">
     <g id="line2d_13">
      <g>
       <use xlink:href="#mf46dded865" x="53.12" y="116.104799" style="stroke: #000000; stroke-width: 0.8"/>
      </g>
     </g>
     <g id="text_14">
      <!-- 30 -->
      <g transform="translate(35.94 119.144174) scale(0.08 -0.08)">
       <defs>
        <path id="DejaVuSans-33" d="M 2597 2516 
Q 3050 2419 3304 2112 
Q 3559 1806 3559 1356 
Q 3559 666 3084 287 
Q 2609 -91 1734 -91 
Q 1441 -91 1130 -33 
Q 819 25 488 141 
L 488 750 
Q 750 597 1062 519 
Q 1375 441 1716 441 
Q 2309 441 2620 675 
Q 2931 909 2931 1356 
Q 2931 1769 2642 2001 
Q 2353 2234 1838 2234 
L 1294 2234 
L 1294 2753 
L 1863 2753 
Q 2328 2753 2575 2939 
Q 2822 3125 2822 3475 
Q 2822 3834 2567 4026 
Q 2313 4219 1838 4219 
Q 1578 4219 1281 4162 
Q 984 4106 628 3988 
L 628 4550 
Q 988 4650 1302 4700 
Q 1616 4750 1894 4750 
Q 2613 4750 3031 4423 
Q 3450 4097 3450 3541 
Q 3450 3153 3228 2886 
Q 3006 2619 2597 2516 
z
" transform="scale(0.015625)"/>
       </defs>
       <use xlink:href="#DejaVuSans-33"/>
       <use xlink:href="#DejaVuSans-30" x="63.623047"/>
      </g>
     </g>
    </g>
    <g id="text_15">
     <!-- Velocity (°/s) -->
     <g transform="translate(21.90875 220.749781) rotate(-90) scale(0.16 -0.16)">
      <defs>
       <path id="DejaVuSans-56" d="M 1831 0 
L 50 4666 
L 709 4666 
L 2188 738 
L 3669 4666 
L 4325 4666 
L 2547 0 
L 1831 0 
z
" transform="scale(0.015625)"/>
       <path id="DejaVuSans-6c" d="M 603 4863 
L 1178 4863 
L 1178 0 
L 603 0 
L 603 4863 
z
" transform="scale(0.015625)"/>
       <path id="DejaVuSans-6f" d="M 1959 3097 
Q 1497 3097 1228 2736 
Q 959 2375 959 1747 
Q 959 1119 1226 758 
Q 1494 397 1959 397 
Q 2419 397 2687 759 
Q 2956 1122 2956 1747 
Q 2956 2369 2687 2733 
Q 2419 3097 1959 3097 
z
M 1959 3584 
Q 2709 3584 3137 3096 
Q 3566 2609 3566 1747 
Q 3566 888 3137 398 
Q 2709 -91 1959 -91 
Q 1206 -91 779 398 
Q 353 888 353 1747 
Q 353 2609 779 3096 
Q 1206 3584 1959 3584 
z
" transform="scale(0.015625)"/>
       <path id="DejaVuSans-63" d="M 3122 3366 
L 3122 2828 
Q 2878 2963 2633 3030 
Q 2388 3097 2138 3097 
Q 1578 3097 1268 2742 
Q 959 2388 959 1747 
Q 959 1106 1268 751 
Q 1578 397 2138 397 
Q 2388 397 2633 464 
Q 2878 531 3122 666 
L 3122 134 
Q 2881 22 2623 -34 
Q 2366 -91 2075 -91 
Q 1284 -91 818 406 
Q 353 903 353 1747 
Q 353 2603 823 3093 
Q 1294 3584 2113 3584 
Q 2378 3584 2631 3529 
Q 2884 3475 3122 3366 
z
" transform="scale(0.015625)"/>
       <path id="DejaVuSans-74" d="M 1172 4494 
L 1172 3500 
L 2356 3500 
L 2356 3053 
L 1172 3053 
L 1172 1153 
Q 1172 725 1289 603 
Q 1406 481 1766 481 
L 2356 481 
L 2356 0 
L 1766 0 
Q 1100 0 847 248 
Q 594 497 594 1153 
L 594 3053 
L 172 3053 
L 172 3500 
L 594 3500 
L 594 4494 
L 1172 4494 
z
" transform="scale(0.015625)"/>
       <path id="DejaVuSans-79" d="M 2059 -325 
Q 1816 -950 1584 -1140 
Q 1353 -1331 966 -1331 
L 506 -1331 
L 506 -850 
L 844 -850 
Q 1081 -850 1212 -737 
Q 1344 -625 1503 -206 
L 1606 56 
L 191 3500 
L 800 3500 
L 1894 763 
L 2988 3500 
L 3597 3500 
L 2059 -325 
z
" transform="scale(0.015625)"/>
       <path id="DejaVuSans-b0" d="M 1600 4347 
Q 1350 4347 1178 4173 
Q 1006 4000 1006 3750 
Q 1006 3503 1178 3333 
Q 1350 3163 1600 3163 
Q 1850 3163 2022 3333 
Q 2194 3503 2194 3750 
Q 2194 3997 2020 4172 
Q 1847 4347 1600 4347 
z
M 1600 4750 
Q 1800 4750 1984 4673 
Q 2169 4597 2303 4453 
Q 2447 4313 2519 4134 
Q 2591 3956 2591 3750 
Q 2591 3338 2302 3052 
Q 2013 2766 1594 2766 
Q 1172 2766 890 3047 
Q 609 3328 609 3750 
Q 609 4169 896 4459 
Q 1184 4750 1600 4750 
z
" transform="scale(0.015625)"/>
       <path id="DejaVuSans-2f" d="M 1625 4666 
L 2156 4666 
L 531 -594 
L 0 -594 
L 1625 4666 
z
" transform="scale(0.015625)"/>
      </defs>
      <use xlink:href="#DejaVuSans-56"/>
      <use xlink:href="#DejaVuSans-65" x="60.658203"/>
      <use xlink:href="#DejaVuSans-6c" x="122.181641"/>
      <use xlink:href="#DejaVuSans-6f" x="149.964844"/>
      <use xlink:href="#DejaVuSans-63" x="211.146484"/>
      <use xlink:href="#DejaVuSans-69" x="266.126953"/>
      <use xlink:href="#DejaVuSans-74" x="293.910156"/>
      <use xlink:href="#DejaVuSans-79" x="333.119141"/>
      <use xlink:href="#DejaVuSans-20" x="392.298828"/>
      <use xlink:href="#DejaVuSans-28" x="424.085938"/>
      <use xlink:href="#DejaVuSans-b0" x="463.099609"/>
      <use xlink:href="#DejaVuSans-2f" x="513.099609"/>
      <use xlink:href="#DejaVuSans-73" x="546.791016"/>
      <use xlink:href="#DejaVuSans-29" x="598.890625"/>
     </g>
    </g>
   </g>
   <g id="line2d_14">
    <path d="M 80.458623 212.040364 
L 81.287317 216.628202 
L 82.116012 225.803878 
L 82.944706 221.21604 
L 83.7734 221.21604 
L 84.602094 216.628202 
L 85.430789 207.452526 
L 87.088177 225.803878 
L 87.916871 225.803878 
L 89.57426 234.979554 
L 90.402954 244.15523 
L 91.231648 244.15523 
L 92.060343 234.979554 
L 92.889037 221.21604 
L 93.717731 221.21604 
L 94.546425 239.567392 
L 95.37512 221.21604 
L 96.203814 193.689012 
L 97.032508 189.101174 
L 97.861202 207.452526 
L 98.689897 230.391716 
L 99.518591 234.979554 
L 101.175979 234.979554 
L 102.004674 216.628202 
L 102.833368 193.689012 
L 103.662062 189.101174 
L 104.490756 221.21604 
L 105.319451 248.743068 
L 106.148145 244.15523 
L 106.976839 225.803878 
L 107.805533 212.040364 
L 110.291616 225.803878 
L 111.949004 216.628202 
L 112.777699 216.628202 
L 113.606393 221.21604 
L 114.435087 216.628202 
L 115.263781 207.452526 
L 116.92117 207.452526 
L 118.578558 216.628202 
L 119.407253 212.040364 
L 120.235947 212.040364 
L 121.064641 221.21604 
L 121.893335 234.979554 
L 122.72203 239.567392 
L 123.550724 234.979554 
L 124.379418 221.21604 
L 125.208112 216.628202 
L 126.036807 225.803878 
L 126.865501 221.21604 
L 127.694195 212.040364 
L 128.522889 189.101174 
L 129.351584 179.925498 
L 130.180278 193.689012 
L 131.008972 212.040364 
L 131.837666 221.21604 
L 132.666361 221.21604 
L 134.323749 248.743068 
L 135.152443 248.743068 
L 135.981138 244.15523 
L 137.638526 216.628202 
L 138.46722 212.040364 
L 139.295915 202.864688 
L 140.124609 202.864688 
L 141.781997 221.21604 
L 143.439386 212.040364 
L 145.096774 212.040364 
L 145.925469 216.628202 
L 148.411551 216.628202 
L 150.06894 207.452526 
L 150.897634 207.452526 
L 151.726328 202.864688 
L 152.555023 207.452526 
L 153.383717 221.21604 
L 155.8698 248.743068 
L 156.698494 244.15523 
L 158.355882 216.628202 
L 159.184576 198.27685 
L 160.013271 193.689012 
L 161.670659 202.864688 
L 163.328048 184.513336 
L 164.156742 193.689012 
L 165.81413 239.567392 
L 166.642825 244.15523 
L 167.471519 225.803878 
L 168.300213 198.27685 
L 169.128907 198.27685 
L 169.957602 221.21604 
L 170.786296 230.391716 
L 171.61499 221.21604 
L 172.443684 225.803878 
L 173.272379 239.567392 
L 174.101073 239.567392 
L 174.929767 216.628202 
L 175.758461 202.864688 
L 176.587156 212.040364 
L 177.41585 216.628202 
L 179.073238 234.979554 
L 179.901933 234.979554 
L 180.730627 225.803878 
L 181.559321 221.21604 
L 183.21671 221.21604 
L 184.045404 225.803878 
L 184.874098 234.979554 
L 185.702792 253.330906 
L 186.531487 257.918744 
L 187.360181 230.391716 
L 188.188875 198.27685 
L 189.017569 202.864688 
L 189.846264 225.803878 
L 190.674958 234.979554 
L 191.503652 225.803878 
L 192.332346 212.040364 
L 193.161041 212.040364 
L 193.989735 216.628202 
L 194.818429 212.040364 
L 195.647123 212.040364 
L 198.133206 239.567392 
L 198.9619 230.391716 
L 199.790595 212.040364 
L 200.619289 212.040364 
L 201.447983 216.628202 
L 203.105372 216.628202 
L 203.934066 225.803878 
L 204.76276 230.391716 
L 205.591454 225.803878 
L 206.420148 225.803878 
L 207.248843 221.21604 
L 208.077537 212.040364 
L 208.906231 212.040364 
L 210.56362 230.391716 
L 211.392314 234.979554 
L 212.221008 230.391716 
L 213.049702 221.21604 
L 213.878397 216.628202 
L 214.707091 202.864688 
L 215.535785 198.27685 
L 216.364479 207.452526 
L 218.021868 244.15523 
L 218.850562 239.567392 
L 220.507951 202.864688 
L 222.165339 202.864688 
L 222.994033 198.27685 
L 223.822728 198.27685 
L 224.651422 202.864688 
L 225.480116 212.040364 
L 226.30881 212.040364 
L 227.137505 202.864688 
L 227.966199 202.864688 
L 229.623587 212.040364 
L 230.452282 225.803878 
L 231.280976 225.803878 
L 232.10967 221.21604 
L 232.938364 230.391716 
L 233.767059 234.979554 
L 234.595753 234.979554 
L 235.424447 216.628202 
L 236.253141 193.689012 
L 237.91053 202.864688 
L 238.739224 202.864688 
L 239.567918 221.21604 
L 240.396613 234.979554 
L 241.225307 230.391716 
L 242.054001 216.628202 
L 242.882695 207.452526 
L 243.71139 212.040364 
L 245.368778 212.040364 
L 247.026167 221.21604 
L 247.854861 221.21604 
L 248.683555 216.628202 
L 249.512249 207.452526 
L 250.340944 202.864688 
L 251.169638 207.452526 
L 252.827026 225.803878 
L 253.65572 230.391716 
L 254.484415 225.803878 
L 255.313109 216.628202 
L 256.141803 212.040364 
L 256.970497 212.040364 
L 257.799192 216.628202 
L 258.627886 216.628202 
L 260.285274 207.452526 
L 261.942663 253.330906 
L 262.771357 257.918744 
L 263.600051 244.15523 
L 264.428746 225.803878 
L 266.086134 216.628202 
L 267.743523 216.628202 
L 271.0583 198.27685 
L 272.715688 216.628202 
L 276.030465 216.628202 
L 277.687854 198.27685 
L 278.516548 198.27685 
L 279.345242 212.040364 
L 280.173936 221.21604 
L 281.002631 212.040364 
L 281.831325 221.21604 
L 282.660019 244.15523 
L 283.488713 253.330906 
L 284.317408 234.979554 
L 285.146102 207.452526 
L 285.974796 193.689012 
L 286.80349 189.101174 
L 287.632185 193.689012 
L 290.118267 221.21604 
L 292.60435 221.21604 
L 294.261739 230.391716 
L 295.919127 212.040364 
L 296.747821 207.452526 
L 298.40521 207.452526 
L 300.062598 216.628202 
L 300.891292 216.628202 
L 302.548681 207.452526 
L 303.377375 207.452526 
L 304.206069 212.040364 
L 305.034764 221.21604 
L 305.863458 221.21604 
L 306.692152 216.628202 
L 307.520846 216.628202 
L 308.349541 221.21604 
L 310.006929 221.21604 
L 310.835623 216.628202 
L 311.664318 202.864688 
L 312.493012 198.27685 
L 313.321706 202.864688 
L 314.1504 212.040364 
L 314.979095 225.803878 
L 315.807789 225.803878 
L 316.636483 216.628202 
L 317.465177 212.040364 
L 319.122566 221.21604 
L 320.779954 212.040364 
L 322.437343 212.040364 
L 323.266037 207.452526 
L 324.094731 212.040364 
L 324.923426 225.803878 
L 325.75212 244.15523 
L 326.580814 244.15523 
L 328.238203 225.803878 
L 329.066897 212.040364 
L 330.724285 212.040364 
L 331.55298 207.452526 
L 333.210368 244.15523 
L 334.039062 230.391716 
L 334.867757 207.452526 
L 335.696451 198.27685 
L 336.525145 198.27685 
L 338.182534 207.452526 
L 339.011228 216.628202 
L 339.839922 216.628202 
L 340.668616 207.452526 
L 341.497311 202.864688 
L 342.326005 207.452526 
L 343.154699 216.628202 
L 344.812088 207.452526 
L 345.640782 207.452526 
L 346.469476 216.628202 
L 347.29817 230.391716 
L 348.955559 221.21604 
L 351.441641 221.21604 
L 352.270336 216.628202 
L 353.09903 221.21604 
L 355.585113 221.21604 
L 357.242501 212.040364 
L 358.071195 212.040364 
L 359.728584 221.21604 
L 360.557278 221.21604 
L 361.385972 212.040364 
L 363.043361 202.864688 
L 363.872055 202.864688 
L 364.700749 212.040364 
L 365.529444 216.628202 
L 367.186832 216.628202 
L 369.672915 202.864688 
L 370.501609 216.628202 
L 371.330303 239.567392 
L 372.158998 244.15523 
L 372.987692 230.391716 
L 373.816386 207.452526 
L 374.64508 198.27685 
L 375.473775 202.864688 
L 377.131163 230.391716 
L 377.959857 234.979554 
L 378.788552 221.21604 
L 379.617246 212.040364 
L 380.44594 212.040364 
L 382.103329 202.864688 
L 382.932023 221.21604 
L 383.760717 248.743068 
L 384.589411 253.330906 
L 386.2468 207.452526 
L 387.904188 216.628202 
L 389.561577 207.452526 
L 390.390271 216.628202 
L 391.218965 230.391716 
L 392.04766 239.567392 
L 392.876354 230.391716 
L 393.705048 216.628202 
L 394.533742 212.040364 
L 395.362436 202.864688 
L 396.191131 198.27685 
L 397.019825 202.864688 
L 398.677213 221.21604 
L 400.334602 230.391716 
L 401.163296 225.803878 
L 401.99199 216.628202 
L 402.820685 212.040364 
L 403.649379 212.040364 
L 404.478073 221.21604 
L 406.135462 212.040364 
L 406.964156 212.040364 
L 408.621544 221.21604 
L 409.450239 216.628202 
L 411.107627 198.27685 
L 411.936321 193.689012 
L 412.765016 198.27685 
L 413.59371 212.040364 
L 414.422404 221.21604 
L 415.251098 221.21604 
L 416.079793 207.452526 
L 416.908487 198.27685 
L 417.737181 207.452526 
L 418.565875 221.21604 
L 420.223264 175.33766 
L 421.051958 189.101174 
L 421.880652 216.628202 
L 422.709347 234.979554 
L 424.366735 225.803878 
L 425.195429 225.803878 
L 426.852818 198.27685 
L 427.681512 202.864688 
L 428.510206 216.628202 
L 429.338901 225.803878 
L 430.167595 221.21604 
L 431.824983 221.21604 
L 432.653678 216.628202 
L 434.311066 216.628202 
L 435.968455 207.452526 
L 438.454537 207.452526 
L 439.283232 202.864688 
L 440.111926 202.864688 
L 441.769314 212.040364 
L 443.426703 239.567392 
L 444.255397 234.979554 
L 445.084091 225.803878 
L 446.74148 216.628202 
L 447.570174 216.628202 
L 448.398868 221.21604 
L 449.227562 221.21604 
L 450.884951 212.040364 
L 453.371034 212.040364 
L 455.857116 225.803878 
L 458.343199 212.040364 
L 459.171893 212.040364 
L 461.657976 198.27685 
L 462.48667 202.864688 
L 463.315365 216.628202 
L 464.972753 234.979554 
L 465.801447 230.391716 
L 466.630142 216.628202 
L 468.28753 207.452526 
L 469.116224 193.689012 
L 469.944919 193.689012 
L 470.773613 207.452526 
L 471.602307 216.628202 
L 473.259696 225.803878 
L 474.08839 225.803878 
L 476.574473 212.040364 
L 478.231861 221.21604 
L 479.060555 216.628202 
L 479.88925 216.628202 
L 480.717944 221.21604 
L 481.546638 207.452526 
L 482.375332 189.101174 
L 483.204027 184.513336 
L 484.032721 193.689012 
L 484.861415 212.040364 
L 485.690109 216.628202 
L 486.518804 216.628202 
L 488.176192 225.803878 
L 489.004886 225.803878 
L 489.83358 221.21604 
L 490.662275 212.040364 
L 492.319663 212.040364 
L 493.148357 198.27685 
L 493.977052 193.689012 
L 494.805746 193.689012 
L 495.63444 216.628202 
L 496.463134 244.15523 
L 497.291829 244.15523 
L 498.120523 230.391716 
L 498.949217 221.21604 
L 499.777911 225.803878 
L 501.4353 207.452526 
L 502.263994 207.452526 
L 503.092688 212.040364 
L 503.921383 221.21604 
L 505.578771 221.21604 
L 506.407465 230.391716 
L 508.064854 230.391716 
L 508.893548 221.21604 
L 509.722242 207.452526 
L 510.550937 207.452526 
L 511.379631 212.040364 
L 513.037019 212.040364 
L 513.865714 216.628202 
L 515.523102 207.452526 
L 516.351796 207.452526 
L 518.009185 216.628202 
L 518.837879 216.628202 
L 520.495268 225.803878 
L 522.152656 216.628202 
L 522.98135 216.628202 
L 523.810045 221.21604 
L 525.467433 221.21604 
L 526.296127 230.391716 
L 527.124822 230.391716 
L 527.953516 221.21604 
L 528.78221 216.628202 
L 529.610904 221.21604 
L 531.268293 221.21604 
L 532.925681 184.513336 
L 533.754376 184.513336 
L 534.58307 198.27685 
L 535.411764 221.21604 
L 536.240458 225.803878 
L 537.069152 221.21604 
L 537.897847 221.21604 
L 538.726541 230.391716 
L 539.555235 234.979554 
L 540.383929 230.391716 
L 542.041318 202.864688 
L 542.870012 198.27685 
L 543.698706 202.864688 
L 547.013483 202.864688 
L 547.842178 212.040364 
L 548.670872 225.803878 
L 549.499566 234.979554 
L 550.32826 239.567392 
L 551.156955 230.391716 
L 551.985649 212.040364 
L 555.300426 212.040364 
L 556.12912 207.452526 
L 556.957814 212.040364 
L 557.786509 225.803878 
L 558.615203 234.979554 
L 560.272591 234.979554 
L 561.101286 230.391716 
L 561.92998 216.628202 
L 563.587368 198.27685 
L 564.416063 184.513336 
L 565.244757 179.925498 
L 566.902145 216.628202 
L 567.73084 221.21604 
L 568.559534 221.21604 
L 570.216922 212.040364 
L 571.045617 202.864688 
L 571.874311 198.27685 
L 572.703005 212.040364 
L 573.531699 234.979554 
L 574.360394 239.567392 
L 576.017782 212.040364 
L 577.675171 202.864688 
L 579.332559 212.040364 
L 580.161253 212.040364 
L 580.989948 225.803878 
L 581.818642 234.979554 
L 582.647336 234.979554 
L 583.47603 225.803878 
L 584.304724 221.21604 
L 585.133419 225.803878 
L 585.962113 225.803878 
L 587.619501 216.628202 
L 588.448196 216.628202 
L 589.27689 212.040364 
L 590.105584 202.864688 
L 590.934278 198.27685 
L 591.762973 189.101174 
L 592.591667 189.101174 
L 594.249055 207.452526 
L 595.07775 221.21604 
L 595.906444 225.803878 
L 596.735138 212.040364 
L 597.563832 202.864688 
L 598.392527 202.864688 
L 599.221221 207.452526 
L 600.049915 198.27685 
L 600.878609 184.513336 
L 601.707304 198.27685 
L 602.535998 225.803878 
L 603.364692 244.15523 
L 605.022081 198.27685 
L 605.850775 198.27685 
L 606.679469 207.452526 
L 607.508163 221.21604 
L 608.336858 221.21604 
L 609.994246 202.864688 
L 610.82294 202.864688 
L 611.651635 207.452526 
L 612.480329 207.452526 
L 613.309023 212.040364 
L 614.137717 202.864688 
L 614.966412 189.101174 
L 615.795106 184.513336 
L 616.6238 193.689012 
L 617.452494 212.040364 
L 618.281189 216.628202 
L 619.109883 216.628202 
L 619.938577 212.040364 
L 620.767271 202.864688 
L 621.595966 189.101174 
L 622.42466 179.925498 
L 623.253354 189.101174 
L 624.082048 189.101174 
L 624.910743 184.513336 
L 625.739437 189.101174 
L 626.568131 198.27685 
L 627.396825 193.689012 
L 628.22552 179.925498 
L 629.054214 175.33766 
L 629.882908 175.33766 
L 630.711602 193.689012 
L 631.540296 198.27685 
L 632.368991 184.513336 
L 633.197685 179.925498 
L 634.026379 189.101174 
M 672.146315 202.864688 
L 672.975009 184.513336 
L 673.803703 184.513336 
L 674.632397 198.27685 
L 676.289786 216.628202 
L 677.11848 230.391716 
L 677.947174 221.21604 
L 679.604563 147.810633 
L 680.433257 120.283605 
L 681.261951 106.520091 
L 682.090645 115.695767 
L 682.91934 129.459281 
L 683.748034 134.047119 
L 684.576728 134.047119 
L 685.405422 138.634957 
L 686.234117 147.810633 
L 687.062811 161.574147 
L 687.891505 170.749823 
L 688.720199 170.749823 
L 690.377588 143.222795 
L 691.206282 147.810633 
L 692.034976 156.986309 
L 692.863671 147.810633 
L 693.692365 147.810633 
L 695.349753 184.513336 
L 696.178448 156.986309 
L 697.007142 106.520091 
L 697.835836 101.932253 
L 699.493225 202.864688 
L 700.321919 207.452526 
L 701.150613 193.689012 
L 701.979307 175.33766 
L 702.808002 170.749823 
L 703.636696 170.749823 
L 704.46539 175.33766 
L 705.294084 175.33766 
L 706.122779 161.574147 
L 706.951473 143.222795 
L 707.780167 129.459281 
L 708.608861 124.871443 
L 709.437556 134.047119 
L 710.26625 161.574147 
L 711.094944 170.749823 
L 712.752333 134.047119 
L 713.581027 120.283605 
L 714.409721 129.459281 
L 715.238415 147.810633 
L 716.06711 175.33766 
L 716.895804 156.986309 
L 717.724498 120.283605 
L 719.381887 147.810633 
L 720.210581 152.398471 
L 721.039275 143.222795 
L 721.867969 143.222795 
L 724.354052 170.749823 
L 726.01144 161.574147 
L 726.840135 179.925498 
L 727.668829 193.689012 
L 728.497523 193.689012 
L 729.326217 198.27685 
L 730.154912 198.27685 
L 730.983606 189.101174 
L 731.8123 170.749823 
L 732.640994 175.33766 
L 733.469689 193.689012 
L 735.127077 166.161985 
L 735.955771 170.749823 
L 736.784466 179.925498 
L 737.61316 179.925498 
L 738.441854 166.161985 
L 740.099243 147.810633 
L 741.756631 166.161985 
L 742.585325 166.161985 
L 743.41402 152.398471 
L 744.242714 152.398471 
L 745.900102 143.222795 
L 747.557491 198.27685 
L 748.386185 212.040364 
L 749.214879 207.452526 
L 750.043574 198.27685 
L 750.872268 166.161985 
L 751.700962 147.810633 
L 752.529656 152.398471 
L 753.358351 161.574147 
L 754.187045 166.161985 
L 755.015739 152.398471 
L 755.844433 152.398471 
L 757.501822 115.695767 
L 758.330516 124.871443 
L 759.15921 147.810633 
L 759.987905 156.986309 
L 760.816599 147.810633 
L 761.645293 147.810633 
L 763.302682 129.459281 
L 764.131376 143.222795 
L 764.96007 170.749823 
L 765.788764 161.574147 
L 766.617459 143.222795 
L 767.446153 143.222795 
L 768.274847 152.398471 
L 769.932236 124.871443 
L 770.76093 156.986309 
L 771.589624 184.513336 
L 772.418318 184.513336 
L 773.247012 179.925498 
L 774.075707 193.689012 
L 774.904401 184.513336 
L 775.733095 161.574147 
L 776.561789 152.398471 
L 778.219178 161.574147 
L 779.047872 147.810633 
L 779.876566 152.398471 
L 780.705261 161.574147 
L 781.533955 175.33766 
L 783.191343 166.161985 
L 784.020038 156.986309 
L 784.848732 143.222795 
L 785.677426 147.810633 
L 786.50612 147.810633 
L 787.334815 166.161985 
L 788.992203 184.513336 
L 789.820897 184.513336 
L 790.649592 166.161985 
L 791.478286 152.398471 
L 792.30698 166.161985 
L 793.135674 184.513336 
L 793.964369 184.513336 
L 794.793063 189.101174 
L 795.621757 189.101174 
L 797.279146 124.871443 
L 798.10784 129.459281 
L 798.936534 147.810633 
L 799.765228 156.986309 
L 800.593923 152.398471 
L 802.251311 198.27685 
L 803.080005 198.27685 
L 803.9087 189.101174 
L 805.566088 161.574147 
L 806.394782 166.161985 
L 807.223477 175.33766 
L 808.052171 175.33766 
L 808.880865 179.925498 
L 809.709559 175.33766 
L 810.538254 179.925498 
L 811.366948 179.925498 
L 812.195642 166.161985 
L 813.024336 156.986309 
L 813.853031 156.986309 
L 814.681725 170.749823 
L 815.510419 175.33766 
L 816.339113 156.986309 
L 817.167808 152.398471 
L 817.996502 175.33766 
L 818.825196 202.864688 
L 819.65389 202.864688 
L 820.482584 189.101174 
L 821.311279 166.161985 
L 822.139973 147.810633 
L 822.968667 143.222795 
L 824.626056 152.398471 
L 825.45475 147.810633 
L 826.283444 152.398471 
L 827.112138 161.574147 
L 828.769527 134.047119 
L 829.598221 138.634957 
L 830.426915 156.986309 
L 831.25561 166.161985 
L 832.084304 166.161985 
L 832.912998 175.33766 
L 833.741692 179.925498 
L 834.570387 170.749823 
L 835.399081 156.986309 
L 836.227775 156.986309 
L 837.885164 193.689012 
L 839.542552 212.040364 
L 840.371246 202.864688 
L 842.028635 166.161985 
L 842.857329 152.398471 
L 843.686023 143.222795 
L 844.514718 152.398471 
L 845.343412 156.986309 
L 847.0008 175.33766 
L 847.829495 175.33766 
L 848.658189 170.749823 
L 849.486883 170.749823 
L 850.315577 166.161985 
L 851.144272 166.161985 
L 851.972966 170.749823 
L 853.630354 170.749823 
L 854.459049 156.986309 
L 855.287743 161.574147 
L 856.116437 179.925498 
L 856.945131 193.689012 
L 859.431214 179.925498 
L 860.259908 166.161985 
L 861.088603 147.810633 
L 861.917297 138.634957 
L 862.745991 152.398471 
L 863.574685 175.33766 
L 864.40338 184.513336 
L 866.060768 166.161985 
L 866.889462 170.749823 
L 867.718156 193.689012 
L 868.546851 189.101174 
L 869.375545 179.925498 
L 871.032933 170.749823 
L 871.861628 179.925498 
L 872.690322 161.574147 
L 873.519016 147.810633 
L 874.34771 156.986309 
L 875.176405 193.689012 
L 876.005099 207.452526 
L 877.662487 129.459281 
L 878.491182 134.047119 
L 879.319876 175.33766 
L 880.14857 198.27685 
L 880.977264 179.925498 
L 881.805959 156.986309 
L 882.634653 156.986309 
L 884.292041 184.513336 
L 885.120736 179.925498 
L 885.94943 161.574147 
L 886.778124 156.986309 
L 887.606818 170.749823 
L 888.435513 193.689012 
L 889.264207 202.864688 
L 890.921595 202.864688 
L 891.75029 175.33766 
L 892.578984 152.398471 
L 893.407678 147.810633 
L 894.236372 170.749823 
L 895.065067 198.27685 
L 896.722455 170.749823 
L 897.551149 161.574147 
L 898.379844 147.810633 
L 899.208538 120.283605 
L 900.037232 106.520091 
L 900.865926 115.695767 
L 902.523315 170.749823 
L 903.352009 179.925498 
L 904.180703 179.925498 
L 905.009398 161.574147 
L 905.838092 170.749823 
L 906.666786 184.513336 
L 907.49548 161.574147 
L 908.324175 147.810633 
L 909.152869 175.33766 
L 909.981563 216.628202 
L 910.810257 234.979554 
L 911.638952 216.628202 
L 912.467646 179.925498 
L 913.29634 156.986309 
L 914.125034 156.986309 
L 914.953728 179.925498 
L 915.782423 198.27685 
L 916.611117 198.27685 
L 918.268505 161.574147 
L 919.0972 161.574147 
L 919.925894 170.749823 
L 920.754588 184.513336 
L 922.411977 175.33766 
L 924.069365 184.513336 
L 924.898059 179.925498 
L 925.726754 161.574147 
L 926.555448 156.986309 
L 927.384142 166.161985 
L 928.212836 166.161985 
L 929.041531 161.574147 
L 929.870225 166.161985 
L 930.698919 175.33766 
L 931.527613 189.101174 
L 932.356308 175.33766 
L 933.185002 156.986309 
L 934.013696 156.986309 
L 934.84239 170.749823 
L 935.671085 175.33766 
L 936.499779 156.986309 
L 937.328473 166.161985 
L 938.157167 184.513336 
L 938.985862 193.689012 
L 940.64325 156.986309 
L 941.471944 156.986309 
L 943.129333 184.513336 
L 943.958027 179.925498 
L 944.786721 143.222795 
L 945.615416 115.695767 
L 946.44411 124.871443 
L 948.101498 189.101174 
L 948.930193 202.864688 
L 949.758887 207.452526 
L 950.587581 179.925498 
L 951.416275 156.986309 
L 952.24497 152.398471 
L 953.073664 184.513336 
L 953.902358 212.040364 
L 955.559747 193.689012 
L 956.388441 166.161985 
L 957.217135 143.222795 
L 958.045829 143.222795 
L 959.703218 189.101174 
L 960.531912 184.513336 
L 961.360606 170.749823 
L 962.1893 166.161985 
L 963.017995 189.101174 
L 963.846689 179.925498 
L 964.675383 152.398471 
L 965.504077 143.222795 
L 966.332772 166.161985 
L 967.161466 175.33766 
L 967.99016 147.810633 
L 968.818854 138.634957 
L 969.647549 156.986309 
L 970.476243 193.689012 
L 971.304937 184.513336 
L 972.133631 152.398471 
L 972.962326 143.222795 
L 973.79102 166.161985 
L 974.619714 184.513336 
L 975.448408 175.33766 
L 976.277103 170.749823 
L 977.105797 184.513336 
L 977.934491 189.101174 
L 980.420574 161.574147 
L 981.249268 143.222795 
L 982.077962 134.047119 
L 983.735351 189.101174 
L 985.392739 161.574147 
L 986.221434 170.749823 
L 987.878822 207.452526 
L 988.707516 198.27685 
L 989.536211 161.574147 
L 990.364905 134.047119 
L 991.193599 152.398471 
L 992.022293 184.513336 
L 992.850988 175.33766 
L 993.679682 147.810633 
L 994.508376 143.222795 
L 995.33707 161.574147 
L 996.165765 170.749823 
L 996.994459 166.161985 
L 997.823153 175.33766 
L 998.651847 198.27685 
L 999.480542 216.628202 
L 1001.13793 138.634957 
L 1001.966624 129.459281 
L 1002.795319 143.222795 
L 1003.624013 161.574147 
L 1005.281401 179.925498 
L 1006.110096 184.513336 
L 1006.93879 179.925498 
L 1007.767484 179.925498 
L 1008.596178 175.33766 
L 1009.424872 161.574147 
L 1010.253567 161.574147 
L 1011.910955 152.398471 
L 1012.739649 166.161985 
M 1045.887419 175.33766 
L 1046.716114 179.925498 
L 1047.544808 152.398471 
L 1048.373502 138.634957 
L 1049.202196 161.574147 
L 1050.030891 202.864688 
L 1050.859585 207.452526 
L 1052.516973 170.749823 
L 1053.345668 170.749823 
L 1054.174362 184.513336 
L 1055.003056 179.925498 
L 1055.83175 156.986309 
L 1056.660444 138.634957 
L 1056.660444 138.634957 
" clip-path="url(#pf98a968744)" style="fill: none; stroke: #000000; stroke-opacity: 0.2; stroke-width: 1.5; stroke-linecap: square"/>
   </g>
   <g id="LineCollection_1">
    <path d="M 290.946962 283.643804 
L 290.946962 49.089197 
" clip-path="url(#pf98a968744)" style="fill: none; stroke-dasharray: 3.7,1.6; stroke-dashoffset: 0; stroke: #ff8c00; stroke-opacity: 0.7"/>
   </g>
   <g id="LineCollection_2">
    <path d="M 539.555235 283.643804 
L 539.555235 49.089197 
" clip-path="url(#pf98a968744)" style="fill: none; stroke-dasharray: 3.7,1.6; stroke-dashoffset: 0; stroke: #ff8c00; stroke-opacity: 0.7"/>
   </g>
   <g id="LineCollection_3">
    <path d="M 580.989948 283.643804 
L 580.989948 49.089197 
" clip-path="url(#pf98a968744)" style="fill: none; stroke-dasharray: 3.7,1.6; stroke-dashoffset: 0; stroke: #006400; stroke-opacity: 0.7"/>
   </g>
   <g id="LineCollection_4">
    <path d="M 622.42466 283.643804 
L 622.42466 49.089197 
" clip-path="url(#pf98a968744)" style="fill: none; stroke-dasharray: 3.7,1.6; stroke-dashoffset: 0; stroke: #006400; stroke-opacity: 0.7"/>
   </g>
   <g id="LineCollection_5">
    <path d="M 290.946962 283.643804 
L 290.946962 49.089197 
" clip-path="url(#pf98a968744)" style="fill: none; stroke: #ff8c00"/>
   </g>
   <g id="line2d_15">
    <path d="M 290.946962 216.276824 
L 621.595966 214.969798 
L 621.595966 214.969798 
" clip-path="url(#pf98a968744)" style="fill: none; stroke-dasharray: 5.55,2.4; stroke-dashoffset: 0; stroke: #ff8c00; stroke-width: 1.5"/>
   </g>
   <g id="line2d_16">
    <path d="M 290.946962 216.276824 
L 538.726541 215.297374 
L 538.726541 215.297374 
" clip-path="url(#pf98a968744)" style="fill: none; stroke: #ff8c00; stroke-width: 1.5; stroke-linecap: square"/>
   </g>
   <g id="line2d_17">
    <path d="M 539.555235 238.054562 
L 540.383929 237.678282 
L 541.212624 237.302002 
L 542.041318 236.925723 
L 542.870012 236.549443 
L 543.698706 236.173163 
L 544.527401 235.796883 
L 545.356095 235.420603 
L 546.184789 235.044324 
L 547.013483 234.668044 
L 547.842178 234.291764 
L 548.670872 233.915484 
L 549.499566 233.539204 
L 550.32826 233.162924 
L 551.156955 232.786645 
L 551.985649 232.410365 
L 552.814343 232.034085 
L 553.643037 231.657805 
L 554.471732 231.281525 
L 555.300426 230.905245 
L 556.12912 230.528966 
L 556.957814 230.152686 
L 557.786509 229.776406 
L 558.615203 229.400126 
L 559.443897 229.023846 
L 560.272591 228.647567 
L 561.101286 228.271287 
L 561.92998 227.895007 
L 562.758674 227.518727 
L 563.587368 227.142447 
L 564.416063 226.766167 
L 565.244757 226.389888 
L 566.073451 226.013608 
L 566.902145 225.637328 
L 567.73084 225.261048 
L 568.559534 224.884768 
L 569.388228 224.508489 
L 570.216922 224.132209 
L 571.045617 223.755929 
L 571.874311 223.379649 
L 572.703005 223.003369 
L 573.531699 222.627089 
L 574.360394 222.25081 
L 575.189088 221.87453 
L 576.017782 221.49825 
L 576.846476 221.12197 
L 577.675171 220.74569 
L 578.503865 220.369411 
L 579.332559 219.993131 
L 580.161253 219.616851 
L 580.989948 219.240571 
L 581.818642 218.864291 
L 582.647336 218.488011 
L 583.47603 218.111732 
L 584.304724 217.735452 
L 585.133419 217.359172 
L 585.962113 216.982892 
L 586.790807 216.606612 
L 587.619501 216.230333 
L 588.448196 215.854053 
L 589.27689 215.477773 
L 590.105584 215.101493 
L 590.934278 214.725213 
L 591.762973 214.348933 
L 592.591667 213.972654 
L 593.420361 213.596374 
L 594.249055 213.220094 
L 595.07775 212.843814 
L 595.906444 212.467534 
L 596.735138 212.091255 
L 597.563832 211.714975 
L 598.392527 211.338695 
L 599.221221 210.962415 
L 600.049915 210.586135 
L 600.878609 210.209855 
L 601.707304 209.833576 
L 602.535998 209.457296 
L 603.364692 209.081016 
L 604.193386 208.704736 
L 605.022081 208.328456 
L 605.850775 207.952176 
L 606.679469 207.575897 
L 607.508163 207.199617 
L 608.336858 206.823337 
L 609.165552 206.447057 
L 609.994246 206.070777 
L 610.82294 205.694498 
L 611.651635 205.318218 
L 612.480329 204.941938 
L 613.309023 204.565658 
L 614.137717 204.189378 
L 614.966412 203.813098 
L 615.795106 203.436819 
L 616.6238 203.060539 
L 617.452494 202.684259 
L 618.281189 202.307979 
L 619.109883 201.931699 
L 619.938577 201.55542 
L 620.767271 201.17914 
L 621.595966 200.80286 
" clip-path="url(#pf98a968744)" style="fill: none; stroke-dasharray: 5.55,2.4; stroke-dashoffset: 0; stroke: #006400; stroke-width: 1.5"/>
   </g>
   <g id="line2d_18">
    <path d="M 580.989948 219.240571 
L 581.818642 218.864291 
L 582.647336 218.488011 
L 583.47603 218.111732 
L 584.304724 217.735452 
L 585.133419 217.359172 
L 585.962113 216.982892 
L 586.790807 216.606612 
L 587.619501 216.230333 
L 588.448196 215.854053 
L 589.27689 215.477773 
L 590.105584 215.101493 
L 590.934278 214.725213 
L 591.762973 214.348933 
L 592.591667 213.972654 
L 593.420361 213.596374 
L 594.249055 213.220094 
L 595.07775 212.843814 
L 595.906444 212.467534 
L 596.735138 212.091255 
L 597.563832 211.714975 
L 598.392527 211.338695 
L 599.221221 210.962415 
L 600.049915 210.586135 
L 600.878609 210.209855 
L 601.707304 209.833576 
L 602.535998 209.457296 
L 603.364692 209.081016 
L 604.193386 208.704736 
L 605.022081 208.328456 
L 605.850775 207.952176 
L 606.679469 207.575897 
L 607.508163 207.199617 
L 608.336858 206.823337 
L 609.165552 206.447057 
L 609.994246 206.070777 
L 610.82294 205.694498 
L 611.651635 205.318218 
L 612.480329 204.941938 
L 613.309023 204.565658 
L 614.137717 204.189378 
L 614.966412 203.813098 
L 615.795106 203.436819 
L 616.6238 203.060539 
L 617.452494 202.684259 
L 618.281189 202.307979 
L 619.109883 201.931699 
L 619.938577 201.55542 
L 620.767271 201.17914 
L 621.595966 200.80286 
" clip-path="url(#pf98a968744)" style="fill: none; stroke: #006400; stroke-width: 1.5; stroke-linecap: square"/>
   </g>
   <g id="LineCollection_6">
    <path d="M 590.105584 283.643804 
L 590.105584 49.089197 
" clip-path="url(#pf98a968744)" style="fill: none; stroke: #006400"/>
   </g>
   <g id="line2d_19">
    <path d="M 63.056044 79.246218 
L 227.966199 79.246218 
L 227.966199 79.246218 
" clip-path="url(#pf98a968744)" style="fill: none; stroke: #000000; stroke-opacity: 0.8; stroke-linecap: square"/>
   </g>
   <g id="line2d_20">
    <path d="M 477.403167 79.246218 
L 1056.660444 79.246218 
L 1056.660444 79.246218 
" clip-path="url(#pf98a968744)" style="fill: none; stroke: #000000; stroke-opacity: 0.8; stroke-linecap: square"/>
   </g>
   <g id="LineCollection_7">
    <path d="M 477.403167 283.643804 
L 477.403167 49.089197 
" clip-path="url(#pf98a968744)" style="fill: none; stroke: #000000"/>
   </g>
   <g id="LineCollection_8">
    <path d="M 228.794893 283.643804 
L 228.794893 49.089197 
" clip-path="url(#pf98a968744)" style="fill: none; stroke-dasharray: 3.7,1.6; stroke-dashoffset: 0; stroke: #000000; stroke-opacity: 0.5"/>
   </g>
   <g id="patch_8">
    <path d="M 53.12 283.643804 
L 53.12 89.298558 
" style="fill: none; stroke: #000000; stroke-width: 0.8; stroke-linejoin: miter; stroke-linecap: square"/>
   </g>
   <g id="patch_9">
    <path d="M 63.056044 290.345365 
L 1056.660444 290.345365 
" style="fill: none; stroke: #000000; stroke-width: 0.8; stroke-linejoin: miter; stroke-linecap: square"/>
   </g>
   <g id="text_16">
    <!-- size of the window 1 -->
    <g transform="translate(343.97706 105.651062) scale(0.123077 -0.123077)">
     <defs>
      <path id="DejaVuSans-Bold-73" d="M 3272 3391 
L 3272 2541 
Q 2913 2691 2578 2766 
Q 2244 2841 1947 2841 
Q 1628 2841 1473 2761 
Q 1319 2681 1319 2516 
Q 1319 2381 1436 2309 
Q 1553 2238 1856 2203 
L 2053 2175 
Q 2913 2066 3209 1816 
Q 3506 1566 3506 1031 
Q 3506 472 3093 190 
Q 2681 -91 1863 -91 
Q 1516 -91 1145 -36 
Q 775 19 384 128 
L 384 978 
Q 719 816 1070 734 
Q 1422 653 1784 653 
Q 2113 653 2278 743 
Q 2444 834 2444 1013 
Q 2444 1163 2330 1236 
Q 2216 1309 1875 1350 
L 1678 1375 
Q 931 1469 631 1722 
Q 331 1975 331 2491 
Q 331 3047 712 3315 
Q 1094 3584 1881 3584 
Q 2191 3584 2531 3537 
Q 2872 3491 3272 3391 
z
" transform="scale(0.015625)"/>
      <path id="DejaVuSans-Bold-69" d="M 538 3500 
L 1656 3500 
L 1656 0 
L 538 0 
L 538 3500 
z
M 538 4863 
L 1656 4863 
L 1656 3950 
L 538 3950 
L 538 4863 
z
" transform="scale(0.015625)"/>
      <path id="DejaVuSans-Bold-7a" d="M 366 3500 
L 3419 3500 
L 3419 2719 
L 1575 800 
L 3419 800 
L 3419 0 
L 288 0 
L 288 781 
L 2131 2700 
L 366 2700 
L 366 3500 
z
" transform="scale(0.015625)"/>
      <path id="DejaVuSans-Bold-65" d="M 4031 1759 
L 4031 1441 
L 1416 1441 
Q 1456 1047 1700 850 
Q 1944 653 2381 653 
Q 2734 653 3104 758 
Q 3475 863 3866 1075 
L 3866 213 
Q 3469 63 3072 -14 
Q 2675 -91 2278 -91 
Q 1328 -91 801 392 
Q 275 875 275 1747 
Q 275 2603 792 3093 
Q 1309 3584 2216 3584 
Q 3041 3584 3536 3087 
Q 4031 2591 4031 1759 
z
M 2881 2131 
Q 2881 2450 2695 2645 
Q 2509 2841 2209 2841 
Q 1884 2841 1681 2658 
Q 1478 2475 1428 2131 
L 2881 2131 
z
" transform="scale(0.015625)"/>
      <path id="DejaVuSans-Bold-20" transform="scale(0.015625)"/>
      <path id="DejaVuSans-Bold-6f" d="M 2203 2784 
Q 1831 2784 1636 2517 
Q 1441 2250 1441 1747 
Q 1441 1244 1636 976 
Q 1831 709 2203 709 
Q 2569 709 2762 976 
Q 2956 1244 2956 1747 
Q 2956 2250 2762 2517 
Q 2569 2784 2203 2784 
z
M 2203 3584 
Q 3106 3584 3614 3096 
Q 4122 2609 4122 1747 
Q 4122 884 3614 396 
Q 3106 -91 2203 -91 
Q 1297 -91 786 396 
Q 275 884 275 1747 
Q 275 2609 786 3096 
Q 1297 3584 2203 3584 
z
" transform="scale(0.015625)"/>
      <path id="DejaVuSans-Bold-66" d="M 2841 4863 
L 2841 4128 
L 2222 4128 
Q 1984 4128 1890 4042 
Q 1797 3956 1797 3744 
L 1797 3500 
L 2753 3500 
L 2753 2700 
L 1797 2700 
L 1797 0 
L 678 0 
L 678 2700 
L 122 2700 
L 122 3500 
L 678 3500 
L 678 3744 
Q 678 4316 997 4589 
Q 1316 4863 1984 4863 
L 2841 4863 
z
" transform="scale(0.015625)"/>
      <path id="DejaVuSans-Bold-74" d="M 1759 4494 
L 1759 3500 
L 2913 3500 
L 2913 2700 
L 1759 2700 
L 1759 1216 
Q 1759 972 1856 886 
Q 1953 800 2241 800 
L 2816 800 
L 2816 0 
L 1856 0 
Q 1194 0 917 276 
Q 641 553 641 1216 
L 641 2700 
L 84 2700 
L 84 3500 
L 641 3500 
L 641 4494 
L 1759 4494 
z
" transform="scale(0.015625)"/>
      <path id="DejaVuSans-Bold-68" d="M 4056 2131 
L 4056 0 
L 2931 0 
L 2931 347 
L 2931 1625 
Q 2931 2084 2911 2256 
Q 2891 2428 2841 2509 
Q 2775 2619 2662 2680 
Q 2550 2741 2406 2741 
Q 2056 2741 1856 2470 
Q 1656 2200 1656 1722 
L 1656 0 
L 538 0 
L 538 4863 
L 1656 4863 
L 1656 2988 
Q 1909 3294 2193 3439 
Q 2478 3584 2822 3584 
Q 3428 3584 3742 3212 
Q 4056 2841 4056 2131 
z
" transform="scale(0.015625)"/>
      <path id="DejaVuSans-Bold-77" d="M 225 3500 
L 1313 3500 
L 1900 1088 
L 2491 3500 
L 3425 3500 
L 4013 1113 
L 4603 3500 
L 5691 3500 
L 4769 0 
L 3547 0 
L 2956 2406 
L 2369 0 
L 1147 0 
L 225 3500 
z
" transform="scale(0.015625)"/>
      <path id="DejaVuSans-Bold-6e" d="M 4056 2131 
L 4056 0 
L 2931 0 
L 2931 347 
L 2931 1631 
Q 2931 2084 2911 2256 
Q 2891 2428 2841 2509 
Q 2775 2619 2662 2680 
Q 2550 2741 2406 2741 
Q 2056 2741 1856 2470 
Q 1656 2200 1656 1722 
L 1656 0 
L 538 0 
L 538 3500 
L 1656 3500 
L 1656 2988 
Q 1909 3294 2193 3439 
Q 2478 3584 2822 3584 
Q 3428 3584 3742 3212 
Q 4056 2841 4056 2131 
z
" transform="scale(0.015625)"/>
      <path id="DejaVuSans-Bold-64" d="M 2919 2988 
L 2919 4863 
L 4044 4863 
L 4044 0 
L 2919 0 
L 2919 506 
Q 2688 197 2409 53 
Q 2131 -91 1766 -91 
Q 1119 -91 703 423 
Q 288 938 288 1747 
Q 288 2556 703 3070 
Q 1119 3584 1766 3584 
Q 2128 3584 2408 3439 
Q 2688 3294 2919 2988 
z
M 2181 722 
Q 2541 722 2730 984 
Q 2919 1247 2919 1747 
Q 2919 2247 2730 2509 
Q 2541 2772 2181 2772 
Q 1825 2772 1636 2509 
Q 1447 2247 1447 1747 
Q 1447 1247 1636 984 
Q 1825 722 2181 722 
z
" transform="scale(0.015625)"/>
      <path id="DejaVuSans-Bold-31" d="M 750 831 
L 1813 831 
L 1813 3847 
L 722 3622 
L 722 4441 
L 1806 4666 
L 2950 4666 
L 2950 831 
L 4013 831 
L 4013 0 
L 750 0 
L 750 831 
z
" transform="scale(0.015625)"/>
     </defs>
     <use xlink:href="#DejaVuSans-Bold-73"/>
     <use xlink:href="#DejaVuSans-Bold-69" x="59.521484"/>
     <use xlink:href="#DejaVuSans-Bold-7a" x="93.798828"/>
     <use xlink:href="#DejaVuSans-Bold-65" x="152.001953"/>
     <use xlink:href="#DejaVuSans-Bold-20" x="219.824219"/>
     <use xlink:href="#DejaVuSans-Bold-6f" x="254.638672"/>
     <use xlink:href="#DejaVuSans-Bold-66" x="323.339844"/>
     <use xlink:href="#DejaVuSans-Bold-20" x="366.845703"/>
     <use xlink:href="#DejaVuSans-Bold-74" x="401.660156"/>
     <use xlink:href="#DejaVuSans-Bold-68" x="449.462891"/>
     <use xlink:href="#DejaVuSans-Bold-65" x="520.654297"/>
     <use xlink:href="#DejaVuSans-Bold-20" x="588.476562"/>
     <use xlink:href="#DejaVuSans-Bold-77" x="623.291016"/>
     <use xlink:href="#DejaVuSans-Bold-69" x="715.673828"/>
     <use xlink:href="#DejaVuSans-Bold-6e" x="749.951172"/>
     <use xlink:href="#DejaVuSans-Bold-64" x="821.142578"/>
     <use xlink:href="#DejaVuSans-Bold-6f" x="892.724609"/>
     <use xlink:href="#DejaVuSans-Bold-77" x="961.425781"/>
     <use xlink:href="#DejaVuSans-Bold-20" x="1053.808594"/>
     <use xlink:href="#DejaVuSans-Bold-31" x="1088.623047"/>
    </g>
   </g>
   <g id="text_17">
    <!-- w1=300 -->
    <g transform="translate(395.986098 123.735645) scale(0.106667 -0.106667)">
     <defs>
      <path id="DejaVuSansMono-77" d="M 0 3500 
L 569 3500 
L 1178 672 
L 1678 2478 
L 2169 2478 
L 2675 672 
L 3284 3500 
L 3853 3500 
L 3034 0 
L 2484 0 
L 1925 1919 
L 1369 0 
L 819 0 
L 0 3500 
z
" transform="scale(0.015625)"/>
      <path id="DejaVuSansMono-31" d="M 844 531 
L 1825 531 
L 1825 4097 
L 769 3859 
L 769 4434 
L 1819 4666 
L 2450 4666 
L 2450 531 
L 3419 531 
L 3419 0 
L 844 0 
L 844 531 
z
" transform="scale(0.015625)"/>
      <path id="DejaVuSansMono-3d" d="M 275 1638 
L 3578 1638 
L 3578 1100 
L 275 1100 
L 275 1638 
z
M 275 2906 
L 3578 2906 
L 3578 2375 
L 275 2375 
L 275 2906 
z
" transform="scale(0.015625)"/>
      <path id="DejaVuSansMono-33" d="M 2425 2497 
Q 2884 2375 3128 2064 
Q 3372 1753 3372 1288 
Q 3372 644 2939 276 
Q 2506 -91 1741 -91 
Q 1419 -91 1084 -31 
Q 750 28 428 141 
L 428 769 
Q 747 603 1056 522 
Q 1366 441 1672 441 
Q 2191 441 2469 675 
Q 2747 909 2747 1350 
Q 2747 1756 2469 1995 
Q 2191 2234 1716 2234 
L 1234 2234 
L 1234 2753 
L 1716 2753 
Q 2150 2753 2394 2943 
Q 2638 3134 2638 3475 
Q 2638 3834 2411 4026 
Q 2184 4219 1766 4219 
Q 1488 4219 1191 4156 
Q 894 4094 569 3969 
L 569 4550 
Q 947 4650 1242 4700 
Q 1538 4750 1766 4750 
Q 2447 4750 2855 4408 
Q 3263 4066 3263 3500 
Q 3263 3116 3048 2859 
Q 2834 2603 2425 2497 
z
" transform="scale(0.015625)"/>
      <path id="DejaVuSansMono-30" d="M 1509 2344 
Q 1509 2516 1629 2641 
Q 1750 2766 1919 2766 
Q 2094 2766 2219 2641 
Q 2344 2516 2344 2344 
Q 2344 2169 2220 2047 
Q 2097 1925 1919 1925 
Q 1744 1925 1626 2044 
Q 1509 2163 1509 2344 
z
M 1925 4250 
Q 1484 4250 1267 3775 
Q 1050 3300 1050 2328 
Q 1050 1359 1267 884 
Q 1484 409 1925 409 
Q 2369 409 2586 884 
Q 2803 1359 2803 2328 
Q 2803 3300 2586 3775 
Q 2369 4250 1925 4250 
z
M 1925 4750 
Q 2672 4750 3055 4137 
Q 3438 3525 3438 2328 
Q 3438 1134 3055 521 
Q 2672 -91 1925 -91 
Q 1178 -91 797 521 
Q 416 1134 416 2328 
Q 416 3525 797 4137 
Q 1178 4750 1925 4750 
z
" transform="scale(0.015625)"/>
     </defs>
     <use xlink:href="#DejaVuSansMono-77"/>
     <use xlink:href="#DejaVuSansMono-31" x="60.205078"/>
     <use xlink:href="#DejaVuSansMono-3d" x="120.410156"/>
     <use xlink:href="#DejaVuSansMono-33" x="180.615234"/>
     <use xlink:href="#DejaVuSansMono-30" x="240.820312"/>
     <use xlink:href="#DejaVuSansMono-30" x="301.025391"/>
    </g>
   </g>
   <g id="patch_10">
    <path d="M 536.438047 89.298558 
Q 415.250586 89.298558 294.063125 89.298558 
" style="fill: none; stroke: #000000; stroke-linecap: round"/>
    <path d="M 531.51497 86.837019 
L 536.438047 89.298558 
L 531.51497 91.760096 
" style="fill: none; stroke: #000000; stroke-linecap: round"/>
    <path d="M 298.986202 91.760096 
L 294.063125 89.298558 
L 298.986202 86.837019 
" style="fill: none; stroke: #000000; stroke-linecap: round"/>
   </g>
   <g id="text_18">
    <!-- gap -->
    <g transform="translate(547.310091 155.816609) scale(0.123077 -0.123077)">
     <defs>
      <path id="DejaVuSans-Bold-67" d="M 2919 594 
Q 2688 288 2409 144 
Q 2131 0 1766 0 
Q 1125 0 706 504 
Q 288 1009 288 1791 
Q 288 2575 706 3076 
Q 1125 3578 1766 3578 
Q 2131 3578 2409 3434 
Q 2688 3291 2919 2981 
L 2919 3500 
L 4044 3500 
L 4044 353 
Q 4044 -491 3511 -936 
Q 2978 -1381 1966 -1381 
Q 1638 -1381 1331 -1331 
Q 1025 -1281 716 -1178 
L 716 -306 
Q 1009 -475 1290 -558 
Q 1572 -641 1856 -641 
Q 2406 -641 2662 -400 
Q 2919 -159 2919 353 
L 2919 594 
z
M 2181 2772 
Q 1834 2772 1640 2515 
Q 1447 2259 1447 1791 
Q 1447 1309 1634 1061 
Q 1822 813 2181 813 
Q 2531 813 2725 1069 
Q 2919 1325 2919 1791 
Q 2919 2259 2725 2515 
Q 2531 2772 2181 2772 
z
" transform="scale(0.015625)"/>
      <path id="DejaVuSans-Bold-61" d="M 2106 1575 
Q 1756 1575 1579 1456 
Q 1403 1338 1403 1106 
Q 1403 894 1545 773 
Q 1688 653 1941 653 
Q 2256 653 2472 879 
Q 2688 1106 2688 1447 
L 2688 1575 
L 2106 1575 
z
M 3816 1997 
L 3816 0 
L 2688 0 
L 2688 519 
Q 2463 200 2181 54 
Q 1900 -91 1497 -91 
Q 953 -91 614 226 
Q 275 544 275 1050 
Q 275 1666 698 1953 
Q 1122 2241 2028 2241 
L 2688 2241 
L 2688 2328 
Q 2688 2594 2478 2717 
Q 2269 2841 1825 2841 
Q 1466 2841 1156 2769 
Q 847 2697 581 2553 
L 581 3406 
Q 941 3494 1303 3539 
Q 1666 3584 2028 3584 
Q 2975 3584 3395 3211 
Q 3816 2838 3816 1997 
z
" transform="scale(0.015625)"/>
      <path id="DejaVuSans-Bold-70" d="M 1656 506 
L 1656 -1331 
L 538 -1331 
L 538 3500 
L 1656 3500 
L 1656 2988 
Q 1888 3294 2169 3439 
Q 2450 3584 2816 3584 
Q 3463 3584 3878 3070 
Q 4294 2556 4294 1747 
Q 4294 938 3878 423 
Q 3463 -91 2816 -91 
Q 2450 -91 2169 54 
Q 1888 200 1656 506 
z
M 2400 2772 
Q 2041 2772 1848 2508 
Q 1656 2244 1656 1747 
Q 1656 1250 1848 986 
Q 2041 722 2400 722 
Q 2759 722 2948 984 
Q 3138 1247 3138 1747 
Q 3138 2247 2948 2509 
Q 2759 2772 2400 2772 
z
" transform="scale(0.015625)"/>
     </defs>
     <use xlink:href="#DejaVuSans-Bold-67"/>
     <use xlink:href="#DejaVuSans-Bold-61" x="71.582031"/>
     <use xlink:href="#DejaVuSans-Bold-70" x="139.0625"/>
    </g>
   </g>
   <g id="text_19">
    <!-- off=50 -->
    <g transform="translate(541.007591 173.997347) scale(0.106667 -0.106667)">
     <defs>
      <path id="DejaVuSansMono-6f" d="M 1925 3097 
Q 1488 3097 1263 2756 
Q 1038 2416 1038 1747 
Q 1038 1081 1263 739 
Q 1488 397 1925 397 
Q 2366 397 2591 739 
Q 2816 1081 2816 1747 
Q 2816 2416 2591 2756 
Q 2366 3097 1925 3097 
z
M 1925 3584 
Q 2653 3584 3039 3112 
Q 3425 2641 3425 1747 
Q 3425 850 3040 379 
Q 2656 -91 1925 -91 
Q 1197 -91 812 379 
Q 428 850 428 1747 
Q 428 2641 812 3112 
Q 1197 3584 1925 3584 
z
" transform="scale(0.015625)"/>
      <path id="DejaVuSansMono-66" d="M 3322 4863 
L 3322 4384 
L 2669 4384 
Q 2359 4384 2239 4257 
Q 2119 4131 2119 3809 
L 2119 3500 
L 3322 3500 
L 3322 3053 
L 2119 3053 
L 2119 0 
L 1544 0 
L 1544 3053 
L 609 3053 
L 609 3500 
L 1544 3500 
L 1544 3744 
Q 1544 4319 1808 4591 
Q 2072 4863 2631 4863 
L 3322 4863 
z
" transform="scale(0.015625)"/>
      <path id="DejaVuSansMono-35" d="M 647 4666 
L 3009 4666 
L 3009 4134 
L 1222 4134 
L 1222 2988 
Q 1356 3038 1492 3061 
Q 1628 3084 1766 3084 
Q 2491 3084 2916 2656 
Q 3341 2228 3341 1497 
Q 3341 759 2895 334 
Q 2450 -91 1678 -91 
Q 1306 -91 998 -41 
Q 691 9 447 109 
L 447 750 
Q 734 594 1025 517 
Q 1316 441 1619 441 
Q 2141 441 2423 716 
Q 2706 991 2706 1497 
Q 2706 1997 2414 2275 
Q 2122 2553 1600 2553 
Q 1347 2553 1106 2495 
Q 866 2438 647 2322 
L 647 4666 
z
" transform="scale(0.015625)"/>
     </defs>
     <use xlink:href="#DejaVuSansMono-6f"/>
     <use xlink:href="#DejaVuSansMono-66" x="60.205078"/>
     <use xlink:href="#DejaVuSansMono-66" x="120.410156"/>
     <use xlink:href="#DejaVuSansMono-3d" x="180.615234"/>
     <use xlink:href="#DejaVuSansMono-35" x="240.820312"/>
     <use xlink:href="#DejaVuSansMono-30" x="301.025391"/>
    </g>
   </g>
   <g id="patch_11">
    <path d="M 577.871495 139.56026 
Q 560.271237 139.56026 542.670978 139.56026 
" style="fill: none; stroke: #000000; stroke-linecap: round"/>
    <path d="M 572.948418 137.098721 
L 577.871495 139.56026 
L 572.948418 142.021798 
" style="fill: none; stroke: #000000; stroke-linecap: round"/>
    <path d="M 547.594055 142.021798 
L 542.670978 139.56026 
L 547.594055 137.098721 
" style="fill: none; stroke: #000000; stroke-linecap: round"/>
   </g>
   <g id="text_20">
    <!-- size of the window 2 -->
    <g transform="translate(530.433265 105.651062) scale(0.123077 -0.123077)">
     <defs>
      <path id="DejaVuSans-Bold-32" d="M 1844 884 
L 3897 884 
L 3897 0 
L 506 0 
L 506 884 
L 2209 2388 
Q 2438 2594 2547 2791 
Q 2656 2988 2656 3200 
Q 2656 3528 2436 3728 
Q 2216 3928 1850 3928 
Q 1569 3928 1234 3808 
Q 900 3688 519 3450 
L 519 4475 
Q 925 4609 1322 4679 
Q 1719 4750 2100 4750 
Q 2938 4750 3402 4381 
Q 3866 4013 3866 3353 
Q 3866 2972 3669 2642 
Q 3472 2313 2841 1759 
L 1844 884 
z
" transform="scale(0.015625)"/>
     </defs>
     <use xlink:href="#DejaVuSans-Bold-73"/>
     <use xlink:href="#DejaVuSans-Bold-69" x="59.521484"/>
     <use xlink:href="#DejaVuSans-Bold-7a" x="93.798828"/>
     <use xlink:href="#DejaVuSans-Bold-65" x="152.001953"/>
     <use xlink:href="#DejaVuSans-Bold-20" x="219.824219"/>
     <use xlink:href="#DejaVuSans-Bold-6f" x="254.638672"/>
     <use xlink:href="#DejaVuSans-Bold-66" x="323.339844"/>
     <use xlink:href="#DejaVuSans-Bold-20" x="366.845703"/>
     <use xlink:href="#DejaVuSans-Bold-74" x="401.660156"/>
     <use xlink:href="#DejaVuSans-Bold-68" x="449.462891"/>
     <use xlink:href="#DejaVuSans-Bold-65" x="520.654297"/>
     <use xlink:href="#DejaVuSans-Bold-20" x="588.476562"/>
     <use xlink:href="#DejaVuSans-Bold-77" x="623.291016"/>
     <use xlink:href="#DejaVuSans-Bold-69" x="715.673828"/>
     <use xlink:href="#DejaVuSans-Bold-6e" x="749.951172"/>
     <use xlink:href="#DejaVuSans-Bold-64" x="821.142578"/>
     <use xlink:href="#DejaVuSans-Bold-6f" x="892.724609"/>
     <use xlink:href="#DejaVuSans-Bold-77" x="961.425781"/>
     <use xlink:href="#DejaVuSans-Bold-20" x="1053.808594"/>
     <use xlink:href="#DejaVuSans-Bold-32" x="1088.623047"/>
    </g>
   </g>
   <g id="text_21">
    <!-- w2=50 -->
    <g transform="translate(585.653137 123.735645) scale(0.106667 -0.106667)">
     <defs>
      <path id="DejaVuSansMono-32" d="M 1166 531 
L 3309 531 
L 3309 0 
L 475 0 
L 475 531 
Q 1059 1147 1496 1619 
Q 1934 2091 2100 2284 
Q 2413 2666 2522 2902 
Q 2631 3138 2631 3384 
Q 2631 3775 2401 3997 
Q 2172 4219 1772 4219 
Q 1488 4219 1175 4116 
Q 863 4013 513 3803 
L 513 4441 
Q 834 4594 1145 4672 
Q 1456 4750 1759 4750 
Q 2444 4750 2861 4386 
Q 3278 4022 3278 3431 
Q 3278 3131 3139 2831 
Q 3000 2531 2688 2169 
Q 2513 1966 2180 1606 
Q 1847 1247 1166 531 
z
" transform="scale(0.015625)"/>
     </defs>
     <use xlink:href="#DejaVuSansMono-77"/>
     <use xlink:href="#DejaVuSansMono-32" x="60.205078"/>
     <use xlink:href="#DejaVuSansMono-3d" x="120.410156"/>
     <use xlink:href="#DejaVuSansMono-35" x="180.615234"/>
     <use xlink:href="#DejaVuSansMono-30" x="240.820312"/>
    </g>
   </g>
   <g id="patch_12">
    <path d="M 619.306207 89.298558 
Q 601.705949 89.298558 584.10569 89.298558 
" style="fill: none; stroke: #000000; stroke-linecap: round"/>
    <path d="M 614.38313 86.837019 
L 619.306207 89.298558 
L 614.38313 91.760096 
" style="fill: none; stroke: #000000; stroke-linecap: round"/>
    <path d="M 589.028767 91.760096 
L 584.10569 89.298558 
L 589.028767 86.837019 
" style="fill: none; stroke: #000000; stroke-linecap: round"/>
   </g>
   <g id="text_22">
    <!-- time 0 -->
    <g style="fill: #ff8c00" transform="translate(236.133077 140.828203) scale(0.106667 -0.106667)">
     <defs>
      <path id="DejaVuSans-Bold-6d" d="M 3781 2919 
Q 3994 3244 4286 3414 
Q 4578 3584 4928 3584 
Q 5531 3584 5847 3212 
Q 6163 2841 6163 2131 
L 6163 0 
L 5038 0 
L 5038 1825 
Q 5041 1866 5042 1909 
Q 5044 1953 5044 2034 
Q 5044 2406 4934 2573 
Q 4825 2741 4581 2741 
Q 4263 2741 4089 2478 
Q 3916 2216 3909 1719 
L 3909 0 
L 2784 0 
L 2784 1825 
Q 2784 2406 2684 2573 
Q 2584 2741 2328 2741 
Q 2006 2741 1831 2477 
Q 1656 2213 1656 1722 
L 1656 0 
L 531 0 
L 531 3500 
L 1656 3500 
L 1656 2988 
Q 1863 3284 2130 3434 
Q 2397 3584 2719 3584 
Q 3081 3584 3359 3409 
Q 3638 3234 3781 2919 
z
" transform="scale(0.015625)"/>
      <path id="DejaVuSans-Bold-30" d="M 2944 2338 
Q 2944 3213 2780 3570 
Q 2616 3928 2228 3928 
Q 1841 3928 1675 3570 
Q 1509 3213 1509 2338 
Q 1509 1453 1675 1090 
Q 1841 728 2228 728 
Q 2613 728 2778 1090 
Q 2944 1453 2944 2338 
z
M 4147 2328 
Q 4147 1169 3647 539 
Q 3147 -91 2228 -91 
Q 1306 -91 806 539 
Q 306 1169 306 2328 
Q 306 3491 806 4120 
Q 1306 4750 2228 4750 
Q 3147 4750 3647 4120 
Q 4147 3491 4147 2328 
z
" transform="scale(0.015625)"/>
     </defs>
     <use xlink:href="#DejaVuSans-Bold-74"/>
     <use xlink:href="#DejaVuSans-Bold-69" x="47.802734"/>
     <use xlink:href="#DejaVuSans-Bold-6d" x="82.080078"/>
     <use xlink:href="#DejaVuSans-Bold-65" x="186.279297"/>
     <use xlink:href="#DejaVuSans-Bold-20" x="254.101562"/>
     <use xlink:href="#DejaVuSans-Bold-30" x="288.916016"/>
    </g>
   </g>
   <g id="text_23">
    <!-- t_0 -->
    <g style="fill: #ff8c00" transform="translate(255.108077 159.094774) scale(0.106667 -0.106667)">
     <defs>
      <path id="DejaVuSansMono-74" d="M 1919 4494 
L 1919 3500 
L 3225 3500 
L 3225 3053 
L 1919 3053 
L 1919 1153 
Q 1919 766 2066 612 
Q 2213 459 2578 459 
L 3225 459 
L 3225 0 
L 2522 0 
Q 1875 0 1609 259 
Q 1344 519 1344 1153 
L 1344 3053 
L 409 3053 
L 409 3500 
L 1344 3500 
L 1344 4494 
L 1919 4494 
z
" transform="scale(0.015625)"/>
      <path id="DejaVuSansMono-5f" d="M 3853 -1259 
L 3853 -1509 
L 0 -1509 
L 0 -1259 
L 3853 -1259 
z
" transform="scale(0.015625)"/>
     </defs>
     <use xlink:href="#DejaVuSansMono-74"/>
     <use xlink:href="#DejaVuSansMono-5f" x="60.205078"/>
     <use xlink:href="#DejaVuSansMono-30" x="120.410156"/>
    </g>
   </g>
   <g id="patch_13">
    <path d="M 276.376024 137.88487 
Q 282.660097 137.88487 287.826135 137.88487 
" style="fill: none; stroke: #ff8c00; stroke-linecap: round"/>
    <path d="M 283.559468 135.751536 
L 287.826135 137.88487 
L 283.559468 140.018203 
" style="fill: none; stroke: #ff8c00; stroke-linecap: round"/>
   </g>
   <g id="text_24">
    <!-- regression line 1 -->
    <g style="fill: #ff8c00" transform="translate(297.787213 164.179945) scale(0.106667 -0.106667)">
     <defs>
      <path id="DejaVuSans-Bold-72" d="M 3138 2547 
Q 2991 2616 2845 2648 
Q 2700 2681 2553 2681 
Q 2122 2681 1889 2404 
Q 1656 2128 1656 1613 
L 1656 0 
L 538 0 
L 538 3500 
L 1656 3500 
L 1656 2925 
Q 1872 3269 2151 3426 
Q 2431 3584 2822 3584 
Q 2878 3584 2943 3579 
Q 3009 3575 3134 3559 
L 3138 2547 
z
" transform="scale(0.015625)"/>
      <path id="DejaVuSans-Bold-6c" d="M 538 4863 
L 1656 4863 
L 1656 0 
L 538 0 
L 538 4863 
z
" transform="scale(0.015625)"/>
     </defs>
     <use xlink:href="#DejaVuSans-Bold-72"/>
     <use xlink:href="#DejaVuSans-Bold-65" x="49.316406"/>
     <use xlink:href="#DejaVuSans-Bold-67" x="117.138672"/>
     <use xlink:href="#DejaVuSans-Bold-72" x="188.720703"/>
     <use xlink:href="#DejaVuSans-Bold-65" x="238.037109"/>
     <use xlink:href="#DejaVuSans-Bold-73" x="305.859375"/>
     <use xlink:href="#DejaVuSans-Bold-73" x="365.380859"/>
     <use xlink:href="#DejaVuSans-Bold-69" x="424.902344"/>
     <use xlink:href="#DejaVuSans-Bold-6f" x="459.179688"/>
     <use xlink:href="#DejaVuSans-Bold-6e" x="527.880859"/>
     <use xlink:href="#DejaVuSans-Bold-20" x="599.072266"/>
     <use xlink:href="#DejaVuSans-Bold-6c" x="633.886719"/>
     <use xlink:href="#DejaVuSans-Bold-69" x="668.164062"/>
     <use xlink:href="#DejaVuSans-Bold-6e" x="702.441406"/>
     <use xlink:href="#DejaVuSans-Bold-65" x="773.632812"/>
     <use xlink:href="#DejaVuSans-Bold-20" x="841.455078"/>
     <use xlink:href="#DejaVuSans-Bold-31" x="876.269531"/>
    </g>
   </g>
   <g id="text_25">
    <!-- slope1 -->
    <g style="fill: #ff8c00" transform="translate(360.147213 176.75285) scale(0.106667 -0.106667)">
     <defs>
      <path id="DejaVuSansMono-73" d="M 3041 3378 
L 3041 2816 
Q 2794 2959 2544 3031 
Q 2294 3103 2034 3103 
Q 1644 3103 1451 2976 
Q 1259 2850 1259 2591 
Q 1259 2356 1403 2240 
Q 1547 2125 2119 2016 
L 2350 1972 
Q 2778 1891 2998 1647 
Q 3219 1403 3219 1013 
Q 3219 494 2850 201 
Q 2481 -91 1825 -91 
Q 1566 -91 1281 -36 
Q 997 19 666 128 
L 666 722 
Q 988 556 1281 473 
Q 1575 391 1838 391 
Q 2219 391 2428 545 
Q 2638 700 2638 978 
Q 2638 1378 1872 1531 
L 1847 1538 
L 1631 1581 
Q 1134 1678 906 1908 
Q 678 2138 678 2534 
Q 678 3038 1018 3311 
Q 1359 3584 1991 3584 
Q 2272 3584 2531 3532 
Q 2791 3481 3041 3378 
z
" transform="scale(0.015625)"/>
      <path id="DejaVuSansMono-6c" d="M 1997 1269 
Q 1997 881 2139 684 
Q 2281 488 2559 488 
L 3231 488 
L 3231 0 
L 2503 0 
Q 1988 0 1705 331 
Q 1422 663 1422 1269 
L 1422 4447 
L 500 4447 
L 500 4897 
L 1997 4897 
L 1997 1269 
z
" transform="scale(0.015625)"/>
      <path id="DejaVuSansMono-70" d="M 1172 441 
L 1172 -1331 
L 594 -1331 
L 594 3500 
L 1172 3500 
L 1172 3053 
Q 1316 3313 1555 3448 
Q 1794 3584 2106 3584 
Q 2741 3584 3102 3093 
Q 3463 2603 3463 1734 
Q 3463 881 3100 395 
Q 2738 -91 2106 -91 
Q 1788 -91 1548 45 
Q 1309 181 1172 441 
z
M 2859 1747 
Q 2859 2416 2648 2756 
Q 2438 3097 2022 3097 
Q 1603 3097 1387 2755 
Q 1172 2413 1172 1747 
Q 1172 1084 1387 740 
Q 1603 397 2022 397 
Q 2438 397 2648 737 
Q 2859 1078 2859 1747 
z
" transform="scale(0.015625)"/>
      <path id="DejaVuSansMono-65" d="M 3475 1894 
L 3475 1613 
L 984 1613 
L 984 1594 
Q 984 1022 1282 709 
Q 1581 397 2125 397 
Q 2400 397 2700 484 
Q 3000 572 3341 750 
L 3341 178 
Q 3013 44 2708 -23 
Q 2403 -91 2119 -91 
Q 1303 -91 843 398 
Q 384 888 384 1747 
Q 384 2584 834 3084 
Q 1284 3584 2034 3584 
Q 2703 3584 3089 3131 
Q 3475 2678 3475 1894 
z
M 2900 2063 
Q 2888 2569 2661 2833 
Q 2434 3097 2009 3097 
Q 1594 3097 1325 2822 
Q 1056 2547 1006 2059 
L 2900 2063 
z
" transform="scale(0.015625)"/>
     </defs>
     <use xlink:href="#DejaVuSansMono-73"/>
     <use xlink:href="#DejaVuSansMono-6c" x="60.205078"/>
     <use xlink:href="#DejaVuSansMono-6f" x="120.410156"/>
     <use xlink:href="#DejaVuSansMono-70" x="180.615234"/>
     <use xlink:href="#DejaVuSansMono-65" x="240.820312"/>
     <use xlink:href="#DejaVuSansMono-31" x="301.025391"/>
    </g>
    <!-- intercept1 -->
    <g style="fill: #ff8c00" transform="translate(334.460547 188.765183) scale(0.106667 -0.106667)">
     <defs>
      <path id="DejaVuSansMono-69" d="M 800 3500 
L 2272 3500 
L 2272 447 
L 3413 447 
L 3413 0 
L 556 0 
L 556 447 
L 1697 447 
L 1697 3053 
L 800 3053 
L 800 3500 
z
M 1697 4863 
L 2272 4863 
L 2272 4134 
L 1697 4134 
L 1697 4863 
z
" transform="scale(0.015625)"/>
      <path id="DejaVuSansMono-6e" d="M 3284 2169 
L 3284 0 
L 2706 0 
L 2706 2169 
Q 2706 2641 2540 2862 
Q 2375 3084 2022 3084 
Q 1619 3084 1401 2798 
Q 1184 2513 1184 1978 
L 1184 0 
L 609 0 
L 609 3500 
L 1184 3500 
L 1184 2975 
Q 1338 3275 1600 3429 
Q 1863 3584 2222 3584 
Q 2756 3584 3020 3232 
Q 3284 2881 3284 2169 
z
" transform="scale(0.015625)"/>
      <path id="DejaVuSansMono-72" d="M 3609 2778 
Q 3425 2922 3234 2987 
Q 3044 3053 2816 3053 
Q 2278 3053 1993 2715 
Q 1709 2378 1709 1741 
L 1709 0 
L 1131 0 
L 1131 3500 
L 1709 3500 
L 1709 2816 
Q 1853 3188 2151 3386 
Q 2450 3584 2859 3584 
Q 3072 3584 3256 3531 
Q 3441 3478 3609 3366 
L 3609 2778 
z
" transform="scale(0.015625)"/>
      <path id="DejaVuSansMono-63" d="M 3316 178 
Q 3084 44 2839 -23 
Q 2594 -91 2338 -91 
Q 1525 -91 1067 396 
Q 609 884 609 1747 
Q 609 2609 1067 3096 
Q 1525 3584 2338 3584 
Q 2591 3584 2831 3518 
Q 3072 3453 3316 3316 
L 3316 2713 
Q 3088 2916 2858 3006 
Q 2628 3097 2338 3097 
Q 1797 3097 1506 2747 
Q 1216 2397 1216 1747 
Q 1216 1100 1508 748 
Q 1800 397 2338 397 
Q 2638 397 2875 489 
Q 3113 581 3316 775 
L 3316 178 
z
" transform="scale(0.015625)"/>
     </defs>
     <use xlink:href="#DejaVuSansMono-69"/>
     <use xlink:href="#DejaVuSansMono-6e" x="60.205078"/>
     <use xlink:href="#DejaVuSansMono-74" x="120.410156"/>
     <use xlink:href="#DejaVuSansMono-65" x="180.615234"/>
     <use xlink:href="#DejaVuSansMono-72" x="240.820312"/>
     <use xlink:href="#DejaVuSansMono-63" x="301.025391"/>
     <use xlink:href="#DejaVuSansMono-65" x="361.230469"/>
     <use xlink:href="#DejaVuSansMono-70" x="421.435547"/>
     <use xlink:href="#DejaVuSansMono-74" x="481.640625"/>
     <use xlink:href="#DejaVuSansMono-31" x="541.845703"/>
    </g>
   </g>
   <g id="patch_14">
    <path d="M 399.888592 162.868969 
Q 419.395092 188.48342 438.224219 213.208395 
" style="fill: none; stroke: #ff8c00; stroke-linecap: round"/>
    <path d="M 437.336429 208.521458 
L 438.224219 213.208395 
L 433.941995 211.106465 
" style="fill: none; stroke: #ff8c00; stroke-linecap: round"/>
   </g>
   <g id="text_26">
    <!-- regression line 2 -->
    <g style="fill: #006400" transform="translate(642.313322 184.74558) scale(0.106667 -0.106667)">
     <use xlink:href="#DejaVuSans-Bold-72"/>
     <use xlink:href="#DejaVuSans-Bold-65" x="49.316406"/>
     <use xlink:href="#DejaVuSans-Bold-67" x="117.138672"/>
     <use xlink:href="#DejaVuSans-Bold-72" x="188.720703"/>
     <use xlink:href="#DejaVuSans-Bold-65" x="238.037109"/>
     <use xlink:href="#DejaVuSans-Bold-73" x="305.859375"/>
     <use xlink:href="#DejaVuSans-Bold-73" x="365.380859"/>
     <use xlink:href="#DejaVuSans-Bold-69" x="424.902344"/>
     <use xlink:href="#DejaVuSans-Bold-6f" x="459.179688"/>
     <use xlink:href="#DejaVuSans-Bold-6e" x="527.880859"/>
     <use xlink:href="#DejaVuSans-Bold-20" x="599.072266"/>
     <use xlink:href="#DejaVuSans-Bold-6c" x="633.886719"/>
     <use xlink:href="#DejaVuSans-Bold-69" x="668.164062"/>
     <use xlink:href="#DejaVuSans-Bold-6e" x="702.441406"/>
     <use xlink:href="#DejaVuSans-Bold-65" x="773.632812"/>
     <use xlink:href="#DejaVuSans-Bold-20" x="841.455078"/>
     <use xlink:href="#DejaVuSans-Bold-32" x="876.269531"/>
    </g>
   </g>
   <g id="text_27">
    <!-- slope2 -->
    <g style="fill: #006400" transform="translate(642.313322 197.318484) scale(0.106667 -0.106667)">
     <use xlink:href="#DejaVuSansMono-73"/>
     <use xlink:href="#DejaVuSansMono-6c" x="60.205078"/>
     <use xlink:href="#DejaVuSansMono-6f" x="120.410156"/>
     <use xlink:href="#DejaVuSansMono-70" x="180.615234"/>
     <use xlink:href="#DejaVuSansMono-65" x="240.820312"/>
     <use xlink:href="#DejaVuSansMono-32" x="301.025391"/>
    </g>
    <!-- intercept2 -->
    <g style="fill: #006400" transform="translate(642.313322 209.330818) scale(0.106667 -0.106667)">
     <use xlink:href="#DejaVuSansMono-69"/>
     <use xlink:href="#DejaVuSansMono-6e" x="60.205078"/>
     <use xlink:href="#DejaVuSansMono-74" x="120.410156"/>
     <use xlink:href="#DejaVuSansMono-65" x="180.615234"/>
     <use xlink:href="#DejaVuSansMono-72" x="240.820312"/>
     <use xlink:href="#DejaVuSansMono-63" x="301.025391"/>
     <use xlink:href="#DejaVuSansMono-65" x="361.230469"/>
     <use xlink:href="#DejaVuSansMono-70" x="421.435547"/>
     <use xlink:href="#DejaVuSansMono-74" x="481.640625"/>
     <use xlink:href="#DejaVuSansMono-32" x="541.845703"/>
    </g>
   </g>
   <g id="patch_15">
    <path d="M 640.677682 182.99645 
Q 623.253892 195.273945 606.744035 206.907448 
" style="fill: none; stroke: #006400; stroke-linecap: round"/>
    <path d="M 611.460616 206.193711 
L 606.744035 206.907448 
L 609.002994 202.705941 
" style="fill: none; stroke: #006400; stroke-linecap: round"/>
   </g>
   <g id="text_28">
    <!-- Latency of pursuit -->
    <g style="fill: #006400" transform="translate(606.679469 247.676422) scale(0.106667 -0.106667)">
     <defs>
      <path id="DejaVuSans-Bold-4c" d="M 588 4666 
L 1791 4666 
L 1791 909 
L 3903 909 
L 3903 0 
L 588 0 
L 588 4666 
z
" transform="scale(0.015625)"/>
      <path id="DejaVuSans-Bold-63" d="M 3366 3391 
L 3366 2478 
Q 3138 2634 2908 2709 
Q 2678 2784 2431 2784 
Q 1963 2784 1702 2511 
Q 1441 2238 1441 1747 
Q 1441 1256 1702 982 
Q 1963 709 2431 709 
Q 2694 709 2930 787 
Q 3166 866 3366 1019 
L 3366 103 
Q 3103 6 2833 -42 
Q 2563 -91 2291 -91 
Q 1344 -91 809 395 
Q 275 881 275 1747 
Q 275 2613 809 3098 
Q 1344 3584 2291 3584 
Q 2566 3584 2833 3536 
Q 3100 3488 3366 3391 
z
" transform="scale(0.015625)"/>
      <path id="DejaVuSans-Bold-79" d="M 78 3500 
L 1197 3500 
L 2138 1125 
L 2938 3500 
L 4056 3500 
L 2584 -331 
Q 2363 -916 2067 -1148 
Q 1772 -1381 1288 -1381 
L 641 -1381 
L 641 -647 
L 991 -647 
Q 1275 -647 1404 -556 
Q 1534 -466 1606 -231 
L 1638 -134 
L 78 3500 
z
" transform="scale(0.015625)"/>
      <path id="DejaVuSans-Bold-75" d="M 500 1363 
L 500 3500 
L 1625 3500 
L 1625 3150 
Q 1625 2866 1622 2436 
Q 1619 2006 1619 1863 
Q 1619 1441 1641 1255 
Q 1663 1069 1716 984 
Q 1784 875 1895 815 
Q 2006 756 2150 756 
Q 2500 756 2700 1025 
Q 2900 1294 2900 1772 
L 2900 3500 
L 4019 3500 
L 4019 0 
L 2900 0 
L 2900 506 
Q 2647 200 2364 54 
Q 2081 -91 1741 -91 
Q 1134 -91 817 281 
Q 500 653 500 1363 
z
" transform="scale(0.015625)"/>
     </defs>
     <use xlink:href="#DejaVuSans-Bold-4c"/>
     <use xlink:href="#DejaVuSans-Bold-61" x="63.720703"/>
     <use xlink:href="#DejaVuSans-Bold-74" x="131.201172"/>
     <use xlink:href="#DejaVuSans-Bold-65" x="179.003906"/>
     <use xlink:href="#DejaVuSans-Bold-6e" x="246.826172"/>
     <use xlink:href="#DejaVuSans-Bold-63" x="318.017578"/>
     <use xlink:href="#DejaVuSans-Bold-79" x="377.294922"/>
     <use xlink:href="#DejaVuSans-Bold-20" x="442.480469"/>
     <use xlink:href="#DejaVuSans-Bold-6f" x="477.294922"/>
     <use xlink:href="#DejaVuSans-Bold-66" x="545.996094"/>
     <use xlink:href="#DejaVuSans-Bold-20" x="589.501953"/>
     <use xlink:href="#DejaVuSans-Bold-70" x="624.316406"/>
     <use xlink:href="#DejaVuSans-Bold-75" x="695.898438"/>
     <use xlink:href="#DejaVuSans-Bold-72" x="767.089844"/>
     <use xlink:href="#DejaVuSans-Bold-73" x="816.40625"/>
     <use xlink:href="#DejaVuSans-Bold-75" x="875.927734"/>
     <use xlink:href="#DejaVuSans-Bold-69" x="947.119141"/>
     <use xlink:href="#DejaVuSans-Bold-74" x="981.396484"/>
    </g>
   </g>
   <g id="text_29">
    <!-- latency -->
    <g style="fill: #006400" transform="translate(606.679469 266.255493) scale(0.106667 -0.106667)">
     <defs>
      <path id="DejaVuSansMono-61" d="M 2194 1759 
L 2003 1759 
Q 1500 1759 1245 1582 
Q 991 1406 991 1056 
Q 991 741 1181 566 
Q 1372 391 1709 391 
Q 2184 391 2456 720 
Q 2728 1050 2731 1631 
L 2731 1759 
L 2194 1759 
z
M 3309 1997 
L 3309 0 
L 2731 0 
L 2731 519 
Q 2547 206 2267 57 
Q 1988 -91 1588 -91 
Q 1053 -91 734 211 
Q 416 513 416 1019 
Q 416 1603 808 1906 
Q 1200 2209 1959 2209 
L 2731 2209 
L 2731 2300 
Q 2728 2719 2518 2908 
Q 2309 3097 1850 3097 
Q 1556 3097 1256 3012 
Q 956 2928 672 2766 
L 672 3341 
Q 991 3463 1283 3523 
Q 1575 3584 1850 3584 
Q 2284 3584 2592 3456 
Q 2900 3328 3091 3072 
Q 3209 2916 3259 2686 
Q 3309 2456 3309 1997 
z
" transform="scale(0.015625)"/>
      <path id="DejaVuSansMono-79" d="M 2681 1125 
Q 2538 759 2316 163 
Q 2006 -663 1900 -844 
Q 1756 -1088 1540 -1209 
Q 1325 -1331 1038 -1331 
L 575 -1331 
L 575 -850 
L 916 -850 
Q 1169 -850 1312 -703 
Q 1456 -556 1678 56 
L 325 3500 
L 934 3500 
L 1972 763 
L 2994 3500 
L 3603 3500 
L 2681 1125 
z
" transform="scale(0.015625)"/>
     </defs>
     <use xlink:href="#DejaVuSansMono-6c"/>
     <use xlink:href="#DejaVuSansMono-61" x="60.205078"/>
     <use xlink:href="#DejaVuSansMono-74" x="120.410156"/>
     <use xlink:href="#DejaVuSansMono-65" x="180.615234"/>
     <use xlink:href="#DejaVuSansMono-6e" x="240.820312"/>
     <use xlink:href="#DejaVuSansMono-63" x="301.025391"/>
     <use xlink:href="#DejaVuSansMono-79" x="361.230469"/>
    </g>
   </g>
   <g id="patch_16">
    <path d="M 604.676522 244.774755 
Q 598.392449 244.774755 593.226411 244.774755 
" style="fill: none; stroke: #006400; stroke-linecap: round"/>
    <path d="M 597.493077 246.908088 
L 593.226411 244.774755 
L 597.493077 242.641422 
" style="fill: none; stroke: #006400; stroke-linecap: round"/>
   </g>
   <g id="text_30">
    <!-- Fixation point -->
    <g style="opacity: 0.4" transform="translate(83.132969 73.309505) scale(0.16 -0.16)">
     <defs>
      <path id="DejaVuSans-Bold-46" d="M 588 4666 
L 3834 4666 
L 3834 3756 
L 1791 3756 
L 1791 2888 
L 3713 2888 
L 3713 1978 
L 1791 1978 
L 1791 0 
L 588 0 
L 588 4666 
z
" transform="scale(0.015625)"/>
      <path id="DejaVuSans-Bold-78" d="M 1422 1791 
L 159 3500 
L 1344 3500 
L 2059 2463 
L 2784 3500 
L 3969 3500 
L 2706 1797 
L 4031 0 
L 2847 0 
L 2059 1106 
L 1281 0 
L 97 0 
L 1422 1791 
z
" transform="scale(0.015625)"/>
     </defs>
     <use xlink:href="#DejaVuSans-Bold-46"/>
     <use xlink:href="#DejaVuSans-Bold-69" x="68.310547"/>
     <use xlink:href="#DejaVuSans-Bold-78" x="102.587891"/>
     <use xlink:href="#DejaVuSans-Bold-61" x="167.089844"/>
     <use xlink:href="#DejaVuSans-Bold-74" x="234.570312"/>
     <use xlink:href="#DejaVuSans-Bold-69" x="282.373047"/>
     <use xlink:href="#DejaVuSans-Bold-6f" x="316.650391"/>
     <use xlink:href="#DejaVuSans-Bold-6e" x="385.351562"/>
     <use xlink:href="#DejaVuSans-Bold-20" x="456.542969"/>
     <use xlink:href="#DejaVuSans-Bold-70" x="491.357422"/>
     <use xlink:href="#DejaVuSans-Bold-6f" x="562.939453"/>
     <use xlink:href="#DejaVuSans-Bold-69" x="631.640625"/>
     <use xlink:href="#DejaVuSans-Bold-6e" x="665.917969"/>
     <use xlink:href="#DejaVuSans-Bold-74" x="737.109375"/>
    </g>
   </g>
   <g id="text_31">
    <!-- GAP -->
    <g style="opacity: 0.4" transform="translate(334.47778 73.309505) scale(0.16 -0.16)">
     <defs>
      <path id="DejaVuSans-Bold-47" d="M 4781 347 
Q 4331 128 3847 18 
Q 3363 -91 2847 -91 
Q 1681 -91 1000 561 
Q 319 1213 319 2328 
Q 319 3456 1012 4103 
Q 1706 4750 2913 4750 
Q 3378 4750 3804 4662 
Q 4231 4575 4609 4403 
L 4609 3438 
Q 4219 3659 3833 3768 
Q 3447 3878 3059 3878 
Q 2341 3878 1952 3476 
Q 1563 3075 1563 2328 
Q 1563 1588 1938 1184 
Q 2313 781 3003 781 
Q 3191 781 3352 804 
Q 3513 828 3641 878 
L 3641 1784 
L 2906 1784 
L 2906 2591 
L 4781 2591 
L 4781 347 
z
" transform="scale(0.015625)"/>
      <path id="DejaVuSans-Bold-41" d="M 3419 850 
L 1538 850 
L 1241 0 
L 31 0 
L 1759 4666 
L 3194 4666 
L 4922 0 
L 3713 0 
L 3419 850 
z
M 1838 1716 
L 3116 1716 
L 2478 3572 
L 1838 1716 
z
" transform="scale(0.015625)"/>
      <path id="DejaVuSans-Bold-50" d="M 588 4666 
L 2584 4666 
Q 3475 4666 3951 4270 
Q 4428 3875 4428 3144 
Q 4428 2409 3951 2014 
Q 3475 1619 2584 1619 
L 1791 1619 
L 1791 0 
L 588 0 
L 588 4666 
z
M 1791 3794 
L 1791 2491 
L 2456 2491 
Q 2806 2491 2997 2661 
Q 3188 2831 3188 3144 
Q 3188 3456 2997 3625 
Q 2806 3794 2456 3794 
L 1791 3794 
z
" transform="scale(0.015625)"/>
     </defs>
     <use xlink:href="#DejaVuSans-Bold-47"/>
     <use xlink:href="#DejaVuSans-Bold-41" x="82.080078"/>
     <use xlink:href="#DejaVuSans-Bold-50" x="159.472656"/>
    </g>
   </g>
   <g id="text_32">
    <!-- Target in motion -->
    <g style="opacity: 0.4" transform="translate(692.686806 73.309505) scale(0.16 -0.16)">
     <defs>
      <path id="DejaVuSans-Bold-54" d="M 31 4666 
L 4331 4666 
L 4331 3756 
L 2784 3756 
L 2784 0 
L 1581 0 
L 1581 3756 
L 31 3756 
L 31 4666 
z
" transform="scale(0.015625)"/>
     </defs>
     <use xlink:href="#DejaVuSans-Bold-54"/>
     <use xlink:href="#DejaVuSans-Bold-61" x="55.337891"/>
     <use xlink:href="#DejaVuSans-Bold-72" x="122.818359"/>
     <use xlink:href="#DejaVuSans-Bold-67" x="172.134766"/>
     <use xlink:href="#DejaVuSans-Bold-65" x="243.716797"/>
     <use xlink:href="#DejaVuSans-Bold-74" x="311.539062"/>
     <use xlink:href="#DejaVuSans-Bold-20" x="359.341797"/>
     <use xlink:href="#DejaVuSans-Bold-69" x="394.15625"/>
     <use xlink:href="#DejaVuSans-Bold-6e" x="428.433594"/>
     <use xlink:href="#DejaVuSans-Bold-20" x="499.625"/>
     <use xlink:href="#DejaVuSans-Bold-6d" x="534.439453"/>
     <use xlink:href="#DejaVuSans-Bold-6f" x="638.638672"/>
     <use xlink:href="#DejaVuSans-Bold-74" x="707.339844"/>
     <use xlink:href="#DejaVuSans-Bold-69" x="755.142578"/>
     <use xlink:href="#DejaVuSans-Bold-6f" x="789.419922"/>
     <use xlink:href="#DejaVuSans-Bold-6e" x="858.121094"/>
    </g>
   </g>
   <g id="text_33">
    <!-- The event marking the appearance of the target -->
    <g transform="translate(111.910407 259.397222) scale(0.123077 -0.123077)">
     <defs>
      <path id="DejaVuSans-Bold-76" d="M 97 3500 
L 1216 3500 
L 2088 1081 
L 2956 3500 
L 4078 3500 
L 2700 0 
L 1472 0 
L 97 3500 
z
" transform="scale(0.015625)"/>
      <path id="DejaVuSans-Bold-6b" d="M 538 4863 
L 1656 4863 
L 1656 2216 
L 2944 3500 
L 4244 3500 
L 2534 1894 
L 4378 0 
L 3022 0 
L 1656 1459 
L 1656 0 
L 538 0 
L 538 4863 
z
" transform="scale(0.015625)"/>
     </defs>
     <use xlink:href="#DejaVuSans-Bold-54"/>
     <use xlink:href="#DejaVuSans-Bold-68" x="68.212891"/>
     <use xlink:href="#DejaVuSans-Bold-65" x="139.404297"/>
     <use xlink:href="#DejaVuSans-Bold-20" x="207.226562"/>
     <use xlink:href="#DejaVuSans-Bold-65" x="242.041016"/>
     <use xlink:href="#DejaVuSans-Bold-76" x="309.863281"/>
     <use xlink:href="#DejaVuSans-Bold-65" x="375.048828"/>
     <use xlink:href="#DejaVuSans-Bold-6e" x="442.871094"/>
     <use xlink:href="#DejaVuSans-Bold-74" x="514.0625"/>
     <use xlink:href="#DejaVuSans-Bold-20" x="561.865234"/>
     <use xlink:href="#DejaVuSans-Bold-6d" x="596.679688"/>
     <use xlink:href="#DejaVuSans-Bold-61" x="700.878906"/>
     <use xlink:href="#DejaVuSans-Bold-72" x="768.359375"/>
     <use xlink:href="#DejaVuSans-Bold-6b" x="817.675781"/>
     <use xlink:href="#DejaVuSans-Bold-69" x="884.179688"/>
     <use xlink:href="#DejaVuSans-Bold-6e" x="918.457031"/>
     <use xlink:href="#DejaVuSans-Bold-67" x="989.648438"/>
     <use xlink:href="#DejaVuSans-Bold-20" x="1061.230469"/>
     <use xlink:href="#DejaVuSans-Bold-74" x="1096.044922"/>
     <use xlink:href="#DejaVuSans-Bold-68" x="1143.847656"/>
     <use xlink:href="#DejaVuSans-Bold-65" x="1215.039062"/>
     <use xlink:href="#DejaVuSans-Bold-20" x="1282.861328"/>
     <use xlink:href="#DejaVuSans-Bold-61" x="1317.675781"/>
     <use xlink:href="#DejaVuSans-Bold-70" x="1385.15625"/>
     <use xlink:href="#DejaVuSans-Bold-70" x="1456.738281"/>
     <use xlink:href="#DejaVuSans-Bold-65" x="1528.320312"/>
     <use xlink:href="#DejaVuSans-Bold-61" x="1596.142578"/>
     <use xlink:href="#DejaVuSans-Bold-72" x="1663.623047"/>
     <use xlink:href="#DejaVuSans-Bold-61" x="1712.939453"/>
     <use xlink:href="#DejaVuSans-Bold-6e" x="1780.419922"/>
     <use xlink:href="#DejaVuSans-Bold-63" x="1851.611328"/>
     <use xlink:href="#DejaVuSans-Bold-65" x="1910.888672"/>
     <use xlink:href="#DejaVuSans-Bold-20" x="1978.710938"/>
     <use xlink:href="#DejaVuSans-Bold-6f" x="2013.525391"/>
     <use xlink:href="#DejaVuSans-Bold-66" x="2082.226562"/>
     <use xlink:href="#DejaVuSans-Bold-20" x="2125.732422"/>
     <use xlink:href="#DejaVuSans-Bold-74" x="2160.546875"/>
     <use xlink:href="#DejaVuSans-Bold-68" x="2208.349609"/>
     <use xlink:href="#DejaVuSans-Bold-65" x="2279.541016"/>
     <use xlink:href="#DejaVuSans-Bold-20" x="2347.363281"/>
     <use xlink:href="#DejaVuSans-Bold-74" x="2382.177734"/>
     <use xlink:href="#DejaVuSans-Bold-61" x="2429.980469"/>
     <use xlink:href="#DejaVuSans-Bold-72" x="2497.460938"/>
     <use xlink:href="#DejaVuSans-Bold-67" x="2546.777344"/>
     <use xlink:href="#DejaVuSans-Bold-65" x="2618.359375"/>
     <use xlink:href="#DejaVuSans-Bold-74" x="2686.181641"/>
    </g>
   </g>
   <g id="text_34">
    <!-- eventName_TargetOn -->
    <g transform="translate(332.808868 277.259049) scale(0.106667 -0.106667)">
     <defs>
      <path id="DejaVuSansMono-76" d="M 313 3500 
L 909 3500 
L 1925 563 
L 2944 3500 
L 3541 3500 
L 2297 0 
L 1556 0 
L 313 3500 
z
" transform="scale(0.015625)"/>
      <path id="DejaVuSansMono-4e" d="M 434 4666 
L 1234 4666 
L 2809 825 
L 2809 4666 
L 3419 4666 
L 3419 0 
L 2619 0 
L 1044 3841 
L 1044 0 
L 434 0 
L 434 4666 
z
" transform="scale(0.015625)"/>
      <path id="DejaVuSansMono-6d" d="M 2113 3144 
Q 2219 3369 2383 3476 
Q 2547 3584 2778 3584 
Q 3200 3584 3373 3257 
Q 3547 2931 3547 2028 
L 3547 0 
L 3022 0 
L 3022 2003 
Q 3022 2744 2939 2923 
Q 2856 3103 2638 3103 
Q 2388 3103 2295 2911 
Q 2203 2719 2203 2003 
L 2203 0 
L 1678 0 
L 1678 2003 
Q 1678 2753 1589 2928 
Q 1500 3103 1269 3103 
Q 1041 3103 952 2911 
Q 863 2719 863 2003 
L 863 0 
L 341 0 
L 341 3500 
L 863 3500 
L 863 3200 
Q 966 3388 1120 3486 
Q 1275 3584 1472 3584 
Q 1709 3584 1867 3475 
Q 2025 3366 2113 3144 
z
" transform="scale(0.015625)"/>
      <path id="DejaVuSansMono-54" d="M 147 4666 
L 3706 4666 
L 3706 4134 
L 2247 4134 
L 2247 0 
L 1613 0 
L 1613 4134 
L 147 4134 
L 147 4666 
z
" transform="scale(0.015625)"/>
      <path id="DejaVuSansMono-67" d="M 2681 1778 
Q 2681 2425 2470 2761 
Q 2259 3097 1856 3097 
Q 1434 3097 1212 2761 
Q 991 2425 991 1778 
Q 991 1131 1214 792 
Q 1438 453 1863 453 
Q 2259 453 2470 793 
Q 2681 1134 2681 1778 
z
M 3256 225 
Q 3256 -563 2884 -969 
Q 2513 -1375 1791 -1375 
Q 1553 -1375 1293 -1331 
Q 1034 -1288 775 -1203 
L 775 -634 
Q 1081 -778 1331 -847 
Q 1581 -916 1791 -916 
Q 2256 -916 2468 -662 
Q 2681 -409 2681 141 
L 2681 166 
L 2681 556 
Q 2544 263 2306 119 
Q 2069 -25 1728 -25 
Q 1116 -25 750 465 
Q 384 956 384 1778 
Q 384 2603 750 3093 
Q 1116 3584 1728 3584 
Q 2066 3584 2300 3450 
Q 2534 3316 2681 3034 
L 2681 3488 
L 3256 3488 
L 3256 225 
z
" transform="scale(0.015625)"/>
      <path id="DejaVuSansMono-4f" d="M 2828 2328 
Q 2828 3356 2617 3797 
Q 2406 4238 1925 4238 
Q 1447 4238 1236 3797 
Q 1025 3356 1025 2328 
Q 1025 1303 1236 862 
Q 1447 422 1925 422 
Q 2406 422 2617 861 
Q 2828 1300 2828 2328 
z
M 3488 2328 
Q 3488 1109 3102 509 
Q 2716 -91 1925 -91 
Q 1134 -91 750 506 
Q 366 1103 366 2328 
Q 366 3550 752 4150 
Q 1138 4750 1925 4750 
Q 2716 4750 3102 4150 
Q 3488 3550 3488 2328 
z
" transform="scale(0.015625)"/>
     </defs>
     <use xlink:href="#DejaVuSansMono-65"/>
     <use xlink:href="#DejaVuSansMono-76" x="60.205078"/>
     <use xlink:href="#DejaVuSansMono-65" x="120.410156"/>
     <use xlink:href="#DejaVuSansMono-6e" x="180.615234"/>
     <use xlink:href="#DejaVuSansMono-74" x="240.820312"/>
     <use xlink:href="#DejaVuSansMono-4e" x="301.025391"/>
     <use xlink:href="#DejaVuSansMono-61" x="361.230469"/>
     <use xlink:href="#DejaVuSansMono-6d" x="421.435547"/>
     <use xlink:href="#DejaVuSansMono-65" x="481.640625"/>
     <use xlink:href="#DejaVuSansMono-5f" x="541.845703"/>
     <use xlink:href="#DejaVuSansMono-54" x="602.050781"/>
     <use xlink:href="#DejaVuSansMono-61" x="662.255859"/>
     <use xlink:href="#DejaVuSansMono-72" x="722.460938"/>
     <use xlink:href="#DejaVuSansMono-67" x="782.666016"/>
     <use xlink:href="#DejaVuSansMono-65" x="842.871094"/>
     <use xlink:href="#DejaVuSansMono-74" x="903.076172"/>
     <use xlink:href="#DejaVuSansMono-4f" x="963.28125"/>
     <use xlink:href="#DejaVuSansMono-6e" x="1023.486328"/>
    </g>
   </g>
   <g id="patch_17">
    <path d="M 450.399287 256.049145 
Q 462.900778 256.049145 474.284235 256.049145 
" style="fill: none; stroke: #000000; stroke-linecap: round"/>
    <path d="M 469.361158 253.587606 
L 474.284235 256.049145 
L 469.361158 258.510683 
" style="fill: none; stroke: #000000; stroke-linecap: round"/>
   </g>
   <g id="text_35">
    <!-- Latency -->
    <g transform="translate(510.448088 31.026388) scale(0.25 -0.25)">
     <defs>
      <path id="DejaVuSans-4c" d="M 628 4666 
L 1259 4666 
L 1259 531 
L 3531 531 
L 3531 0 
L 628 0 
L 628 4666 
z
" transform="scale(0.015625)"/>
      <path id="DejaVuSans-61" d="M 2194 1759 
Q 1497 1759 1228 1600 
Q 959 1441 959 1056 
Q 959 750 1161 570 
Q 1363 391 1709 391 
Q 2188 391 2477 730 
Q 2766 1069 2766 1631 
L 2766 1759 
L 2194 1759 
z
M 3341 1997 
L 3341 0 
L 2766 0 
L 2766 531 
Q 2569 213 2275 61 
Q 1981 -91 1556 -91 
Q 1019 -91 701 211 
Q 384 513 384 1019 
Q 384 1609 779 1909 
Q 1175 2209 1959 2209 
L 2766 2209 
L 2766 2266 
Q 2766 2663 2505 2880 
Q 2244 3097 1772 3097 
Q 1472 3097 1187 3025 
Q 903 2953 641 2809 
L 641 3341 
Q 956 3463 1253 3523 
Q 1550 3584 1831 3584 
Q 2591 3584 2966 3190 
Q 3341 2797 3341 1997 
z
" transform="scale(0.015625)"/>
      <path id="DejaVuSans-6e" d="M 3513 2113 
L 3513 0 
L 2938 0 
L 2938 2094 
Q 2938 2591 2744 2837 
Q 2550 3084 2163 3084 
Q 1697 3084 1428 2787 
Q 1159 2491 1159 1978 
L 1159 0 
L 581 0 
L 581 3500 
L 1159 3500 
L 1159 2956 
Q 1366 3272 1645 3428 
Q 1925 3584 2291 3584 
Q 2894 3584 3203 3211 
Q 3513 2838 3513 2113 
z
" transform="scale(0.015625)"/>
     </defs>
     <use xlink:href="#DejaVuSans-4c"/>
     <use xlink:href="#DejaVuSans-61" x="55.712891"/>
     <use xlink:href="#DejaVuSans-74" x="116.992188"/>
     <use xlink:href="#DejaVuSans-65" x="156.201172"/>
     <use xlink:href="#DejaVuSans-6e" x="217.724609"/>
     <use xlink:href="#DejaVuSans-63" x="281.103516"/>
     <use xlink:href="#DejaVuSans-79" x="336.083984"/>
    </g>
   </g>
  </g>
 </g>
 <defs>
  <clipPath id="pf98a968744">
   <rect x="53.12" y="49.089197" width="1013.476488" height="241.256168"/>
  </clipPath>
 </defs>
</svg>
