<?xml version="1.0" encoding="utf-8" standalone="no"?>
<!DOCTYPE svg PUBLIC "-//W3C//DTD SVG 1.1//EN"
  "http://www.w3.org/Graphics/SVG/1.1/DTD/svg11.dtd">
<svg xmlns:xlink="http://www.w3.org/1999/xlink" width="1080pt" height="333.745365pt" viewBox="0 0 1080 333.745365" xmlns="http://www.w3.org/2000/svg" version="1.1">
 <metadata>
  <rdf:RDF xmlns:dc="http://purl.org/dc/elements/1.1/" xmlns:cc="http://creativecommons.org/ns#" xmlns:rdf="http://www.w3.org/1999/02/22-rdf-syntax-ns#">
   <cc:Work>
    <dc:type rdf:resource="http://purl.org/dc/dcmitype/StillImage"/>
    <dc:date>2023-03-22T14:48:50.543409</dc:date>
    <dc:format>image/svg+xml</dc:format>
    <dc:creator>
     <cc:Agent>
      <dc:title>Matplotlib v3.6.2, https://matplotlib.org/</dc:title>
     </cc:Agent>
    </dc:creator>
   </cc:Work>
  </rdf:RDF>
 </metadata>
 <defs>
  <style type="text/css">*{stroke-linejoin: round; stroke-linecap: butt}</style>
 </defs>
 <g id="figure_1">
  <g id="patch_1">
   <path d="M 0 333.745365 
L 1080 333.745365 
L 1080 0 
L 0 0 
z
" style="fill: #ffffff"/>
  </g>
  <g id="axes_1">
   <g id="patch_2">
    <path d="M 53.12 290.345365 
L 1065.82026 290.345365 
L 1065.82026 49.089197 
L 53.12 49.089197 
z
" style="fill: #ffffff"/>
   </g>
   <g id="patch_3">
    <path d="M 808.302023 283.643804 
L 973.913931 283.643804 
L 973.913931 49.089197 
L 808.302023 49.089197 
z
" clip-path="url(#pc4ee96119e)" style="fill: #006400; opacity: 0.2"/>
   </g>
   <g id="patch_4">
    <path d="M 63.048434 283.643804 
L 228.660343 283.643804 
L 228.660343 49.089197 
L 63.048434 49.089197 
z
" clip-path="url(#pc4ee96119e)" style="opacity: 0.1"/>
   </g>
   <g id="patch_5">
    <path d="M 228.660343 283.643804 
L 477.078205 283.643804 
L 477.078205 49.089197 
L 228.660343 49.089197 
z
" clip-path="url(#pc4ee96119e)" style="opacity: 0.2"/>
   </g>
   <g id="patch_6">
    <path d="M 477.078205 283.643804 
L 1055.891826 283.643804 
L 1055.891826 49.089197 
L 477.078205 49.089197 
z
" clip-path="url(#pc4ee96119e)" style="opacity: 0.1"/>
   </g>
   <g id="matplotlib.axis_1">
    <g id="xtick_1">
     <g id="line2d_1">
      <defs>
       <path id="m908edde571" d="M 0 0 
L 0 3.5 
" style="stroke: #000000; stroke-width: 0.8"/>
      </defs>
      <g>
       <use xlink:href="#m908edde571" x="63.048434" y="290.345365" style="stroke: #000000; stroke-width: 0.8"/>
      </g>
     </g>
     <g id="text_1">
      <!-- 0 -->
      <g transform="translate(60.503434 303.424115) scale(0.08 -0.08)">
       <defs>
        <path id="DejaVuSans-30" d="M 2034 4250 
Q 1547 4250 1301 3770 
Q 1056 3291 1056 2328 
Q 1056 1369 1301 889 
Q 1547 409 2034 409 
Q 2525 409 2770 889 
Q 3016 1369 3016 2328 
Q 3016 3291 2770 3770 
Q 2525 4250 2034 4250 
z
M 2034 4750 
Q 2819 4750 3233 4129 
Q 3647 3509 3647 2328 
Q 3647 1150 3233 529 
Q 2819 -91 2034 -91 
Q 1250 -91 836 529 
Q 422 1150 422 2328 
Q 422 3509 836 4129 
Q 1250 4750 2034 4750 
z
" transform="scale(0.015625)"/>
       </defs>
       <use xlink:href="#DejaVuSans-30"/>
      </g>
     </g>
    </g>
    <g id="xtick_2">
     <g id="line2d_2">
      <g>
       <use xlink:href="#m908edde571" x="228.660343" y="290.345365" style="stroke: #000000; stroke-width: 0.8"/>
      </g>
     </g>
     <g id="text_2">
      <!-- 200 -->
      <g transform="translate(221.025343 303.424115) scale(0.08 -0.08)">
       <defs>
        <path id="DejaVuSans-32" d="M 1228 531 
L 3431 531 
L 3431 0 
L 469 0 
L 469 531 
Q 828 903 1448 1529 
Q 2069 2156 2228 2338 
Q 2531 2678 2651 2914 
Q 2772 3150 2772 3378 
Q 2772 3750 2511 3984 
Q 2250 4219 1831 4219 
Q 1534 4219 1204 4116 
Q 875 4013 500 3803 
L 500 4441 
Q 881 4594 1212 4672 
Q 1544 4750 1819 4750 
Q 2544 4750 2975 4387 
Q 3406 4025 3406 3419 
Q 3406 3131 3298 2873 
Q 3191 2616 2906 2266 
Q 2828 2175 2409 1742 
Q 1991 1309 1228 531 
z
" transform="scale(0.015625)"/>
       </defs>
       <use xlink:href="#DejaVuSans-32"/>
       <use xlink:href="#DejaVuSans-30" x="63.623047"/>
       <use xlink:href="#DejaVuSans-30" x="127.246094"/>
      </g>
     </g>
    </g>
    <g id="xtick_3">
     <g id="line2d_3">
      <g>
       <use xlink:href="#m908edde571" x="394.272251" y="290.345365" style="stroke: #000000; stroke-width: 0.8"/>
      </g>
     </g>
     <g id="text_3">
      <!-- 400 -->
      <g transform="translate(386.637251 303.424115) scale(0.08 -0.08)">
       <defs>
        <path id="DejaVuSans-34" d="M 2419 4116 
L 825 1625 
L 2419 1625 
L 2419 4116 
z
M 2253 4666 
L 3047 4666 
L 3047 1625 
L 3713 1625 
L 3713 1100 
L 3047 1100 
L 3047 0 
L 2419 0 
L 2419 1100 
L 313 1100 
L 313 1709 
L 2253 4666 
z
" transform="scale(0.015625)"/>
       </defs>
       <use xlink:href="#DejaVuSans-34"/>
       <use xlink:href="#DejaVuSans-30" x="63.623047"/>
       <use xlink:href="#DejaVuSans-30" x="127.246094"/>
      </g>
     </g>
    </g>
    <g id="xtick_4">
     <g id="line2d_4">
      <g>
       <use xlink:href="#m908edde571" x="559.88416" y="290.345365" style="stroke: #000000; stroke-width: 0.8"/>
      </g>
     </g>
     <g id="text_4">
      <!-- 600 -->
      <g transform="translate(552.24916 303.424115) scale(0.08 -0.08)">
       <defs>
        <path id="DejaVuSans-36" d="M 2113 2584 
Q 1688 2584 1439 2293 
Q 1191 2003 1191 1497 
Q 1191 994 1439 701 
Q 1688 409 2113 409 
Q 2538 409 2786 701 
Q 3034 994 3034 1497 
Q 3034 2003 2786 2293 
Q 2538 2584 2113 2584 
z
M 3366 4563 
L 3366 3988 
Q 3128 4100 2886 4159 
Q 2644 4219 2406 4219 
Q 1781 4219 1451 3797 
Q 1122 3375 1075 2522 
Q 1259 2794 1537 2939 
Q 1816 3084 2150 3084 
Q 2853 3084 3261 2657 
Q 3669 2231 3669 1497 
Q 3669 778 3244 343 
Q 2819 -91 2113 -91 
Q 1303 -91 875 529 
Q 447 1150 447 2328 
Q 447 3434 972 4092 
Q 1497 4750 2381 4750 
Q 2619 4750 2861 4703 
Q 3103 4656 3366 4563 
z
" transform="scale(0.015625)"/>
       </defs>
       <use xlink:href="#DejaVuSans-36"/>
       <use xlink:href="#DejaVuSans-30" x="63.623047"/>
       <use xlink:href="#DejaVuSans-30" x="127.246094"/>
      </g>
     </g>
    </g>
    <g id="xtick_5">
     <g id="line2d_5">
      <g>
       <use xlink:href="#m908edde571" x="725.496068" y="290.345365" style="stroke: #000000; stroke-width: 0.8"/>
      </g>
     </g>
     <g id="text_5">
      <!-- 800 -->
      <g transform="translate(717.861068 303.424115) scale(0.08 -0.08)">
       <defs>
        <path id="DejaVuSans-38" d="M 2034 2216 
Q 1584 2216 1326 1975 
Q 1069 1734 1069 1313 
Q 1069 891 1326 650 
Q 1584 409 2034 409 
Q 2484 409 2743 651 
Q 3003 894 3003 1313 
Q 3003 1734 2745 1975 
Q 2488 2216 2034 2216 
z
M 1403 2484 
Q 997 2584 770 2862 
Q 544 3141 544 3541 
Q 544 4100 942 4425 
Q 1341 4750 2034 4750 
Q 2731 4750 3128 4425 
Q 3525 4100 3525 3541 
Q 3525 3141 3298 2862 
Q 3072 2584 2669 2484 
Q 3125 2378 3379 2068 
Q 3634 1759 3634 1313 
Q 3634 634 3220 271 
Q 2806 -91 2034 -91 
Q 1263 -91 848 271 
Q 434 634 434 1313 
Q 434 1759 690 2068 
Q 947 2378 1403 2484 
z
M 1172 3481 
Q 1172 3119 1398 2916 
Q 1625 2713 2034 2713 
Q 2441 2713 2670 2916 
Q 2900 3119 2900 3481 
Q 2900 3844 2670 4047 
Q 2441 4250 2034 4250 
Q 1625 4250 1398 4047 
Q 1172 3844 1172 3481 
z
" transform="scale(0.015625)"/>
       </defs>
       <use xlink:href="#DejaVuSans-38"/>
       <use xlink:href="#DejaVuSans-30" x="63.623047"/>
       <use xlink:href="#DejaVuSans-30" x="127.246094"/>
      </g>
     </g>
    </g>
    <g id="xtick_6">
     <g id="line2d_6">
      <g>
       <use xlink:href="#m908edde571" x="891.107977" y="290.345365" style="stroke: #000000; stroke-width: 0.8"/>
      </g>
     </g>
     <g id="text_6">
      <!-- 1000 -->
      <g transform="translate(880.927977 303.424115) scale(0.08 -0.08)">
       <defs>
        <path id="DejaVuSans-31" d="M 794 531 
L 1825 531 
L 1825 4091 
L 703 3866 
L 703 4441 
L 1819 4666 
L 2450 4666 
L 2450 531 
L 3481 531 
L 3481 0 
L 794 0 
L 794 531 
z
" transform="scale(0.015625)"/>
       </defs>
       <use xlink:href="#DejaVuSans-31"/>
       <use xlink:href="#DejaVuSans-30" x="63.623047"/>
       <use xlink:href="#DejaVuSans-30" x="127.246094"/>
       <use xlink:href="#DejaVuSans-30" x="190.869141"/>
      </g>
     </g>
    </g>
    <g id="xtick_7">
     <g id="line2d_7">
      <g>
       <use xlink:href="#m908edde571" x="1056.719886" y="290.345365" style="stroke: #000000; stroke-width: 0.8"/>
      </g>
     </g>
     <g id="text_7">
      <!-- 1200 -->
      <g transform="translate(1046.539886 303.424115) scale(0.08 -0.08)">
       <use xlink:href="#DejaVuSans-31"/>
       <use xlink:href="#DejaVuSans-32" x="63.623047"/>
       <use xlink:href="#DejaVuSans-30" x="127.246094"/>
       <use xlink:href="#DejaVuSans-30" x="190.869141"/>
      </g>
     </g>
    </g>
    <g id="text_8">
     <!-- Time (ms) -->
     <g transform="translate(519.15138 321.245365) scale(0.16 -0.16)">
      <defs>
       <path id="DejaVuSans-54" d="M -19 4666 
L 3928 4666 
L 3928 4134 
L 2272 4134 
L 2272 0 
L 1638 0 
L 1638 4134 
L -19 4134 
L -19 4666 
z
" transform="scale(0.015625)"/>
       <path id="DejaVuSans-69" d="M 603 3500 
L 1178 3500 
L 1178 0 
L 603 0 
L 603 3500 
z
M 603 4863 
L 1178 4863 
L 1178 4134 
L 603 4134 
L 603 4863 
z
" transform="scale(0.015625)"/>
       <path id="DejaVuSans-6d" d="M 3328 2828 
Q 3544 3216 3844 3400 
Q 4144 3584 4550 3584 
Q 5097 3584 5394 3201 
Q 5691 2819 5691 2113 
L 5691 0 
L 5113 0 
L 5113 2094 
Q 5113 2597 4934 2840 
Q 4756 3084 4391 3084 
Q 3944 3084 3684 2787 
Q 3425 2491 3425 1978 
L 3425 0 
L 2847 0 
L 2847 2094 
Q 2847 2600 2669 2842 
Q 2491 3084 2119 3084 
Q 1678 3084 1418 2786 
Q 1159 2488 1159 1978 
L 1159 0 
L 581 0 
L 581 3500 
L 1159 3500 
L 1159 2956 
Q 1356 3278 1631 3431 
Q 1906 3584 2284 3584 
Q 2666 3584 2933 3390 
Q 3200 3197 3328 2828 
z
" transform="scale(0.015625)"/>
       <path id="DejaVuSans-65" d="M 3597 1894 
L 3597 1613 
L 953 1613 
Q 991 1019 1311 708 
Q 1631 397 2203 397 
Q 2534 397 2845 478 
Q 3156 559 3463 722 
L 3463 178 
Q 3153 47 2828 -22 
Q 2503 -91 2169 -91 
Q 1331 -91 842 396 
Q 353 884 353 1716 
Q 353 2575 817 3079 
Q 1281 3584 2069 3584 
Q 2775 3584 3186 3129 
Q 3597 2675 3597 1894 
z
M 3022 2063 
Q 3016 2534 2758 2815 
Q 2500 3097 2075 3097 
Q 1594 3097 1305 2825 
Q 1016 2553 972 2059 
L 3022 2063 
z
" transform="scale(0.015625)"/>
       <path id="DejaVuSans-20" transform="scale(0.015625)"/>
       <path id="DejaVuSans-28" d="M 1984 4856 
Q 1566 4138 1362 3434 
Q 1159 2731 1159 2009 
Q 1159 1288 1364 580 
Q 1569 -128 1984 -844 
L 1484 -844 
Q 1016 -109 783 600 
Q 550 1309 550 2009 
Q 550 2706 781 3412 
Q 1013 4119 1484 4856 
L 1984 4856 
z
" transform="scale(0.015625)"/>
       <path id="DejaVuSans-73" d="M 2834 3397 
L 2834 2853 
Q 2591 2978 2328 3040 
Q 2066 3103 1784 3103 
Q 1356 3103 1142 2972 
Q 928 2841 928 2578 
Q 928 2378 1081 2264 
Q 1234 2150 1697 2047 
L 1894 2003 
Q 2506 1872 2764 1633 
Q 3022 1394 3022 966 
Q 3022 478 2636 193 
Q 2250 -91 1575 -91 
Q 1294 -91 989 -36 
Q 684 19 347 128 
L 347 722 
Q 666 556 975 473 
Q 1284 391 1588 391 
Q 1994 391 2212 530 
Q 2431 669 2431 922 
Q 2431 1156 2273 1281 
Q 2116 1406 1581 1522 
L 1381 1569 
Q 847 1681 609 1914 
Q 372 2147 372 2553 
Q 372 3047 722 3315 
Q 1072 3584 1716 3584 
Q 2034 3584 2315 3537 
Q 2597 3491 2834 3397 
z
" transform="scale(0.015625)"/>
       <path id="DejaVuSans-29" d="M 513 4856 
L 1013 4856 
Q 1481 4119 1714 3412 
Q 1947 2706 1947 2009 
Q 1947 1309 1714 600 
Q 1481 -109 1013 -844 
L 513 -844 
Q 928 -128 1133 580 
Q 1338 1288 1338 2009 
Q 1338 2731 1133 3434 
Q 928 4138 513 4856 
z
" transform="scale(0.015625)"/>
      </defs>
      <use xlink:href="#DejaVuSans-54"/>
      <use xlink:href="#DejaVuSans-69" x="57.958984"/>
      <use xlink:href="#DejaVuSans-6d" x="85.742188"/>
      <use xlink:href="#DejaVuSans-65" x="183.154297"/>
      <use xlink:href="#DejaVuSans-20" x="244.677734"/>
      <use xlink:href="#DejaVuSans-28" x="276.464844"/>
      <use xlink:href="#DejaVuSans-6d" x="315.478516"/>
      <use xlink:href="#DejaVuSans-73" x="412.890625"/>
      <use xlink:href="#DejaVuSans-29" x="464.990234"/>
     </g>
    </g>
   </g>
   <g id="matplotlib.axis_2">
    <g id="ytick_1">
     <g id="line2d_8">
      <defs>
       <path id="m235a8bb82e" d="M 0 0 
L -3.5 0 
" style="stroke: #000000; stroke-width: 0.8"/>
      </defs>
      <g>
       <use xlink:href="#m235a8bb82e" x="53.12" y="283.643804" style="stroke: #000000; stroke-width: 0.8"/>
      </g>
     </g>
     <g id="text_9">
      <!-- −20 -->
      <g transform="translate(29.23625 286.683179) scale(0.08 -0.08)">
       <defs>
        <path id="DejaVuSans-2212" d="M 678 2272 
L 4684 2272 
L 4684 1741 
L 678 1741 
L 678 2272 
z
" transform="scale(0.015625)"/>
       </defs>
       <use xlink:href="#DejaVuSans-2212"/>
       <use xlink:href="#DejaVuSans-32" x="83.789062"/>
       <use xlink:href="#DejaVuSans-30" x="147.412109"/>
      </g>
     </g>
    </g>
    <g id="ytick_2">
     <g id="line2d_9">
      <g>
       <use xlink:href="#m235a8bb82e" x="53.12" y="250.136003" style="stroke: #000000; stroke-width: 0.8"/>
      </g>
     </g>
     <g id="text_10">
      <!-- −10 -->
      <g transform="translate(29.23625 253.175378) scale(0.08 -0.08)">
       <use xlink:href="#DejaVuSans-2212"/>
       <use xlink:href="#DejaVuSans-31" x="83.789062"/>
       <use xlink:href="#DejaVuSans-30" x="147.412109"/>
      </g>
     </g>
    </g>
    <g id="ytick_3">
     <g id="line2d_10">
      <g>
       <use xlink:href="#m235a8bb82e" x="53.12" y="216.628202" style="stroke: #000000; stroke-width: 0.8"/>
      </g>
     </g>
     <g id="text_11">
      <!-- 0 -->
      <g transform="translate(41.03 219.667577) scale(0.08 -0.08)">
       <use xlink:href="#DejaVuSans-30"/>
      </g>
     </g>
    </g>
    <g id="ytick_4">
     <g id="line2d_11">
      <g>
       <use xlink:href="#m235a8bb82e" x="53.12" y="183.120401" style="stroke: #000000; stroke-width: 0.8"/>
      </g>
     </g>
     <g id="text_12">
      <!-- 10 -->
      <g transform="translate(35.94 186.159776) scale(0.08 -0.08)">
       <use xlink:href="#DejaVuSans-31"/>
       <use xlink:href="#DejaVuSans-30" x="63.623047"/>
      </g>
     </g>
    </g>
    <g id="ytick_5">
     <g id="line2d_12">
      <g>
       <use xlink:href="#m235a8bb82e" x="53.12" y="149.6126" style="stroke: #000000; stroke-width: 0.8"/>
      </g>
     </g>
     <g id="text_13">
      <!-- 20 -->
      <g transform="translate(35.94 152.651975) scale(0.08 -0.08)">
       <use xlink:href="#DejaVuSans-32"/>
       <use xlink:href="#DejaVuSans-30" x="63.623047"/>
      </g>
     </g>
    </g>
    <g id="ytick_6">
     <g id="line2d_13">
      <g>
       <use xlink:href="#m235a8bb82e" x="53.12" y="116.104799" style="stroke: #000000; stroke-width: 0.8"/>
      </g>
     </g>
     <g id="text_14">
      <!-- 30 -->
      <g transform="translate(35.94 119.144174) scale(0.08 -0.08)">
       <defs>
        <path id="DejaVuSans-33" d="M 2597 2516 
Q 3050 2419 3304 2112 
Q 3559 1806 3559 1356 
Q 3559 666 3084 287 
Q 2609 -91 1734 -91 
Q 1441 -91 1130 -33 
Q 819 25 488 141 
L 488 750 
Q 750 597 1062 519 
Q 1375 441 1716 441 
Q 2309 441 2620 675 
Q 2931 909 2931 1356 
Q 2931 1769 2642 2001 
Q 2353 2234 1838 2234 
L 1294 2234 
L 1294 2753 
L 1863 2753 
Q 2328 2753 2575 2939 
Q 2822 3125 2822 3475 
Q 2822 3834 2567 4026 
Q 2313 4219 1838 4219 
Q 1578 4219 1281 4162 
Q 984 4106 628 3988 
L 628 4550 
Q 988 4650 1302 4700 
Q 1616 4750 1894 4750 
Q 2613 4750 3031 4423 
Q 3450 4097 3450 3541 
Q 3450 3153 3228 2886 
Q 3006 2619 2597 2516 
z
" transform="scale(0.015625)"/>
       </defs>
       <use xlink:href="#DejaVuSans-33"/>
       <use xlink:href="#DejaVuSans-30" x="63.623047"/>
      </g>
     </g>
    </g>
    <g id="text_15">
     <!-- Velocity (°/s) -->
     <g transform="translate(21.90875 220.749781) rotate(-90) scale(0.16 -0.16)">
      <defs>
       <path id="DejaVuSans-56" d="M 1831 0 
L 50 4666 
L 709 4666 
L 2188 738 
L 3669 4666 
L 4325 4666 
L 2547 0 
L 1831 0 
z
" transform="scale(0.015625)"/>
       <path id="DejaVuSans-6c" d="M 603 4863 
L 1178 4863 
L 1178 0 
L 603 0 
L 603 4863 
z
" transform="scale(0.015625)"/>
       <path id="DejaVuSans-6f" d="M 1959 3097 
Q 1497 3097 1228 2736 
Q 959 2375 959 1747 
Q 959 1119 1226 758 
Q 1494 397 1959 397 
Q 2419 397 2687 759 
Q 2956 1122 2956 1747 
Q 2956 2369 2687 2733 
Q 2419 3097 1959 3097 
z
M 1959 3584 
Q 2709 3584 3137 3096 
Q 3566 2609 3566 1747 
Q 3566 888 3137 398 
Q 2709 -91 1959 -91 
Q 1206 -91 779 398 
Q 353 888 353 1747 
Q 353 2609 779 3096 
Q 1206 3584 1959 3584 
z
" transform="scale(0.015625)"/>
       <path id="DejaVuSans-63" d="M 3122 3366 
L 3122 2828 
Q 2878 2963 2633 3030 
Q 2388 3097 2138 3097 
Q 1578 3097 1268 2742 
Q 959 2388 959 1747 
Q 959 1106 1268 751 
Q 1578 397 2138 397 
Q 2388 397 2633 464 
Q 2878 531 3122 666 
L 3122 134 
Q 2881 22 2623 -34 
Q 2366 -91 2075 -91 
Q 1284 -91 818 406 
Q 353 903 353 1747 
Q 353 2603 823 3093 
Q 1294 3584 2113 3584 
Q 2378 3584 2631 3529 
Q 2884 3475 3122 3366 
z
" transform="scale(0.015625)"/>
       <path id="DejaVuSans-74" d="M 1172 4494 
L 1172 3500 
L 2356 3500 
L 2356 3053 
L 1172 3053 
L 1172 1153 
Q 1172 725 1289 603 
Q 1406 481 1766 481 
L 2356 481 
L 2356 0 
L 1766 0 
Q 1100 0 847 248 
Q 594 497 594 1153 
L 594 3053 
L 172 3053 
L 172 3500 
L 594 3500 
L 594 4494 
L 1172 4494 
z
" transform="scale(0.015625)"/>
       <path id="DejaVuSans-79" d="M 2059 -325 
Q 1816 -950 1584 -1140 
Q 1353 -1331 966 -1331 
L 506 -1331 
L 506 -850 
L 844 -850 
Q 1081 -850 1212 -737 
Q 1344 -625 1503 -206 
L 1606 56 
L 191 3500 
L 800 3500 
L 1894 763 
L 2988 3500 
L 3597 3500 
L 2059 -325 
z
" transform="scale(0.015625)"/>
       <path id="DejaVuSans-b0" d="M 1600 4347 
Q 1350 4347 1178 4173 
Q 1006 4000 1006 3750 
Q 1006 3503 1178 3333 
Q 1350 3163 1600 3163 
Q 1850 3163 2022 3333 
Q 2194 3503 2194 3750 
Q 2194 3997 2020 4172 
Q 1847 4347 1600 4347 
z
M 1600 4750 
Q 1800 4750 1984 4673 
Q 2169 4597 2303 4453 
Q 2447 4313 2519 4134 
Q 2591 3956 2591 3750 
Q 2591 3338 2302 3052 
Q 2013 2766 1594 2766 
Q 1172 2766 890 3047 
Q 609 3328 609 3750 
Q 609 4169 896 4459 
Q 1184 4750 1600 4750 
z
" transform="scale(0.015625)"/>
       <path id="DejaVuSans-2f" d="M 1625 4666 
L 2156 4666 
L 531 -594 
L 0 -594 
L 1625 4666 
z
" transform="scale(0.015625)"/>
      </defs>
      <use xlink:href="#DejaVuSans-56"/>
      <use xlink:href="#DejaVuSans-65" x="60.658203"/>
      <use xlink:href="#DejaVuSans-6c" x="122.181641"/>
      <use xlink:href="#DejaVuSans-6f" x="149.964844"/>
      <use xlink:href="#DejaVuSans-63" x="211.146484"/>
      <use xlink:href="#DejaVuSans-69" x="266.126953"/>
      <use xlink:href="#DejaVuSans-74" x="293.910156"/>
      <use xlink:href="#DejaVuSans-79" x="333.119141"/>
      <use xlink:href="#DejaVuSans-20" x="392.298828"/>
      <use xlink:href="#DejaVuSans-28" x="424.085938"/>
      <use xlink:href="#DejaVuSans-b0" x="463.099609"/>
      <use xlink:href="#DejaVuSans-2f" x="513.099609"/>
      <use xlink:href="#DejaVuSans-73" x="546.791016"/>
      <use xlink:href="#DejaVuSans-29" x="598.890625"/>
     </g>
    </g>
   </g>
   <g id="line2d_14">
    <path d="M 80.437684 212.040364 
L 81.265744 216.628202 
L 82.093803 225.803878 
L 82.921863 221.21604 
L 83.749922 221.21604 
L 84.577982 216.628202 
L 85.406042 207.452526 
L 87.062161 225.803878 
L 87.89022 225.803878 
L 89.546339 234.979554 
L 90.374399 244.15523 
L 91.202458 244.15523 
L 92.030518 234.979554 
L 92.858577 221.21604 
L 93.686637 221.21604 
L 94.514697 239.567392 
L 95.342756 221.21604 
L 96.170816 193.689012 
L 96.998875 189.101174 
L 97.826935 207.452526 
L 98.654994 230.391716 
L 99.483054 234.979554 
L 101.139173 234.979554 
L 101.967232 216.628202 
L 102.795292 193.689012 
L 103.623352 189.101174 
L 104.451411 221.21604 
L 105.279471 248.743068 
L 106.10753 244.15523 
L 106.93559 225.803878 
L 107.763649 212.040364 
L 110.247828 225.803878 
L 111.903947 216.628202 
L 112.732007 216.628202 
L 113.560066 221.21604 
L 114.388126 216.628202 
L 115.216185 207.452526 
L 116.872304 207.452526 
L 118.528423 216.628202 
L 119.356483 212.040364 
L 120.184542 212.040364 
L 121.012602 221.21604 
L 121.840661 234.979554 
L 122.668721 239.567392 
L 123.496781 234.979554 
L 124.32484 221.21604 
L 125.1529 216.628202 
L 125.980959 225.803878 
L 126.809019 221.21604 
L 127.637078 212.040364 
L 128.465138 189.101174 
L 129.293197 179.925498 
L 130.121257 193.689012 
L 130.949316 212.040364 
L 131.777376 221.21604 
L 132.605436 221.21604 
L 134.261555 248.743068 
L 135.089614 248.743068 
L 135.917674 244.15523 
L 137.573793 216.628202 
L 138.401852 212.040364 
L 139.229912 202.864688 
L 140.057971 202.864688 
L 141.714091 221.21604 
L 143.37021 212.040364 
L 145.026329 212.040364 
L 145.854388 216.628202 
L 148.338567 216.628202 
L 149.994686 207.452526 
L 150.822745 207.452526 
L 151.650805 202.864688 
L 152.478865 207.452526 
L 153.306924 221.21604 
L 155.791103 248.743068 
L 156.619162 244.15523 
L 158.275281 216.628202 
L 159.103341 198.27685 
L 159.9314 193.689012 
L 161.58752 202.864688 
L 163.243639 184.513336 
L 164.071698 193.689012 
L 165.727817 239.567392 
L 166.555877 244.15523 
L 167.383936 225.803878 
L 168.211996 198.27685 
L 169.040055 198.27685 
L 169.868115 221.21604 
L 170.696175 230.391716 
L 171.524234 221.21604 
L 172.352294 225.803878 
L 173.180353 239.567392 
L 174.008413 239.567392 
L 174.836472 216.628202 
L 175.664532 202.864688 
L 176.492591 212.040364 
L 177.320651 216.628202 
L 178.97677 234.979554 
L 179.804829 234.979554 
L 180.632889 225.803878 
L 181.460949 221.21604 
L 183.117068 221.21604 
L 183.945127 225.803878 
L 184.773187 234.979554 
L 185.601246 253.330906 
L 186.429306 257.918744 
L 187.257365 230.391716 
L 188.085425 198.27685 
L 188.913484 202.864688 
L 189.741544 225.803878 
L 190.569604 234.979554 
L 191.397663 225.803878 
L 192.225723 212.040364 
L 193.053782 212.040364 
L 193.881842 216.628202 
L 194.709901 212.040364 
L 195.537961 212.040364 
L 198.022139 239.567392 
L 198.850199 230.391716 
L 199.678259 212.040364 
L 200.506318 212.040364 
L 201.334378 216.628202 
L 202.990497 216.628202 
L 203.818556 225.803878 
L 204.646616 230.391716 
L 205.474675 225.803878 
L 206.302735 225.803878 
L 207.130794 221.21604 
L 207.958854 212.040364 
L 208.786914 212.040364 
L 210.443033 230.391716 
L 211.271092 234.979554 
L 212.099152 230.391716 
L 212.927211 221.21604 
L 213.755271 216.628202 
L 214.58333 202.864688 
L 215.41139 198.27685 
L 216.239449 207.452526 
L 217.895568 244.15523 
L 218.723628 239.567392 
L 220.379747 202.864688 
L 222.035866 202.864688 
L 222.863926 198.27685 
L 223.691985 198.27685 
L 224.520045 202.864688 
L 225.348104 212.040364 
L 226.176164 212.040364 
L 227.004223 202.864688 
L 227.832283 202.864688 
L 229.488402 212.040364 
L 230.316462 225.803878 
L 231.144521 225.803878 
L 231.972581 221.21604 
L 232.80064 230.391716 
L 233.6287 234.979554 
L 234.456759 234.979554 
L 235.284819 216.628202 
L 236.112878 193.689012 
L 237.768998 202.864688 
L 238.597057 202.864688 
L 239.425117 221.21604 
L 240.253176 234.979554 
L 241.081236 230.391716 
L 241.909295 216.628202 
L 242.737355 207.452526 
L 243.565414 212.040364 
L 245.221533 212.040364 
L 246.877652 221.21604 
L 247.705712 221.21604 
L 248.533772 216.628202 
L 249.361831 207.452526 
L 250.189891 202.864688 
L 251.01795 207.452526 
L 252.674069 225.803878 
L 253.502129 230.391716 
L 254.330188 225.803878 
L 255.158248 216.628202 
L 255.986307 212.040364 
L 256.814367 212.040364 
L 257.642427 216.628202 
L 258.470486 216.628202 
L 260.126605 207.452526 
L 261.782724 253.330906 
L 262.610784 257.918744 
L 263.438843 244.15523 
L 264.266903 225.803878 
L 265.923022 216.628202 
L 267.579141 216.628202 
L 270.891379 198.27685 
L 272.547498 216.628202 
L 275.859736 216.628202 
L 277.515856 198.27685 
L 278.343915 198.27685 
L 279.171975 212.040364 
L 280.000034 221.21604 
L 280.828094 212.040364 
L 281.656153 221.21604 
L 282.484213 244.15523 
L 283.312272 253.330906 
L 284.140332 234.979554 
L 284.968391 207.452526 
L 285.796451 193.689012 
L 286.624511 189.101174 
L 287.45257 193.689012 
L 289.936749 221.21604 
L 292.420927 221.21604 
L 294.077046 230.391716 
L 295.733166 212.040364 
L 296.561225 207.452526 
L 298.217344 207.452526 
L 299.873463 216.628202 
L 300.701523 216.628202 
L 302.357642 207.452526 
L 303.185701 207.452526 
L 304.013761 212.040364 
L 304.841821 221.21604 
L 305.66988 221.21604 
L 306.49794 216.628202 
L 307.325999 216.628202 
L 308.154059 221.21604 
L 309.810178 221.21604 
L 310.638237 216.628202 
L 311.466297 202.864688 
L 312.294356 198.27685 
L 313.122416 202.864688 
L 313.950475 212.040364 
L 314.778535 225.803878 
L 315.606595 225.803878 
L 316.434654 216.628202 
L 317.262714 212.040364 
L 318.918833 221.21604 
L 320.574952 212.040364 
L 322.231071 212.040364 
L 323.05913 207.452526 
L 323.88719 212.040364 
L 324.71525 225.803878 
L 325.543309 244.15523 
L 326.371369 244.15523 
L 328.027488 225.803878 
L 328.855547 212.040364 
L 330.511666 212.040364 
L 331.339726 207.452526 
L 332.995845 244.15523 
L 333.823905 230.391716 
L 334.651964 207.452526 
L 335.480024 198.27685 
L 336.308083 198.27685 
L 337.964202 207.452526 
L 338.792262 216.628202 
L 339.620321 216.628202 
L 340.448381 207.452526 
L 341.27644 202.864688 
L 342.1045 207.452526 
L 342.932559 216.628202 
L 344.588679 207.452526 
L 345.416738 207.452526 
L 346.244798 216.628202 
L 347.072857 230.391716 
L 348.728976 221.21604 
L 351.213155 221.21604 
L 352.041214 216.628202 
L 352.869274 221.21604 
L 355.353453 221.21604 
L 357.009572 212.040364 
L 357.837631 212.040364 
L 359.49375 221.21604 
L 360.32181 221.21604 
L 361.149869 212.040364 
L 362.805989 202.864688 
L 363.634048 202.864688 
L 364.462108 212.040364 
L 365.290167 216.628202 
L 366.946286 216.628202 
L 369.430465 202.864688 
L 370.258524 216.628202 
L 371.086584 239.567392 
L 371.914643 244.15523 
L 372.742703 230.391716 
L 373.570763 207.452526 
L 374.398822 198.27685 
L 375.226882 202.864688 
L 376.883001 230.391716 
L 377.71106 234.979554 
L 378.53912 221.21604 
L 379.367179 212.040364 
L 380.195239 212.040364 
L 381.851358 202.864688 
L 382.679418 221.21604 
L 383.507477 248.743068 
L 384.335537 253.330906 
L 385.991656 207.452526 
L 387.647775 216.628202 
L 389.303894 207.452526 
L 390.131953 216.628202 
L 390.960013 230.391716 
L 391.788073 239.567392 
L 392.616132 230.391716 
L 393.444192 216.628202 
L 394.272251 212.040364 
L 395.100311 202.864688 
L 395.92837 198.27685 
L 396.75643 202.864688 
L 398.412549 221.21604 
L 400.068668 230.391716 
L 400.896728 225.803878 
L 401.724787 216.628202 
L 402.552847 212.040364 
L 403.380906 212.040364 
L 404.208966 221.21604 
L 405.865085 212.040364 
L 406.693144 212.040364 
L 408.349263 221.21604 
L 409.177323 216.628202 
L 410.833442 198.27685 
L 411.661502 193.689012 
L 412.489561 198.27685 
L 413.317621 212.040364 
L 414.14568 221.21604 
L 414.97374 221.21604 
L 415.801799 207.452526 
L 416.629859 198.27685 
L 417.457918 207.452526 
L 418.285978 221.21604 
L 419.942097 175.33766 
L 420.770157 189.101174 
L 421.598216 216.628202 
L 422.426276 234.979554 
L 424.082395 225.803878 
L 424.910454 225.803878 
L 426.566573 198.27685 
L 427.394633 202.864688 
L 428.222692 216.628202 
L 429.050752 225.803878 
L 429.878812 221.21604 
L 431.534931 221.21604 
L 432.36299 216.628202 
L 434.019109 216.628202 
L 435.675228 207.452526 
L 438.159407 207.452526 
L 438.987466 202.864688 
L 439.815526 202.864688 
L 441.471645 212.040364 
L 443.127764 239.567392 
L 443.955824 234.979554 
L 444.783883 225.803878 
L 446.440002 216.628202 
L 447.268062 216.628202 
L 448.096121 221.21604 
L 448.924181 221.21604 
L 450.5803 212.040364 
L 453.064479 212.040364 
L 455.548657 225.803878 
L 458.032836 212.040364 
L 458.860896 212.040364 
L 461.345074 198.27685 
L 462.173134 202.864688 
L 463.001193 216.628202 
L 464.657312 234.979554 
L 465.485372 230.391716 
L 466.313431 216.628202 
L 467.96955 207.452526 
L 468.79761 193.689012 
L 469.62567 193.689012 
L 470.453729 207.452526 
L 471.281789 216.628202 
L 472.937908 225.803878 
L 473.765967 225.803878 
L 476.250146 212.040364 
L 477.906265 221.21604 
L 478.734325 216.628202 
L 479.562384 216.628202 
L 480.390444 221.21604 
L 481.218503 207.452526 
L 482.046563 189.101174 
L 482.874622 184.513336 
L 483.702682 193.689012 
L 484.530741 212.040364 
L 485.358801 216.628202 
L 486.18686 216.628202 
L 487.84298 225.803878 
L 488.671039 225.803878 
L 489.499099 221.21604 
L 490.327158 212.040364 
L 491.983277 212.040364 
L 492.811337 198.27685 
L 493.639396 193.689012 
L 494.467456 193.689012 
L 495.295515 216.628202 
L 496.123575 244.15523 
L 496.951635 244.15523 
L 497.779694 230.391716 
L 498.607754 221.21604 
L 499.435813 225.803878 
L 501.091932 207.452526 
L 501.919992 207.452526 
L 502.748051 212.040364 
L 503.576111 221.21604 
L 505.23223 221.21604 
L 506.060289 230.391716 
L 507.716409 230.391716 
L 508.544468 221.21604 
L 509.372528 207.452526 
L 510.200587 207.452526 
L 511.028647 212.040364 
L 512.684766 212.040364 
L 513.512825 216.628202 
L 515.168944 207.452526 
L 515.997004 207.452526 
L 517.653123 216.628202 
L 518.481183 216.628202 
L 520.137302 225.803878 
L 521.793421 216.628202 
L 522.62148 216.628202 
L 523.44954 221.21604 
L 525.105659 221.21604 
L 525.933719 230.391716 
L 526.761778 230.391716 
L 527.589838 221.21604 
L 528.417897 216.628202 
L 529.245957 221.21604 
L 530.902076 221.21604 
L 532.558195 184.513336 
L 533.386254 184.513336 
L 534.214314 198.27685 
L 535.042373 221.21604 
L 535.870433 225.803878 
L 536.698493 221.21604 
L 537.526552 221.21604 
L 538.354612 230.391716 
L 539.182671 234.979554 
L 540.010731 230.391716 
L 541.66685 202.864688 
L 542.494909 198.27685 
L 543.322969 202.864688 
L 546.635207 202.864688 
L 547.463267 212.040364 
L 548.291326 225.803878 
L 549.119386 234.979554 
L 549.947445 239.567392 
L 550.775505 230.391716 
L 551.603564 212.040364 
L 554.915803 212.040364 
L 555.743862 207.452526 
L 556.571922 212.040364 
L 557.399981 225.803878 
L 558.228041 234.979554 
L 559.88416 234.979554 
L 560.712219 230.391716 
L 561.540279 216.628202 
L 563.196398 198.27685 
L 564.024457 184.513336 
L 564.852517 179.925498 
L 566.508636 216.628202 
L 567.336696 221.21604 
L 568.164755 221.21604 
L 569.820874 212.040364 
L 570.648934 202.864688 
L 571.476993 198.27685 
L 572.305053 212.040364 
L 573.133112 234.979554 
L 573.961172 239.567392 
L 575.617291 212.040364 
L 577.27341 202.864688 
L 578.929529 212.040364 
L 579.757589 212.040364 
L 580.585648 225.803878 
L 581.413708 234.979554 
L 582.241767 234.979554 
L 583.069827 225.803878 
L 583.897887 221.21604 
L 584.725946 225.803878 
L 585.554006 225.803878 
L 587.210125 216.628202 
L 588.038184 216.628202 
L 588.866244 212.040364 
L 589.694303 202.864688 
L 590.522363 198.27685 
L 591.350422 189.101174 
L 592.178482 189.101174 
L 593.834601 207.452526 
L 594.662661 221.21604 
L 595.49072 225.803878 
L 596.31878 212.040364 
L 597.146839 202.864688 
L 597.974899 202.864688 
L 598.802958 207.452526 
L 599.631018 198.27685 
L 600.459077 184.513336 
L 601.287137 198.27685 
L 602.115196 225.803878 
L 602.943256 244.15523 
L 604.599375 198.27685 
L 605.427435 198.27685 
L 606.255494 207.452526 
L 607.083554 221.21604 
L 607.911613 221.21604 
L 609.567732 202.864688 
L 610.395792 202.864688 
L 611.223851 207.452526 
L 612.051911 207.452526 
L 612.879971 212.040364 
L 613.70803 202.864688 
L 614.53609 189.101174 
L 615.364149 184.513336 
L 616.192209 193.689012 
L 617.020268 212.040364 
L 617.848328 216.628202 
L 618.676387 216.628202 
L 619.504447 212.040364 
L 620.332506 202.864688 
L 621.160566 189.101174 
L 621.988626 179.925498 
L 622.816685 189.101174 
L 623.644745 189.101174 
L 624.472804 184.513336 
L 625.300864 189.101174 
L 626.128923 198.27685 
L 626.956983 193.689012 
L 627.785042 179.925498 
L 628.613102 175.33766 
L 629.441161 175.33766 
L 630.269221 193.689012 
L 631.09728 198.27685 
L 631.92534 184.513336 
L 632.7534 179.925498 
L 633.581459 189.101174 
M 671.672198 202.864688 
L 672.500258 184.513336 
L 673.328317 184.513336 
L 674.156377 198.27685 
L 675.812496 216.628202 
L 676.640555 230.391716 
L 677.468615 221.21604 
L 679.124734 147.810633 
L 679.952794 120.283605 
L 680.780853 106.520091 
L 681.608913 115.695767 
L 682.436972 129.459281 
L 683.265032 134.047119 
L 684.093091 134.047119 
L 684.921151 138.634957 
L 685.74921 147.810633 
L 686.57727 161.574147 
L 687.405329 170.749823 
L 688.233389 170.749823 
L 689.889508 143.222795 
L 690.717568 147.810633 
L 691.545627 156.986309 
L 692.373687 147.810633 
L 693.201746 147.810633 
L 694.857865 184.513336 
L 695.685925 156.986309 
L 696.513984 106.520091 
L 697.342044 101.932253 
L 698.998163 202.864688 
L 699.826223 207.452526 
L 700.654282 193.689012 
L 701.482342 175.33766 
L 702.310401 170.749823 
L 703.138461 170.749823 
L 703.96652 175.33766 
L 704.79458 175.33766 
L 705.622639 161.574147 
L 706.450699 143.222795 
L 707.278758 129.459281 
L 708.106818 124.871443 
L 708.934878 134.047119 
L 709.762937 161.574147 
L 710.590997 170.749823 
L 712.247116 134.047119 
L 713.075175 120.283605 
L 713.903235 129.459281 
L 714.731294 147.810633 
L 715.559354 175.33766 
L 716.387413 156.986309 
L 717.215473 120.283605 
L 718.871592 147.810633 
L 719.699652 152.398471 
L 720.527711 143.222795 
L 721.355771 143.222795 
L 723.839949 170.749823 
L 725.496068 161.574147 
L 726.324128 179.925498 
L 727.152187 193.689012 
L 727.980247 193.689012 
L 728.808307 198.27685 
L 729.636366 198.27685 
L 730.464426 189.101174 
L 731.292485 170.749823 
L 732.120545 175.33766 
L 732.948604 193.689012 
L 734.604723 166.161985 
L 735.432783 170.749823 
L 736.260842 179.925498 
L 737.088902 179.925498 
L 737.916962 166.161985 
L 739.573081 147.810633 
L 741.2292 166.161985 
L 742.057259 166.161985 
L 742.885319 152.398471 
L 743.713378 152.398471 
L 745.369497 143.222795 
L 747.025617 198.27685 
L 747.853676 212.040364 
L 748.681736 207.452526 
L 749.509795 198.27685 
L 750.337855 166.161985 
L 751.165914 147.810633 
L 751.993974 152.398471 
L 752.822033 161.574147 
L 753.650093 166.161985 
L 754.478152 152.398471 
L 755.306212 152.398471 
L 756.962331 115.695767 
L 757.790391 124.871443 
L 758.61845 147.810633 
L 759.44651 156.986309 
L 760.274569 147.810633 
L 761.102629 147.810633 
L 762.758748 129.459281 
L 763.586807 143.222795 
L 764.414867 170.749823 
L 765.242926 161.574147 
L 766.070986 143.222795 
L 766.899046 143.222795 
L 767.727105 152.398471 
L 769.383224 124.871443 
L 770.211284 156.986309 
L 771.039343 184.513336 
L 771.867403 184.513336 
L 772.695462 179.925498 
L 773.523522 193.689012 
L 774.351581 184.513336 
L 775.179641 161.574147 
L 776.007701 152.398471 
L 777.66382 161.574147 
L 778.491879 147.810633 
L 779.319939 152.398471 
L 780.147998 161.574147 
L 780.976058 175.33766 
L 782.632177 166.161985 
L 783.460236 156.986309 
L 784.288296 143.222795 
L 785.116356 147.810633 
L 785.944415 147.810633 
L 786.772475 166.161985 
L 788.428594 184.513336 
L 789.256653 184.513336 
L 790.084713 166.161985 
L 790.912772 152.398471 
L 791.740832 166.161985 
L 792.568891 184.513336 
L 793.396951 184.513336 
L 794.22501 189.101174 
L 795.05307 189.101174 
L 796.709189 124.871443 
L 797.537249 129.459281 
L 798.365308 147.810633 
L 799.193368 156.986309 
L 800.021427 152.398471 
L 801.677546 198.27685 
L 802.505606 198.27685 
L 803.333665 189.101174 
L 804.989785 161.574147 
L 805.817844 166.161985 
L 806.645904 175.33766 
L 807.473963 175.33766 
L 808.302023 179.925498 
L 809.130082 175.33766 
L 809.958142 179.925498 
L 810.786201 179.925498 
L 811.614261 166.161985 
L 812.44232 156.986309 
L 813.27038 156.986309 
L 814.09844 170.749823 
L 814.926499 175.33766 
L 815.754559 156.986309 
L 816.582618 152.398471 
L 817.410678 175.33766 
L 818.238737 202.864688 
L 819.066797 202.864688 
L 819.894856 189.101174 
L 820.722916 166.161985 
L 821.550975 147.810633 
L 822.379035 143.222795 
L 824.035154 152.398471 
L 824.863214 147.810633 
L 825.691273 152.398471 
L 826.519333 161.574147 
L 828.175452 134.047119 
L 829.003511 138.634957 
L 829.831571 156.986309 
L 830.65963 166.161985 
L 831.48769 166.161985 
L 832.315749 175.33766 
L 833.143809 179.925498 
L 833.971869 170.749823 
L 834.799928 156.986309 
L 835.627988 156.986309 
L 837.284107 193.689012 
L 838.940226 212.040364 
L 839.768285 202.864688 
L 841.424404 166.161985 
L 842.252464 152.398471 
L 843.080524 143.222795 
L 843.908583 152.398471 
L 844.736643 156.986309 
L 846.392762 175.33766 
L 847.220821 175.33766 
L 848.048881 170.749823 
L 848.87694 170.749823 
L 849.705 166.161985 
L 850.533059 166.161985 
L 851.361119 170.749823 
L 853.017238 170.749823 
L 853.845298 156.986309 
L 854.673357 161.574147 
L 855.501417 179.925498 
L 856.329476 193.689012 
L 858.813655 179.925498 
L 859.641714 166.161985 
L 860.469774 147.810633 
L 861.297833 138.634957 
L 862.125893 152.398471 
L 862.953953 175.33766 
L 863.782012 184.513336 
L 865.438131 166.161985 
L 866.266191 170.749823 
L 867.09425 193.689012 
L 867.92231 189.101174 
L 868.750369 179.925498 
L 870.406488 170.749823 
L 871.234548 179.925498 
L 872.062608 161.574147 
L 872.890667 147.810633 
L 873.718727 156.986309 
L 874.546786 193.689012 
L 875.374846 207.452526 
L 877.030965 129.459281 
L 877.859024 134.047119 
L 878.687084 175.33766 
L 879.515143 198.27685 
L 880.343203 179.925498 
L 881.171263 156.986309 
L 881.999322 156.986309 
L 883.655441 184.513336 
L 884.483501 179.925498 
L 885.31156 161.574147 
L 886.13962 156.986309 
L 886.967679 170.749823 
L 887.795739 193.689012 
L 888.623798 202.864688 
L 890.279917 202.864688 
L 891.107977 175.33766 
L 891.936037 152.398471 
L 892.764096 147.810633 
L 893.592156 170.749823 
L 894.420215 198.27685 
L 896.076334 170.749823 
L 896.904394 161.574147 
L 897.732453 147.810633 
L 898.560513 120.283605 
L 899.388572 106.520091 
L 900.216632 115.695767 
L 901.872751 170.749823 
L 902.700811 179.925498 
L 903.52887 179.925498 
L 904.35693 161.574147 
L 905.184989 170.749823 
L 906.013049 184.513336 
L 906.841108 161.574147 
L 907.669168 147.810633 
L 908.497227 175.33766 
L 909.325287 216.628202 
L 910.153347 234.979554 
L 910.981406 216.628202 
L 911.809466 179.925498 
L 912.637525 156.986309 
L 913.465585 156.986309 
L 914.293644 179.925498 
L 915.121704 198.27685 
L 915.949763 198.27685 
L 917.605882 161.574147 
L 918.433942 161.574147 
L 919.262001 170.749823 
L 920.090061 184.513336 
L 921.74618 175.33766 
L 923.402299 184.513336 
L 924.230359 179.925498 
L 925.058418 161.574147 
L 925.886478 156.986309 
L 926.714537 166.161985 
L 927.542597 166.161985 
L 928.370656 161.574147 
L 929.198716 166.161985 
L 930.026776 175.33766 
L 930.854835 189.101174 
L 931.682895 175.33766 
L 932.510954 156.986309 
L 933.339014 156.986309 
L 934.167073 170.749823 
L 934.995133 175.33766 
L 935.823192 156.986309 
L 936.651252 166.161985 
L 937.479311 184.513336 
L 938.307371 193.689012 
L 939.96349 156.986309 
L 940.79155 156.986309 
L 942.447669 184.513336 
L 943.275728 179.925498 
L 944.103788 143.222795 
L 944.931847 115.695767 
L 945.759907 124.871443 
L 947.416026 189.101174 
L 948.244085 202.864688 
L 949.072145 207.452526 
L 949.900205 179.925498 
L 950.728264 156.986309 
L 951.556324 152.398471 
L 952.384383 184.513336 
L 953.212443 212.040364 
L 954.868562 193.689012 
L 955.696621 166.161985 
L 956.524681 143.222795 
L 957.35274 143.222795 
L 959.00886 189.101174 
L 959.836919 184.513336 
L 960.664979 170.749823 
L 961.493038 166.161985 
L 962.321098 189.101174 
L 963.149157 179.925498 
L 963.977217 152.398471 
L 964.805276 143.222795 
L 965.633336 166.161985 
L 966.461395 175.33766 
L 967.289455 147.810633 
L 968.117515 138.634957 
L 968.945574 156.986309 
L 969.773634 193.689012 
L 970.601693 184.513336 
L 971.429753 152.398471 
L 972.257812 143.222795 
L 973.085872 166.161985 
L 973.913931 184.513336 
L 974.741991 175.33766 
L 975.57005 170.749823 
L 976.39811 184.513336 
L 977.22617 189.101174 
L 979.710348 161.574147 
L 980.538408 143.222795 
L 981.366467 134.047119 
L 983.022586 189.101174 
L 984.678705 161.574147 
L 985.506765 170.749823 
L 987.162884 207.452526 
L 987.990944 198.27685 
L 988.819003 161.574147 
L 989.647063 134.047119 
L 990.475122 152.398471 
L 991.303182 184.513336 
L 992.131241 175.33766 
L 992.959301 147.810633 
L 993.78736 143.222795 
L 994.61542 161.574147 
L 995.443479 170.749823 
L 996.271539 166.161985 
L 997.099599 175.33766 
L 997.927658 198.27685 
L 998.755718 216.628202 
L 1000.411837 138.634957 
L 1001.239896 129.459281 
L 1002.067956 143.222795 
L 1002.896015 161.574147 
L 1004.552134 179.925498 
L 1005.380194 184.513336 
L 1006.208254 179.925498 
L 1007.036313 179.925498 
L 1007.864373 175.33766 
L 1008.692432 161.574147 
L 1009.520492 161.574147 
L 1011.176611 152.398471 
L 1012.00467 166.161985 
M 1045.127052 175.33766 
L 1045.955112 179.925498 
L 1046.783171 152.398471 
L 1047.611231 138.634957 
L 1048.43929 161.574147 
L 1049.26735 202.864688 
L 1050.095409 207.452526 
L 1051.751528 170.749823 
L 1052.579588 170.749823 
L 1053.407647 184.513336 
L 1054.235707 179.925498 
L 1055.063767 156.986309 
L 1055.891826 138.634957 
L 1055.891826 138.634957 
" clip-path="url(#pc4ee96119e)" style="fill: none; stroke: #000000; stroke-opacity: 0.2; stroke-width: 1.5; stroke-linecap: square"/>
   </g>
   <g id="LineCollection_1">
    <path d="M 808.302023 283.643804 
L 808.302023 49.089197 
" clip-path="url(#pc4ee96119e)" style="fill: none; stroke-dasharray: 3.7,1.6; stroke-dashoffset: 0; stroke: #006400; stroke-opacity: 0.7"/>
   </g>
   <g id="LineCollection_2">
    <path d="M 973.913931 283.643804 
L 973.913931 49.089197 
" clip-path="url(#pc4ee96119e)" style="fill: none; stroke-dasharray: 3.7,1.6; stroke-dashoffset: 0; stroke: #006400; stroke-opacity: 0.7"/>
   </g>
   <g id="line2d_15">
    <path d="M 63.048434 89.298558 
L 227.832283 89.298558 
L 227.832283 89.298558 
" clip-path="url(#pc4ee96119e)" style="fill: none; stroke: #000000; stroke-opacity: 0.8; stroke-linecap: square"/>
   </g>
   <g id="line2d_16">
    <path d="M 477.078205 89.298558 
L 1055.891826 89.298558 
L 1055.891826 89.298558 
" clip-path="url(#pc4ee96119e)" style="fill: none; stroke: #000000; stroke-opacity: 0.8; stroke-linecap: square"/>
   </g>
   <g id="LineCollection_3">
    <path d="M 477.078205 283.643804 
L 477.078205 49.089197 
" clip-path="url(#pc4ee96119e)" style="fill: none; stroke: #000000"/>
   </g>
   <g id="LineCollection_4">
    <path d="M 228.660343 283.643804 
L 228.660343 49.089197 
" clip-path="url(#pc4ee96119e)" style="fill: none; stroke-dasharray: 3.7,1.6; stroke-dashoffset: 0; stroke: #000000; stroke-opacity: 0.5"/>
   </g>
   <g id="patch_7">
    <path d="M 53.12 283.643804 
L 53.12 99.350898 
" style="fill: none; stroke: #000000; stroke-width: 0.8; stroke-linejoin: miter; stroke-linecap: square"/>
   </g>
   <g id="patch_8">
    <path d="M 63.048434 290.345365 
L 1055.891826 290.345365 
" style="fill: none; stroke: #000000; stroke-width: 0.8; stroke-linejoin: miter; stroke-linecap: square"/>
   </g>
   <g id="text_16">
    <!-- average velocity of the eye in this window -->
    <g style="fill: #006400" transform="translate(743.933939 114.985169) scale(0.123077 -0.123077)">
     <defs>
      <path id="DejaVuSans-Bold-61" d="M 2106 1575 
Q 1756 1575 1579 1456 
Q 1403 1338 1403 1106 
Q 1403 894 1545 773 
Q 1688 653 1941 653 
Q 2256 653 2472 879 
Q 2688 1106 2688 1447 
L 2688 1575 
L 2106 1575 
z
M 3816 1997 
L 3816 0 
L 2688 0 
L 2688 519 
Q 2463 200 2181 54 
Q 1900 -91 1497 -91 
Q 953 -91 614 226 
Q 275 544 275 1050 
Q 275 1666 698 1953 
Q 1122 2241 2028 2241 
L 2688 2241 
L 2688 2328 
Q 2688 2594 2478 2717 
Q 2269 2841 1825 2841 
Q 1466 2841 1156 2769 
Q 847 2697 581 2553 
L 581 3406 
Q 941 3494 1303 3539 
Q 1666 3584 2028 3584 
Q 2975 3584 3395 3211 
Q 3816 2838 3816 1997 
z
" transform="scale(0.015625)"/>
      <path id="DejaVuSans-Bold-76" d="M 97 3500 
L 1216 3500 
L 2088 1081 
L 2956 3500 
L 4078 3500 
L 2700 0 
L 1472 0 
L 97 3500 
z
" transform="scale(0.015625)"/>
      <path id="DejaVuSans-Bold-65" d="M 4031 1759 
L 4031 1441 
L 1416 1441 
Q 1456 1047 1700 850 
Q 1944 653 2381 653 
Q 2734 653 3104 758 
Q 3475 863 3866 1075 
L 3866 213 
Q 3469 63 3072 -14 
Q 2675 -91 2278 -91 
Q 1328 -91 801 392 
Q 275 875 275 1747 
Q 275 2603 792 3093 
Q 1309 3584 2216 3584 
Q 3041 3584 3536 3087 
Q 4031 2591 4031 1759 
z
M 2881 2131 
Q 2881 2450 2695 2645 
Q 2509 2841 2209 2841 
Q 1884 2841 1681 2658 
Q 1478 2475 1428 2131 
L 2881 2131 
z
" transform="scale(0.015625)"/>
      <path id="DejaVuSans-Bold-72" d="M 3138 2547 
Q 2991 2616 2845 2648 
Q 2700 2681 2553 2681 
Q 2122 2681 1889 2404 
Q 1656 2128 1656 1613 
L 1656 0 
L 538 0 
L 538 3500 
L 1656 3500 
L 1656 2925 
Q 1872 3269 2151 3426 
Q 2431 3584 2822 3584 
Q 2878 3584 2943 3579 
Q 3009 3575 3134 3559 
L 3138 2547 
z
" transform="scale(0.015625)"/>
      <path id="DejaVuSans-Bold-67" d="M 2919 594 
Q 2688 288 2409 144 
Q 2131 0 1766 0 
Q 1125 0 706 504 
Q 288 1009 288 1791 
Q 288 2575 706 3076 
Q 1125 3578 1766 3578 
Q 2131 3578 2409 3434 
Q 2688 3291 2919 2981 
L 2919 3500 
L 4044 3500 
L 4044 353 
Q 4044 -491 3511 -936 
Q 2978 -1381 1966 -1381 
Q 1638 -1381 1331 -1331 
Q 1025 -1281 716 -1178 
L 716 -306 
Q 1009 -475 1290 -558 
Q 1572 -641 1856 -641 
Q 2406 -641 2662 -400 
Q 2919 -159 2919 353 
L 2919 594 
z
M 2181 2772 
Q 1834 2772 1640 2515 
Q 1447 2259 1447 1791 
Q 1447 1309 1634 1061 
Q 1822 813 2181 813 
Q 2531 813 2725 1069 
Q 2919 1325 2919 1791 
Q 2919 2259 2725 2515 
Q 2531 2772 2181 2772 
z
" transform="scale(0.015625)"/>
      <path id="DejaVuSans-Bold-20" transform="scale(0.015625)"/>
      <path id="DejaVuSans-Bold-6c" d="M 538 4863 
L 1656 4863 
L 1656 0 
L 538 0 
L 538 4863 
z
" transform="scale(0.015625)"/>
      <path id="DejaVuSans-Bold-6f" d="M 2203 2784 
Q 1831 2784 1636 2517 
Q 1441 2250 1441 1747 
Q 1441 1244 1636 976 
Q 1831 709 2203 709 
Q 2569 709 2762 976 
Q 2956 1244 2956 1747 
Q 2956 2250 2762 2517 
Q 2569 2784 2203 2784 
z
M 2203 3584 
Q 3106 3584 3614 3096 
Q 4122 2609 4122 1747 
Q 4122 884 3614 396 
Q 3106 -91 2203 -91 
Q 1297 -91 786 396 
Q 275 884 275 1747 
Q 275 2609 786 3096 
Q 1297 3584 2203 3584 
z
" transform="scale(0.015625)"/>
      <path id="DejaVuSans-Bold-63" d="M 3366 3391 
L 3366 2478 
Q 3138 2634 2908 2709 
Q 2678 2784 2431 2784 
Q 1963 2784 1702 2511 
Q 1441 2238 1441 1747 
Q 1441 1256 1702 982 
Q 1963 709 2431 709 
Q 2694 709 2930 787 
Q 3166 866 3366 1019 
L 3366 103 
Q 3103 6 2833 -42 
Q 2563 -91 2291 -91 
Q 1344 -91 809 395 
Q 275 881 275 1747 
Q 275 2613 809 3098 
Q 1344 3584 2291 3584 
Q 2566 3584 2833 3536 
Q 3100 3488 3366 3391 
z
" transform="scale(0.015625)"/>
      <path id="DejaVuSans-Bold-69" d="M 538 3500 
L 1656 3500 
L 1656 0 
L 538 0 
L 538 3500 
z
M 538 4863 
L 1656 4863 
L 1656 3950 
L 538 3950 
L 538 4863 
z
" transform="scale(0.015625)"/>
      <path id="DejaVuSans-Bold-74" d="M 1759 4494 
L 1759 3500 
L 2913 3500 
L 2913 2700 
L 1759 2700 
L 1759 1216 
Q 1759 972 1856 886 
Q 1953 800 2241 800 
L 2816 800 
L 2816 0 
L 1856 0 
Q 1194 0 917 276 
Q 641 553 641 1216 
L 641 2700 
L 84 2700 
L 84 3500 
L 641 3500 
L 641 4494 
L 1759 4494 
z
" transform="scale(0.015625)"/>
      <path id="DejaVuSans-Bold-79" d="M 78 3500 
L 1197 3500 
L 2138 1125 
L 2938 3500 
L 4056 3500 
L 2584 -331 
Q 2363 -916 2067 -1148 
Q 1772 -1381 1288 -1381 
L 641 -1381 
L 641 -647 
L 991 -647 
Q 1275 -647 1404 -556 
Q 1534 -466 1606 -231 
L 1638 -134 
L 78 3500 
z
" transform="scale(0.015625)"/>
      <path id="DejaVuSans-Bold-66" d="M 2841 4863 
L 2841 4128 
L 2222 4128 
Q 1984 4128 1890 4042 
Q 1797 3956 1797 3744 
L 1797 3500 
L 2753 3500 
L 2753 2700 
L 1797 2700 
L 1797 0 
L 678 0 
L 678 2700 
L 122 2700 
L 122 3500 
L 678 3500 
L 678 3744 
Q 678 4316 997 4589 
Q 1316 4863 1984 4863 
L 2841 4863 
z
" transform="scale(0.015625)"/>
      <path id="DejaVuSans-Bold-68" d="M 4056 2131 
L 4056 0 
L 2931 0 
L 2931 347 
L 2931 1625 
Q 2931 2084 2911 2256 
Q 2891 2428 2841 2509 
Q 2775 2619 2662 2680 
Q 2550 2741 2406 2741 
Q 2056 2741 1856 2470 
Q 1656 2200 1656 1722 
L 1656 0 
L 538 0 
L 538 4863 
L 1656 4863 
L 1656 2988 
Q 1909 3294 2193 3439 
Q 2478 3584 2822 3584 
Q 3428 3584 3742 3212 
Q 4056 2841 4056 2131 
z
" transform="scale(0.015625)"/>
      <path id="DejaVuSans-Bold-6e" d="M 4056 2131 
L 4056 0 
L 2931 0 
L 2931 347 
L 2931 1631 
Q 2931 2084 2911 2256 
Q 2891 2428 2841 2509 
Q 2775 2619 2662 2680 
Q 2550 2741 2406 2741 
Q 2056 2741 1856 2470 
Q 1656 2200 1656 1722 
L 1656 0 
L 538 0 
L 538 3500 
L 1656 3500 
L 1656 2988 
Q 1909 3294 2193 3439 
Q 2478 3584 2822 3584 
Q 3428 3584 3742 3212 
Q 4056 2841 4056 2131 
z
" transform="scale(0.015625)"/>
      <path id="DejaVuSans-Bold-73" d="M 3272 3391 
L 3272 2541 
Q 2913 2691 2578 2766 
Q 2244 2841 1947 2841 
Q 1628 2841 1473 2761 
Q 1319 2681 1319 2516 
Q 1319 2381 1436 2309 
Q 1553 2238 1856 2203 
L 2053 2175 
Q 2913 2066 3209 1816 
Q 3506 1566 3506 1031 
Q 3506 472 3093 190 
Q 2681 -91 1863 -91 
Q 1516 -91 1145 -36 
Q 775 19 384 128 
L 384 978 
Q 719 816 1070 734 
Q 1422 653 1784 653 
Q 2113 653 2278 743 
Q 2444 834 2444 1013 
Q 2444 1163 2330 1236 
Q 2216 1309 1875 1350 
L 1678 1375 
Q 931 1469 631 1722 
Q 331 1975 331 2491 
Q 331 3047 712 3315 
Q 1094 3584 1881 3584 
Q 2191 3584 2531 3537 
Q 2872 3491 3272 3391 
z
" transform="scale(0.015625)"/>
      <path id="DejaVuSans-Bold-77" d="M 225 3500 
L 1313 3500 
L 1900 1088 
L 2491 3500 
L 3425 3500 
L 4013 1113 
L 4603 3500 
L 5691 3500 
L 4769 0 
L 3547 0 
L 2956 2406 
L 2369 0 
L 1147 0 
L 225 3500 
z
" transform="scale(0.015625)"/>
      <path id="DejaVuSans-Bold-64" d="M 2919 2988 
L 2919 4863 
L 4044 4863 
L 4044 0 
L 2919 0 
L 2919 506 
Q 2688 197 2409 53 
Q 2131 -91 1766 -91 
Q 1119 -91 703 423 
Q 288 938 288 1747 
Q 288 2556 703 3070 
Q 1119 3584 1766 3584 
Q 2128 3584 2408 3439 
Q 2688 3294 2919 2988 
z
M 2181 722 
Q 2541 722 2730 984 
Q 2919 1247 2919 1747 
Q 2919 2247 2730 2509 
Q 2541 2772 2181 2772 
Q 1825 2772 1636 2509 
Q 1447 2247 1447 1747 
Q 1447 1247 1636 984 
Q 1825 722 2181 722 
z
" transform="scale(0.015625)"/>
     </defs>
     <use xlink:href="#DejaVuSans-Bold-61"/>
     <use xlink:href="#DejaVuSans-Bold-76" x="67.480469"/>
     <use xlink:href="#DejaVuSans-Bold-65" x="132.666016"/>
     <use xlink:href="#DejaVuSans-Bold-72" x="200.488281"/>
     <use xlink:href="#DejaVuSans-Bold-61" x="249.804688"/>
     <use xlink:href="#DejaVuSans-Bold-67" x="317.285156"/>
     <use xlink:href="#DejaVuSans-Bold-65" x="388.867188"/>
     <use xlink:href="#DejaVuSans-Bold-20" x="456.689453"/>
     <use xlink:href="#DejaVuSans-Bold-76" x="491.503906"/>
     <use xlink:href="#DejaVuSans-Bold-65" x="556.689453"/>
     <use xlink:href="#DejaVuSans-Bold-6c" x="624.511719"/>
     <use xlink:href="#DejaVuSans-Bold-6f" x="658.789062"/>
     <use xlink:href="#DejaVuSans-Bold-63" x="727.490234"/>
     <use xlink:href="#DejaVuSans-Bold-69" x="786.767578"/>
     <use xlink:href="#DejaVuSans-Bold-74" x="821.044922"/>
     <use xlink:href="#DejaVuSans-Bold-79" x="868.847656"/>
     <use xlink:href="#DejaVuSans-Bold-20" x="934.033203"/>
     <use xlink:href="#DejaVuSans-Bold-6f" x="968.847656"/>
     <use xlink:href="#DejaVuSans-Bold-66" x="1037.548828"/>
     <use xlink:href="#DejaVuSans-Bold-20" x="1081.054688"/>
     <use xlink:href="#DejaVuSans-Bold-74" x="1115.869141"/>
     <use xlink:href="#DejaVuSans-Bold-68" x="1163.671875"/>
     <use xlink:href="#DejaVuSans-Bold-65" x="1234.863281"/>
     <use xlink:href="#DejaVuSans-Bold-20" x="1302.685547"/>
     <use xlink:href="#DejaVuSans-Bold-65" x="1337.5"/>
     <use xlink:href="#DejaVuSans-Bold-79" x="1405.322266"/>
     <use xlink:href="#DejaVuSans-Bold-65" x="1470.507812"/>
     <use xlink:href="#DejaVuSans-Bold-20" x="1538.330078"/>
     <use xlink:href="#DejaVuSans-Bold-69" x="1573.144531"/>
     <use xlink:href="#DejaVuSans-Bold-6e" x="1607.421875"/>
     <use xlink:href="#DejaVuSans-Bold-20" x="1678.613281"/>
     <use xlink:href="#DejaVuSans-Bold-74" x="1713.427734"/>
     <use xlink:href="#DejaVuSans-Bold-68" x="1761.230469"/>
     <use xlink:href="#DejaVuSans-Bold-69" x="1832.421875"/>
     <use xlink:href="#DejaVuSans-Bold-73" x="1866.699219"/>
     <use xlink:href="#DejaVuSans-Bold-20" x="1926.220703"/>
     <use xlink:href="#DejaVuSans-Bold-77" x="1961.035156"/>
     <use xlink:href="#DejaVuSans-Bold-69" x="2053.417969"/>
     <use xlink:href="#DejaVuSans-Bold-6e" x="2087.695312"/>
     <use xlink:href="#DejaVuSans-Bold-64" x="2158.886719"/>
     <use xlink:href="#DejaVuSans-Bold-6f" x="2230.46875"/>
     <use xlink:href="#DejaVuSans-Bold-77" x="2299.169922"/>
    </g>
   </g>
   <g id="text_17">
    <!-- steady_state -->
    <g style="fill: #006400" transform="translate(852.577977 131.983797) scale(0.106667 -0.106667)">
     <defs>
      <path id="DejaVuSansMono-73" d="M 3041 3378 
L 3041 2816 
Q 2794 2959 2544 3031 
Q 2294 3103 2034 3103 
Q 1644 3103 1451 2976 
Q 1259 2850 1259 2591 
Q 1259 2356 1403 2240 
Q 1547 2125 2119 2016 
L 2350 1972 
Q 2778 1891 2998 1647 
Q 3219 1403 3219 1013 
Q 3219 494 2850 201 
Q 2481 -91 1825 -91 
Q 1566 -91 1281 -36 
Q 997 19 666 128 
L 666 722 
Q 988 556 1281 473 
Q 1575 391 1838 391 
Q 2219 391 2428 545 
Q 2638 700 2638 978 
Q 2638 1378 1872 1531 
L 1847 1538 
L 1631 1581 
Q 1134 1678 906 1908 
Q 678 2138 678 2534 
Q 678 3038 1018 3311 
Q 1359 3584 1991 3584 
Q 2272 3584 2531 3532 
Q 2791 3481 3041 3378 
z
" transform="scale(0.015625)"/>
      <path id="DejaVuSansMono-74" d="M 1919 4494 
L 1919 3500 
L 3225 3500 
L 3225 3053 
L 1919 3053 
L 1919 1153 
Q 1919 766 2066 612 
Q 2213 459 2578 459 
L 3225 459 
L 3225 0 
L 2522 0 
Q 1875 0 1609 259 
Q 1344 519 1344 1153 
L 1344 3053 
L 409 3053 
L 409 3500 
L 1344 3500 
L 1344 4494 
L 1919 4494 
z
" transform="scale(0.015625)"/>
      <path id="DejaVuSansMono-65" d="M 3475 1894 
L 3475 1613 
L 984 1613 
L 984 1594 
Q 984 1022 1282 709 
Q 1581 397 2125 397 
Q 2400 397 2700 484 
Q 3000 572 3341 750 
L 3341 178 
Q 3013 44 2708 -23 
Q 2403 -91 2119 -91 
Q 1303 -91 843 398 
Q 384 888 384 1747 
Q 384 2584 834 3084 
Q 1284 3584 2034 3584 
Q 2703 3584 3089 3131 
Q 3475 2678 3475 1894 
z
M 2900 2063 
Q 2888 2569 2661 2833 
Q 2434 3097 2009 3097 
Q 1594 3097 1325 2822 
Q 1056 2547 1006 2059 
L 2900 2063 
z
" transform="scale(0.015625)"/>
      <path id="DejaVuSansMono-61" d="M 2194 1759 
L 2003 1759 
Q 1500 1759 1245 1582 
Q 991 1406 991 1056 
Q 991 741 1181 566 
Q 1372 391 1709 391 
Q 2184 391 2456 720 
Q 2728 1050 2731 1631 
L 2731 1759 
L 2194 1759 
z
M 3309 1997 
L 3309 0 
L 2731 0 
L 2731 519 
Q 2547 206 2267 57 
Q 1988 -91 1588 -91 
Q 1053 -91 734 211 
Q 416 513 416 1019 
Q 416 1603 808 1906 
Q 1200 2209 1959 2209 
L 2731 2209 
L 2731 2300 
Q 2728 2719 2518 2908 
Q 2309 3097 1850 3097 
Q 1556 3097 1256 3012 
Q 956 2928 672 2766 
L 672 3341 
Q 991 3463 1283 3523 
Q 1575 3584 1850 3584 
Q 2284 3584 2592 3456 
Q 2900 3328 3091 3072 
Q 3209 2916 3259 2686 
Q 3309 2456 3309 1997 
z
" transform="scale(0.015625)"/>
      <path id="DejaVuSansMono-64" d="M 2681 3053 
L 2681 4863 
L 3256 4863 
L 3256 0 
L 2681 0 
L 2681 441 
Q 2538 181 2298 45 
Q 2059 -91 1747 -91 
Q 1113 -91 748 401 
Q 384 894 384 1759 
Q 384 2613 750 3098 
Q 1116 3584 1747 3584 
Q 2063 3584 2303 3448 
Q 2544 3313 2681 3053 
z
M 991 1747 
Q 991 1078 1203 737 
Q 1416 397 1831 397 
Q 2247 397 2464 740 
Q 2681 1084 2681 1747 
Q 2681 2413 2464 2755 
Q 2247 3097 1831 3097 
Q 1416 3097 1203 2756 
Q 991 2416 991 1747 
z
" transform="scale(0.015625)"/>
      <path id="DejaVuSansMono-79" d="M 2681 1125 
Q 2538 759 2316 163 
Q 2006 -663 1900 -844 
Q 1756 -1088 1540 -1209 
Q 1325 -1331 1038 -1331 
L 575 -1331 
L 575 -850 
L 916 -850 
Q 1169 -850 1312 -703 
Q 1456 -556 1678 56 
L 325 3500 
L 934 3500 
L 1972 763 
L 2994 3500 
L 3603 3500 
L 2681 1125 
z
" transform="scale(0.015625)"/>
      <path id="DejaVuSansMono-5f" d="M 3853 -1259 
L 3853 -1509 
L 0 -1509 
L 0 -1259 
L 3853 -1259 
z
" transform="scale(0.015625)"/>
     </defs>
     <use xlink:href="#DejaVuSansMono-73"/>
     <use xlink:href="#DejaVuSansMono-74" x="60.205078"/>
     <use xlink:href="#DejaVuSansMono-65" x="120.410156"/>
     <use xlink:href="#DejaVuSansMono-61" x="180.615234"/>
     <use xlink:href="#DejaVuSansMono-64" x="240.820312"/>
     <use xlink:href="#DejaVuSansMono-79" x="301.025391"/>
     <use xlink:href="#DejaVuSansMono-5f" x="361.230469"/>
     <use xlink:href="#DejaVuSansMono-73" x="421.435547"/>
     <use xlink:href="#DejaVuSansMono-74" x="481.640625"/>
     <use xlink:href="#DejaVuSansMono-61" x="541.845703"/>
     <use xlink:href="#DejaVuSansMono-74" x="602.050781"/>
     <use xlink:href="#DejaVuSansMono-65" x="662.255859"/>
    </g>
   </g>
   <g id="patch_9">
    <path d="M 970.797011 99.350898 
Q 891.109645 99.350898 811.422279 99.350898 
" style="fill: none; stroke: #006400; stroke-linecap: round"/>
    <path d="M 965.873934 96.88936 
L 970.797011 99.350898 
L 965.873934 101.812437 
" style="fill: none; stroke: #006400; stroke-linecap: round"/>
    <path d="M 816.345356 101.812437 
L 811.422279 99.350898 
L 816.345356 96.88936 
" style="fill: none; stroke: #006400; stroke-linecap: round"/>
   </g>
   <g id="text_18">
    <!-- add time at the start of the event -->
    <g transform="translate(557.736986 167.36924) scale(0.123077 -0.123077)">
     <defs>
      <path id="DejaVuSans-Bold-6d" d="M 3781 2919 
Q 3994 3244 4286 3414 
Q 4578 3584 4928 3584 
Q 5531 3584 5847 3212 
Q 6163 2841 6163 2131 
L 6163 0 
L 5038 0 
L 5038 1825 
Q 5041 1866 5042 1909 
Q 5044 1953 5044 2034 
Q 5044 2406 4934 2573 
Q 4825 2741 4581 2741 
Q 4263 2741 4089 2478 
Q 3916 2216 3909 1719 
L 3909 0 
L 2784 0 
L 2784 1825 
Q 2784 2406 2684 2573 
Q 2584 2741 2328 2741 
Q 2006 2741 1831 2477 
Q 1656 2213 1656 1722 
L 1656 0 
L 531 0 
L 531 3500 
L 1656 3500 
L 1656 2988 
Q 1863 3284 2130 3434 
Q 2397 3584 2719 3584 
Q 3081 3584 3359 3409 
Q 3638 3234 3781 2919 
z
" transform="scale(0.015625)"/>
     </defs>
     <use xlink:href="#DejaVuSans-Bold-61"/>
     <use xlink:href="#DejaVuSans-Bold-64" x="67.480469"/>
     <use xlink:href="#DejaVuSans-Bold-64" x="139.0625"/>
     <use xlink:href="#DejaVuSans-Bold-20" x="210.644531"/>
     <use xlink:href="#DejaVuSans-Bold-74" x="245.458984"/>
     <use xlink:href="#DejaVuSans-Bold-69" x="293.261719"/>
     <use xlink:href="#DejaVuSans-Bold-6d" x="327.539062"/>
     <use xlink:href="#DejaVuSans-Bold-65" x="431.738281"/>
     <use xlink:href="#DejaVuSans-Bold-20" x="499.560547"/>
     <use xlink:href="#DejaVuSans-Bold-61" x="534.375"/>
     <use xlink:href="#DejaVuSans-Bold-74" x="601.855469"/>
     <use xlink:href="#DejaVuSans-Bold-20" x="649.658203"/>
     <use xlink:href="#DejaVuSans-Bold-74" x="684.472656"/>
     <use xlink:href="#DejaVuSans-Bold-68" x="732.275391"/>
     <use xlink:href="#DejaVuSans-Bold-65" x="803.466797"/>
     <use xlink:href="#DejaVuSans-Bold-20" x="871.289062"/>
     <use xlink:href="#DejaVuSans-Bold-73" x="906.103516"/>
     <use xlink:href="#DejaVuSans-Bold-74" x="965.625"/>
     <use xlink:href="#DejaVuSans-Bold-61" x="1013.427734"/>
     <use xlink:href="#DejaVuSans-Bold-72" x="1080.908203"/>
     <use xlink:href="#DejaVuSans-Bold-74" x="1130.224609"/>
     <use xlink:href="#DejaVuSans-Bold-20" x="1178.027344"/>
     <use xlink:href="#DejaVuSans-Bold-6f" x="1212.841797"/>
     <use xlink:href="#DejaVuSans-Bold-66" x="1281.542969"/>
     <use xlink:href="#DejaVuSans-Bold-20" x="1325.048828"/>
     <use xlink:href="#DejaVuSans-Bold-74" x="1359.863281"/>
     <use xlink:href="#DejaVuSans-Bold-68" x="1407.666016"/>
     <use xlink:href="#DejaVuSans-Bold-65" x="1478.857422"/>
     <use xlink:href="#DejaVuSans-Bold-20" x="1546.679688"/>
     <use xlink:href="#DejaVuSans-Bold-65" x="1581.494141"/>
     <use xlink:href="#DejaVuSans-Bold-76" x="1649.316406"/>
     <use xlink:href="#DejaVuSans-Bold-65" x="1714.501953"/>
     <use xlink:href="#DejaVuSans-Bold-6e" x="1782.324219"/>
     <use xlink:href="#DejaVuSans-Bold-74" x="1853.515625"/>
    </g>
   </g>
   <g id="text_19">
    <!-- add_stime=400 -->
    <g transform="translate(708.259165 184.319791) scale(0.106667 -0.106667)">
     <defs>
      <path id="DejaVuSansMono-69" d="M 800 3500 
L 2272 3500 
L 2272 447 
L 3413 447 
L 3413 0 
L 556 0 
L 556 447 
L 1697 447 
L 1697 3053 
L 800 3053 
L 800 3500 
z
M 1697 4863 
L 2272 4863 
L 2272 4134 
L 1697 4134 
L 1697 4863 
z
" transform="scale(0.015625)"/>
      <path id="DejaVuSansMono-6d" d="M 2113 3144 
Q 2219 3369 2383 3476 
Q 2547 3584 2778 3584 
Q 3200 3584 3373 3257 
Q 3547 2931 3547 2028 
L 3547 0 
L 3022 0 
L 3022 2003 
Q 3022 2744 2939 2923 
Q 2856 3103 2638 3103 
Q 2388 3103 2295 2911 
Q 2203 2719 2203 2003 
L 2203 0 
L 1678 0 
L 1678 2003 
Q 1678 2753 1589 2928 
Q 1500 3103 1269 3103 
Q 1041 3103 952 2911 
Q 863 2719 863 2003 
L 863 0 
L 341 0 
L 341 3500 
L 863 3500 
L 863 3200 
Q 966 3388 1120 3486 
Q 1275 3584 1472 3584 
Q 1709 3584 1867 3475 
Q 2025 3366 2113 3144 
z
" transform="scale(0.015625)"/>
      <path id="DejaVuSansMono-3d" d="M 275 1638 
L 3578 1638 
L 3578 1100 
L 275 1100 
L 275 1638 
z
M 275 2906 
L 3578 2906 
L 3578 2375 
L 275 2375 
L 275 2906 
z
" transform="scale(0.015625)"/>
      <path id="DejaVuSansMono-34" d="M 2297 4091 
L 825 1625 
L 2297 1625 
L 2297 4091 
z
M 2194 4666 
L 2925 4666 
L 2925 1625 
L 3547 1625 
L 3547 1113 
L 2925 1113 
L 2925 0 
L 2297 0 
L 2297 1113 
L 319 1113 
L 319 1709 
L 2194 4666 
z
" transform="scale(0.015625)"/>
      <path id="DejaVuSansMono-30" d="M 1509 2344 
Q 1509 2516 1629 2641 
Q 1750 2766 1919 2766 
Q 2094 2766 2219 2641 
Q 2344 2516 2344 2344 
Q 2344 2169 2220 2047 
Q 2097 1925 1919 1925 
Q 1744 1925 1626 2044 
Q 1509 2163 1509 2344 
z
M 1925 4250 
Q 1484 4250 1267 3775 
Q 1050 3300 1050 2328 
Q 1050 1359 1267 884 
Q 1484 409 1925 409 
Q 2369 409 2586 884 
Q 2803 1359 2803 2328 
Q 2803 3300 2586 3775 
Q 2369 4250 1925 4250 
z
M 1925 4750 
Q 2672 4750 3055 4137 
Q 3438 3525 3438 2328 
Q 3438 1134 3055 521 
Q 2672 -91 1925 -91 
Q 1178 -91 797 521 
Q 416 1134 416 2328 
Q 416 3525 797 4137 
Q 1178 4750 1925 4750 
z
" transform="scale(0.015625)"/>
     </defs>
     <use xlink:href="#DejaVuSansMono-61"/>
     <use xlink:href="#DejaVuSansMono-64" x="60.205078"/>
     <use xlink:href="#DejaVuSansMono-64" x="120.410156"/>
     <use xlink:href="#DejaVuSansMono-5f" x="180.615234"/>
     <use xlink:href="#DejaVuSansMono-73" x="240.820312"/>
     <use xlink:href="#DejaVuSansMono-74" x="301.025391"/>
     <use xlink:href="#DejaVuSansMono-69" x="361.230469"/>
     <use xlink:href="#DejaVuSansMono-6d" x="421.435547"/>
     <use xlink:href="#DejaVuSansMono-65" x="481.640625"/>
     <use xlink:href="#DejaVuSansMono-3d" x="541.845703"/>
     <use xlink:href="#DejaVuSansMono-34" x="602.050781"/>
     <use xlink:href="#DejaVuSansMono-30" x="662.255859"/>
     <use xlink:href="#DejaVuSansMono-30" x="722.460938"/>
    </g>
   </g>
   <g id="patch_10">
    <path d="M 793.742245 163.973086 
Q 800.021505 163.973086 805.18273 163.973086 
" style="fill: none; stroke: #000000; stroke-linecap: round"/>
    <path d="M 800.259653 161.511548 
L 805.18273 163.973086 
L 800.259653 166.434625 
" style="fill: none; stroke: #000000; stroke-linecap: round"/>
   </g>
   <g id="text_20">
    <!-- add time at the end of the event -->
    <g transform="translate(730.895048 207.738162) scale(0.123077 -0.123077)">
     <use xlink:href="#DejaVuSans-Bold-61"/>
     <use xlink:href="#DejaVuSans-Bold-64" x="67.480469"/>
     <use xlink:href="#DejaVuSans-Bold-64" x="139.0625"/>
     <use xlink:href="#DejaVuSans-Bold-20" x="210.644531"/>
     <use xlink:href="#DejaVuSans-Bold-74" x="245.458984"/>
     <use xlink:href="#DejaVuSans-Bold-69" x="293.261719"/>
     <use xlink:href="#DejaVuSans-Bold-6d" x="327.539062"/>
     <use xlink:href="#DejaVuSans-Bold-65" x="431.738281"/>
     <use xlink:href="#DejaVuSans-Bold-20" x="499.560547"/>
     <use xlink:href="#DejaVuSans-Bold-61" x="534.375"/>
     <use xlink:href="#DejaVuSans-Bold-74" x="601.855469"/>
     <use xlink:href="#DejaVuSans-Bold-20" x="649.658203"/>
     <use xlink:href="#DejaVuSans-Bold-74" x="684.472656"/>
     <use xlink:href="#DejaVuSans-Bold-68" x="732.275391"/>
     <use xlink:href="#DejaVuSans-Bold-65" x="803.466797"/>
     <use xlink:href="#DejaVuSans-Bold-20" x="871.289062"/>
     <use xlink:href="#DejaVuSans-Bold-65" x="906.103516"/>
     <use xlink:href="#DejaVuSans-Bold-6e" x="973.925781"/>
     <use xlink:href="#DejaVuSans-Bold-64" x="1045.117188"/>
     <use xlink:href="#DejaVuSans-Bold-20" x="1116.699219"/>
     <use xlink:href="#DejaVuSans-Bold-6f" x="1151.513672"/>
     <use xlink:href="#DejaVuSans-Bold-66" x="1220.214844"/>
     <use xlink:href="#DejaVuSans-Bold-20" x="1263.720703"/>
     <use xlink:href="#DejaVuSans-Bold-74" x="1298.535156"/>
     <use xlink:href="#DejaVuSans-Bold-68" x="1346.337891"/>
     <use xlink:href="#DejaVuSans-Bold-65" x="1417.529297"/>
     <use xlink:href="#DejaVuSans-Bold-20" x="1485.351562"/>
     <use xlink:href="#DejaVuSans-Bold-65" x="1520.166016"/>
     <use xlink:href="#DejaVuSans-Bold-76" x="1587.988281"/>
     <use xlink:href="#DejaVuSans-Bold-65" x="1653.173828"/>
     <use xlink:href="#DejaVuSans-Bold-6e" x="1720.996094"/>
     <use xlink:href="#DejaVuSans-Bold-74" x="1792.1875"/>
    </g>
   </g>
   <g id="text_21">
    <!-- add_etime=600 -->
    <g transform="translate(873.871074 224.688714) scale(0.106667 -0.106667)">
     <defs>
      <path id="DejaVuSansMono-36" d="M 3097 4563 
L 3097 3981 
Q 2900 4097 2678 4158 
Q 2456 4219 2216 4219 
Q 1616 4219 1306 3767 
Q 997 3316 997 2438 
Q 1147 2750 1412 2917 
Q 1678 3084 2022 3084 
Q 2697 3084 3067 2670 
Q 3438 2256 3438 1497 
Q 3438 741 3056 325 
Q 2675 -91 1984 -91 
Q 1172 -91 794 492 
Q 416 1075 416 2328 
Q 416 3509 870 4129 
Q 1325 4750 2188 4750 
Q 2419 4750 2650 4701 
Q 2881 4653 3097 4563 
z
M 1972 2591 
Q 1569 2591 1337 2300 
Q 1106 2009 1106 1497 
Q 1106 984 1337 693 
Q 1569 403 1972 403 
Q 2391 403 2603 679 
Q 2816 956 2816 1497 
Q 2816 2041 2603 2316 
Q 2391 2591 1972 2591 
z
" transform="scale(0.015625)"/>
     </defs>
     <use xlink:href="#DejaVuSansMono-61"/>
     <use xlink:href="#DejaVuSansMono-64" x="60.205078"/>
     <use xlink:href="#DejaVuSansMono-64" x="120.410156"/>
     <use xlink:href="#DejaVuSansMono-5f" x="180.615234"/>
     <use xlink:href="#DejaVuSansMono-65" x="240.820312"/>
     <use xlink:href="#DejaVuSansMono-74" x="301.025391"/>
     <use xlink:href="#DejaVuSansMono-69" x="361.230469"/>
     <use xlink:href="#DejaVuSansMono-6d" x="421.435547"/>
     <use xlink:href="#DejaVuSansMono-65" x="481.640625"/>
     <use xlink:href="#DejaVuSansMono-3d" x="541.845703"/>
     <use xlink:href="#DejaVuSansMono-36" x="602.050781"/>
     <use xlink:href="#DejaVuSansMono-30" x="662.255859"/>
     <use xlink:href="#DejaVuSansMono-30" x="722.460938"/>
    </g>
   </g>
   <g id="patch_11">
    <path d="M 959.354154 204.342008 
Q 965.633413 204.342008 970.794639 204.342008 
" style="fill: none; stroke: #000000; stroke-linecap: round"/>
    <path d="M 965.871562 201.88047 
L 970.794639 204.342008 
L 965.871562 206.803547 
" style="fill: none; stroke: #000000; stroke-linecap: round"/>
   </g>
   <g id="text_22">
    <!-- Fixation point -->
    <g style="opacity: 0.4" transform="translate(83.061888 73.309505) scale(0.16 -0.16)">
     <defs>
      <path id="DejaVuSans-Bold-46" d="M 588 4666 
L 3834 4666 
L 3834 3756 
L 1791 3756 
L 1791 2888 
L 3713 2888 
L 3713 1978 
L 1791 1978 
L 1791 0 
L 588 0 
L 588 4666 
z
" transform="scale(0.015625)"/>
      <path id="DejaVuSans-Bold-78" d="M 1422 1791 
L 159 3500 
L 1344 3500 
L 2059 2463 
L 2784 3500 
L 3969 3500 
L 2706 1797 
L 4031 0 
L 2847 0 
L 2059 1106 
L 1281 0 
L 97 0 
L 1422 1791 
z
" transform="scale(0.015625)"/>
      <path id="DejaVuSans-Bold-70" d="M 1656 506 
L 1656 -1331 
L 538 -1331 
L 538 3500 
L 1656 3500 
L 1656 2988 
Q 1888 3294 2169 3439 
Q 2450 3584 2816 3584 
Q 3463 3584 3878 3070 
Q 4294 2556 4294 1747 
Q 4294 938 3878 423 
Q 3463 -91 2816 -91 
Q 2450 -91 2169 54 
Q 1888 200 1656 506 
z
M 2400 2772 
Q 2041 2772 1848 2508 
Q 1656 2244 1656 1747 
Q 1656 1250 1848 986 
Q 2041 722 2400 722 
Q 2759 722 2948 984 
Q 3138 1247 3138 1747 
Q 3138 2247 2948 2509 
Q 2759 2772 2400 2772 
z
" transform="scale(0.015625)"/>
     </defs>
     <use xlink:href="#DejaVuSans-Bold-46"/>
     <use xlink:href="#DejaVuSans-Bold-69" x="68.310547"/>
     <use xlink:href="#DejaVuSans-Bold-78" x="102.587891"/>
     <use xlink:href="#DejaVuSans-Bold-61" x="167.089844"/>
     <use xlink:href="#DejaVuSans-Bold-74" x="234.570312"/>
     <use xlink:href="#DejaVuSans-Bold-69" x="282.373047"/>
     <use xlink:href="#DejaVuSans-Bold-6f" x="316.650391"/>
     <use xlink:href="#DejaVuSans-Bold-6e" x="385.351562"/>
     <use xlink:href="#DejaVuSans-Bold-20" x="456.542969"/>
     <use xlink:href="#DejaVuSans-Bold-70" x="491.357422"/>
     <use xlink:href="#DejaVuSans-Bold-6f" x="562.939453"/>
     <use xlink:href="#DejaVuSans-Bold-69" x="631.640625"/>
     <use xlink:href="#DejaVuSans-Bold-6e" x="665.917969"/>
     <use xlink:href="#DejaVuSans-Bold-74" x="737.109375"/>
    </g>
   </g>
   <g id="text_23">
    <!-- GAP -->
    <g style="opacity: 0.4" transform="translate(334.248024 73.309505) scale(0.16 -0.16)">
     <defs>
      <path id="DejaVuSans-Bold-47" d="M 4781 347 
Q 4331 128 3847 18 
Q 3363 -91 2847 -91 
Q 1681 -91 1000 561 
Q 319 1213 319 2328 
Q 319 3456 1012 4103 
Q 1706 4750 2913 4750 
Q 3378 4750 3804 4662 
Q 4231 4575 4609 4403 
L 4609 3438 
Q 4219 3659 3833 3768 
Q 3447 3878 3059 3878 
Q 2341 3878 1952 3476 
Q 1563 3075 1563 2328 
Q 1563 1588 1938 1184 
Q 2313 781 3003 781 
Q 3191 781 3352 804 
Q 3513 828 3641 878 
L 3641 1784 
L 2906 1784 
L 2906 2591 
L 4781 2591 
L 4781 347 
z
" transform="scale(0.015625)"/>
      <path id="DejaVuSans-Bold-41" d="M 3419 850 
L 1538 850 
L 1241 0 
L 31 0 
L 1759 4666 
L 3194 4666 
L 4922 0 
L 3713 0 
L 3419 850 
z
M 1838 1716 
L 3116 1716 
L 2478 3572 
L 1838 1716 
z
" transform="scale(0.015625)"/>
      <path id="DejaVuSans-Bold-50" d="M 588 4666 
L 2584 4666 
Q 3475 4666 3951 4270 
Q 4428 3875 4428 3144 
Q 4428 2409 3951 2014 
Q 3475 1619 2584 1619 
L 1791 1619 
L 1791 0 
L 588 0 
L 588 4666 
z
M 1791 3794 
L 1791 2491 
L 2456 2491 
Q 2806 2491 2997 2661 
Q 3188 2831 3188 3144 
Q 3188 3456 2997 3625 
Q 2806 3794 2456 3794 
L 1791 3794 
z
" transform="scale(0.015625)"/>
     </defs>
     <use xlink:href="#DejaVuSans-Bold-47"/>
     <use xlink:href="#DejaVuSans-Bold-41" x="82.080078"/>
     <use xlink:href="#DejaVuSans-Bold-50" x="159.472656"/>
    </g>
   </g>
   <g id="text_24">
    <!-- Target in motion -->
    <g style="opacity: 0.4" transform="translate(692.140016 73.309505) scale(0.16 -0.16)">
     <defs>
      <path id="DejaVuSans-Bold-54" d="M 31 4666 
L 4331 4666 
L 4331 3756 
L 2784 3756 
L 2784 0 
L 1581 0 
L 1581 3756 
L 31 3756 
L 31 4666 
z
" transform="scale(0.015625)"/>
     </defs>
     <use xlink:href="#DejaVuSans-Bold-54"/>
     <use xlink:href="#DejaVuSans-Bold-61" x="55.337891"/>
     <use xlink:href="#DejaVuSans-Bold-72" x="122.818359"/>
     <use xlink:href="#DejaVuSans-Bold-67" x="172.134766"/>
     <use xlink:href="#DejaVuSans-Bold-65" x="243.716797"/>
     <use xlink:href="#DejaVuSans-Bold-74" x="311.539062"/>
     <use xlink:href="#DejaVuSans-Bold-20" x="359.341797"/>
     <use xlink:href="#DejaVuSans-Bold-69" x="394.15625"/>
     <use xlink:href="#DejaVuSans-Bold-6e" x="428.433594"/>
     <use xlink:href="#DejaVuSans-Bold-20" x="499.625"/>
     <use xlink:href="#DejaVuSans-Bold-6d" x="534.439453"/>
     <use xlink:href="#DejaVuSans-Bold-6f" x="638.638672"/>
     <use xlink:href="#DejaVuSans-Bold-74" x="707.339844"/>
     <use xlink:href="#DejaVuSans-Bold-69" x="755.142578"/>
     <use xlink:href="#DejaVuSans-Bold-6f" x="789.419922"/>
     <use xlink:href="#DejaVuSans-Bold-6e" x="858.121094"/>
    </g>
   </g>
   <g id="text_25">
    <!-- The event marking the appearance of the target -->
    <g transform="translate(111.60766 259.397222) scale(0.123077 -0.123077)">
     <defs>
      <path id="DejaVuSans-Bold-6b" d="M 538 4863 
L 1656 4863 
L 1656 2216 
L 2944 3500 
L 4244 3500 
L 2534 1894 
L 4378 0 
L 3022 0 
L 1656 1459 
L 1656 0 
L 538 0 
L 538 4863 
z
" transform="scale(0.015625)"/>
     </defs>
     <use xlink:href="#DejaVuSans-Bold-54"/>
     <use xlink:href="#DejaVuSans-Bold-68" x="68.212891"/>
     <use xlink:href="#DejaVuSans-Bold-65" x="139.404297"/>
     <use xlink:href="#DejaVuSans-Bold-20" x="207.226562"/>
     <use xlink:href="#DejaVuSans-Bold-65" x="242.041016"/>
     <use xlink:href="#DejaVuSans-Bold-76" x="309.863281"/>
     <use xlink:href="#DejaVuSans-Bold-65" x="375.048828"/>
     <use xlink:href="#DejaVuSans-Bold-6e" x="442.871094"/>
     <use xlink:href="#DejaVuSans-Bold-74" x="514.0625"/>
     <use xlink:href="#DejaVuSans-Bold-20" x="561.865234"/>
     <use xlink:href="#DejaVuSans-Bold-6d" x="596.679688"/>
     <use xlink:href="#DejaVuSans-Bold-61" x="700.878906"/>
     <use xlink:href="#DejaVuSans-Bold-72" x="768.359375"/>
     <use xlink:href="#DejaVuSans-Bold-6b" x="817.675781"/>
     <use xlink:href="#DejaVuSans-Bold-69" x="884.179688"/>
     <use xlink:href="#DejaVuSans-Bold-6e" x="918.457031"/>
     <use xlink:href="#DejaVuSans-Bold-67" x="989.648438"/>
     <use xlink:href="#DejaVuSans-Bold-20" x="1061.230469"/>
     <use xlink:href="#DejaVuSans-Bold-74" x="1096.044922"/>
     <use xlink:href="#DejaVuSans-Bold-68" x="1143.847656"/>
     <use xlink:href="#DejaVuSans-Bold-65" x="1215.039062"/>
     <use xlink:href="#DejaVuSans-Bold-20" x="1282.861328"/>
     <use xlink:href="#DejaVuSans-Bold-61" x="1317.675781"/>
     <use xlink:href="#DejaVuSans-Bold-70" x="1385.15625"/>
     <use xlink:href="#DejaVuSans-Bold-70" x="1456.738281"/>
     <use xlink:href="#DejaVuSans-Bold-65" x="1528.320312"/>
     <use xlink:href="#DejaVuSans-Bold-61" x="1596.142578"/>
     <use xlink:href="#DejaVuSans-Bold-72" x="1663.623047"/>
     <use xlink:href="#DejaVuSans-Bold-61" x="1712.939453"/>
     <use xlink:href="#DejaVuSans-Bold-6e" x="1780.419922"/>
     <use xlink:href="#DejaVuSans-Bold-63" x="1851.611328"/>
     <use xlink:href="#DejaVuSans-Bold-65" x="1910.888672"/>
     <use xlink:href="#DejaVuSans-Bold-20" x="1978.710938"/>
     <use xlink:href="#DejaVuSans-Bold-6f" x="2013.525391"/>
     <use xlink:href="#DejaVuSans-Bold-66" x="2082.226562"/>
     <use xlink:href="#DejaVuSans-Bold-20" x="2125.732422"/>
     <use xlink:href="#DejaVuSans-Bold-74" x="2160.546875"/>
     <use xlink:href="#DejaVuSans-Bold-68" x="2208.349609"/>
     <use xlink:href="#DejaVuSans-Bold-65" x="2279.541016"/>
     <use xlink:href="#DejaVuSans-Bold-20" x="2347.363281"/>
     <use xlink:href="#DejaVuSans-Bold-74" x="2382.177734"/>
     <use xlink:href="#DejaVuSans-Bold-61" x="2429.980469"/>
     <use xlink:href="#DejaVuSans-Bold-72" x="2497.460938"/>
     <use xlink:href="#DejaVuSans-Bold-67" x="2546.777344"/>
     <use xlink:href="#DejaVuSans-Bold-65" x="2618.359375"/>
     <use xlink:href="#DejaVuSans-Bold-74" x="2686.181641"/>
    </g>
   </g>
   <g id="text_26">
    <!-- eventName_TargetOn -->
    <g transform="translate(332.506121 276.301683) scale(0.106667 -0.106667)">
     <defs>
      <path id="DejaVuSansMono-76" d="M 313 3500 
L 909 3500 
L 1925 563 
L 2944 3500 
L 3541 3500 
L 2297 0 
L 1556 0 
L 313 3500 
z
" transform="scale(0.015625)"/>
      <path id="DejaVuSansMono-6e" d="M 3284 2169 
L 3284 0 
L 2706 0 
L 2706 2169 
Q 2706 2641 2540 2862 
Q 2375 3084 2022 3084 
Q 1619 3084 1401 2798 
Q 1184 2513 1184 1978 
L 1184 0 
L 609 0 
L 609 3500 
L 1184 3500 
L 1184 2975 
Q 1338 3275 1600 3429 
Q 1863 3584 2222 3584 
Q 2756 3584 3020 3232 
Q 3284 2881 3284 2169 
z
" transform="scale(0.015625)"/>
      <path id="DejaVuSansMono-4e" d="M 434 4666 
L 1234 4666 
L 2809 825 
L 2809 4666 
L 3419 4666 
L 3419 0 
L 2619 0 
L 1044 3841 
L 1044 0 
L 434 0 
L 434 4666 
z
" transform="scale(0.015625)"/>
      <path id="DejaVuSansMono-54" d="M 147 4666 
L 3706 4666 
L 3706 4134 
L 2247 4134 
L 2247 0 
L 1613 0 
L 1613 4134 
L 147 4134 
L 147 4666 
z
" transform="scale(0.015625)"/>
      <path id="DejaVuSansMono-72" d="M 3609 2778 
Q 3425 2922 3234 2987 
Q 3044 3053 2816 3053 
Q 2278 3053 1993 2715 
Q 1709 2378 1709 1741 
L 1709 0 
L 1131 0 
L 1131 3500 
L 1709 3500 
L 1709 2816 
Q 1853 3188 2151 3386 
Q 2450 3584 2859 3584 
Q 3072 3584 3256 3531 
Q 3441 3478 3609 3366 
L 3609 2778 
z
" transform="scale(0.015625)"/>
      <path id="DejaVuSansMono-67" d="M 2681 1778 
Q 2681 2425 2470 2761 
Q 2259 3097 1856 3097 
Q 1434 3097 1212 2761 
Q 991 2425 991 1778 
Q 991 1131 1214 792 
Q 1438 453 1863 453 
Q 2259 453 2470 793 
Q 2681 1134 2681 1778 
z
M 3256 225 
Q 3256 -563 2884 -969 
Q 2513 -1375 1791 -1375 
Q 1553 -1375 1293 -1331 
Q 1034 -1288 775 -1203 
L 775 -634 
Q 1081 -778 1331 -847 
Q 1581 -916 1791 -916 
Q 2256 -916 2468 -662 
Q 2681 -409 2681 141 
L 2681 166 
L 2681 556 
Q 2544 263 2306 119 
Q 2069 -25 1728 -25 
Q 1116 -25 750 465 
Q 384 956 384 1778 
Q 384 2603 750 3093 
Q 1116 3584 1728 3584 
Q 2066 3584 2300 3450 
Q 2534 3316 2681 3034 
L 2681 3488 
L 3256 3488 
L 3256 225 
z
" transform="scale(0.015625)"/>
      <path id="DejaVuSansMono-4f" d="M 2828 2328 
Q 2828 3356 2617 3797 
Q 2406 4238 1925 4238 
Q 1447 4238 1236 3797 
Q 1025 3356 1025 2328 
Q 1025 1303 1236 862 
Q 1447 422 1925 422 
Q 2406 422 2617 861 
Q 2828 1300 2828 2328 
z
M 3488 2328 
Q 3488 1109 3102 509 
Q 2716 -91 1925 -91 
Q 1134 -91 750 506 
Q 366 1103 366 2328 
Q 366 3550 752 4150 
Q 1138 4750 1925 4750 
Q 2716 4750 3102 4150 
Q 3488 3550 3488 2328 
z
" transform="scale(0.015625)"/>
     </defs>
     <use xlink:href="#DejaVuSansMono-65"/>
     <use xlink:href="#DejaVuSansMono-76" x="60.205078"/>
     <use xlink:href="#DejaVuSansMono-65" x="120.410156"/>
     <use xlink:href="#DejaVuSansMono-6e" x="180.615234"/>
     <use xlink:href="#DejaVuSansMono-74" x="240.820312"/>
     <use xlink:href="#DejaVuSansMono-4e" x="301.025391"/>
     <use xlink:href="#DejaVuSansMono-61" x="361.230469"/>
     <use xlink:href="#DejaVuSansMono-6d" x="421.435547"/>
     <use xlink:href="#DejaVuSansMono-65" x="481.640625"/>
     <use xlink:href="#DejaVuSansMono-5f" x="541.845703"/>
     <use xlink:href="#DejaVuSansMono-54" x="602.050781"/>
     <use xlink:href="#DejaVuSansMono-61" x="662.255859"/>
     <use xlink:href="#DejaVuSansMono-72" x="722.460938"/>
     <use xlink:href="#DejaVuSansMono-67" x="782.666016"/>
     <use xlink:href="#DejaVuSansMono-65" x="842.871094"/>
     <use xlink:href="#DejaVuSansMono-74" x="903.076172"/>
     <use xlink:href="#DejaVuSansMono-4f" x="963.28125"/>
     <use xlink:href="#DejaVuSansMono-6e" x="1023.486328"/>
    </g>
   </g>
   <g id="patch_12">
    <path d="M 450.095008 256.049145 
Q 462.586924 256.049145 473.960806 256.049145 
" style="fill: none; stroke: #000000; stroke-linecap: round"/>
    <path d="M 469.037729 253.587606 
L 473.960806 256.049145 
L 469.037729 258.510683 
" style="fill: none; stroke: #000000; stroke-linecap: round"/>
   </g>
   <g id="text_27">
    <!-- Steady State -->
    <g transform="translate(478.888099 31.026388) scale(0.25 -0.25)">
     <defs>
      <path id="DejaVuSans-53" d="M 3425 4513 
L 3425 3897 
Q 3066 4069 2747 4153 
Q 2428 4238 2131 4238 
Q 1616 4238 1336 4038 
Q 1056 3838 1056 3469 
Q 1056 3159 1242 3001 
Q 1428 2844 1947 2747 
L 2328 2669 
Q 3034 2534 3370 2195 
Q 3706 1856 3706 1288 
Q 3706 609 3251 259 
Q 2797 -91 1919 -91 
Q 1588 -91 1214 -16 
Q 841 59 441 206 
L 441 856 
Q 825 641 1194 531 
Q 1563 422 1919 422 
Q 2459 422 2753 634 
Q 3047 847 3047 1241 
Q 3047 1584 2836 1778 
Q 2625 1972 2144 2069 
L 1759 2144 
Q 1053 2284 737 2584 
Q 422 2884 422 3419 
Q 422 4038 858 4394 
Q 1294 4750 2059 4750 
Q 2388 4750 2728 4690 
Q 3069 4631 3425 4513 
z
" transform="scale(0.015625)"/>
      <path id="DejaVuSans-61" d="M 2194 1759 
Q 1497 1759 1228 1600 
Q 959 1441 959 1056 
Q 959 750 1161 570 
Q 1363 391 1709 391 
Q 2188 391 2477 730 
Q 2766 1069 2766 1631 
L 2766 1759 
L 2194 1759 
z
M 3341 1997 
L 3341 0 
L 2766 0 
L 2766 531 
Q 2569 213 2275 61 
Q 1981 -91 1556 -91 
Q 1019 -91 701 211 
Q 384 513 384 1019 
Q 384 1609 779 1909 
Q 1175 2209 1959 2209 
L 2766 2209 
L 2766 2266 
Q 2766 2663 2505 2880 
Q 2244 3097 1772 3097 
Q 1472 3097 1187 3025 
Q 903 2953 641 2809 
L 641 3341 
Q 956 3463 1253 3523 
Q 1550 3584 1831 3584 
Q 2591 3584 2966 3190 
Q 3341 2797 3341 1997 
z
" transform="scale(0.015625)"/>
      <path id="DejaVuSans-64" d="M 2906 2969 
L 2906 4863 
L 3481 4863 
L 3481 0 
L 2906 0 
L 2906 525 
Q 2725 213 2448 61 
Q 2172 -91 1784 -91 
Q 1150 -91 751 415 
Q 353 922 353 1747 
Q 353 2572 751 3078 
Q 1150 3584 1784 3584 
Q 2172 3584 2448 3432 
Q 2725 3281 2906 2969 
z
M 947 1747 
Q 947 1113 1208 752 
Q 1469 391 1925 391 
Q 2381 391 2643 752 
Q 2906 1113 2906 1747 
Q 2906 2381 2643 2742 
Q 2381 3103 1925 3103 
Q 1469 3103 1208 2742 
Q 947 2381 947 1747 
z
" transform="scale(0.015625)"/>
     </defs>
     <use xlink:href="#DejaVuSans-53"/>
     <use xlink:href="#DejaVuSans-74" x="63.476562"/>
     <use xlink:href="#DejaVuSans-65" x="102.685547"/>
     <use xlink:href="#DejaVuSans-61" x="164.208984"/>
     <use xlink:href="#DejaVuSans-64" x="225.488281"/>
     <use xlink:href="#DejaVuSans-79" x="288.964844"/>
     <use xlink:href="#DejaVuSans-20" x="348.144531"/>
     <use xlink:href="#DejaVuSans-53" x="379.931641"/>
     <use xlink:href="#DejaVuSans-74" x="443.408203"/>
     <use xlink:href="#DejaVuSans-61" x="482.617188"/>
     <use xlink:href="#DejaVuSans-74" x="543.896484"/>
     <use xlink:href="#DejaVuSans-65" x="583.105469"/>
    </g>
   </g>
  </g>
 </g>
 <defs>
  <clipPath id="pc4ee96119e">
   <rect x="53.12" y="49.089197" width="1012.70026" height="241.256168"/>
  </clipPath>
 </defs>
</svg>
